<?xml version="1.0" encoding="utf-8"?>
<!-- Generator: Adobe Illustrator 27.5.0, SVG Export Plug-In . SVG Version: 6.00 Build 0)  -->
<svg version="1.1" id="Capa_1" xmlns="http://www.w3.org/2000/svg" xmlns:xlink="http://www.w3.org/1999/xlink" x="0px" y="0px"
	 viewBox="0 0 425.197 425.197" style="enable-background:new 0 0 425.197 425.197;" xml:space="preserve">
<rect x="0" y="0" style="fill:#F6F6F6;" width="425.197" height="425.197"/>
<path style="fill:#ACD7E5;" d="M312.003,371.386c49.358-33.177,81.957-90.338,81.957-155.301
	c0-102.539-81.198-185.667-181.361-185.667S31.238,113.546,31.238,216.085c0,64.963,32.599,122.123,81.957,155.301H312.003z"/>
<path style="fill:#DADADA;" d="M79.076,368.199c0,16.049,59.78,29.06,133.522,29.06c73.743,0,133.522-13.011,133.522-29.06
	c0-16.049-59.78-29.061-133.522-29.061C138.856,339.138,79.076,352.149,79.076,368.199z"/>
<path style="fill:#BEBEBE;" d="M152.235,366.167c0,2.23-8.13,4.038-18.159,4.038c-10.028,0-18.16-1.808-18.16-4.038
	c0-2.229,8.131-4.038,18.16-4.038C144.105,362.129,152.235,363.938,152.235,366.167z"/>
<path style="fill:#BEBEBE;" d="M188.554,356.678c0,2.23-8.131,4.038-18.16,4.038c-10.028,0-18.159-1.807-18.159-4.038
	c0-2.23,8.131-4.038,18.159-4.038C180.423,352.64,188.554,354.448,188.554,356.678z"/>
<path style="fill:#BEBEBE;" d="M266.302,360.136c0,2.23-8.13,4.037-18.159,4.037c-10.028,0-18.158-1.807-18.158-4.037
	c0-2.229,8.13-4.038,18.158-4.038C258.172,356.099,266.302,357.907,266.302,360.136z"/>
<path style="fill:#BEBEBE;" d="M302.144,364.753c0,2.229-8.129,4.037-18.159,4.037s-18.159-1.808-18.159-4.037
	c0-2.23,8.129-4.038,18.159-4.038S302.144,362.522,302.144,364.753z"/>
<g>
	<path style="fill:#481615;" d="M284.741,50.997c14.947,19.767-0.05,98.345,4.159,103.751
		c-11.974,1.802-47.526-30.237-49.286-74.572c-0.805-20.28,1.683-38.224,13.972-34.346
		C257.235,42.047,274.759,37.795,284.741,50.997z"/>
	<path style="fill:#F9BB8D;" d="M229.354,145.773c-1.033,1.582-25.613,0.188-25.613,0.188l-2.133,3.324
		c0,0,27.528,6.654,31.75,3.845c4.475-3.042,22.386-26.206,23.581-32.277c0.308-1.575,0.206-4.511-0.532-6.12
		c-0.732-1.598-0.975-0.606-6.268,0.31C244.608,116.002,230.344,144.256,229.354,145.773z"/>
	<path style="fill:#DADADA;" d="M231.939,140.663c3.423-7.425,13.559-26.253,18.004-27.021c5.294-0.918,7.302,5.637,6.994,7.212
		c-1.07,5.433-12.653,22.383-18.285,28.069C236.354,146.769,233.019,144.391,231.939,140.663z"/>
	<path style="fill:#E6AD79;" d="M252.372,339.138l-8.489,12.649c0,0-5.6,7.73,2.188,2.551c7.789-5.18,12.859-15.201,12.859-15.201
		s7.696-41.885,8.97-50.174c1.274-8.29-2.295-18.373-2.295-18.373l5.217-39.747l-20.33,1.692l0.122,38.669L252.372,339.138z"/>
	<path style="fill:#454F56;" d="M238.791,359.88c2.664,0.017,6.256,0.03,8.595,0.066c2.339,0.037,8.094-8.711,8.094-8.711
		l1.296,8.864l2.355,0.036c0,0,0.867-9.378,1.145-12.683c0.279-3.302-1.345-8.315-1.345-8.315s-2.629,1.682-4.104,4.829
		c-3.399,7.254-9.533,10.854-10.944,7.82c-1.618,0.878-4.072,2.429-5.754,3.678C236.318,356.813,234.075,359.85,238.791,359.88z"/>
	<path style="fill:#F9BB8D;" d="M284.741,343.004l-5.824,14.076c0,0-3.965,8.685,2.648,2.068c6.612-6.614,9.606-17.438,9.606-17.438
		s-0.72-42.58-1.107-50.957c-0.387-8.38-5.875-17.559-5.875-17.559l-2.731-39.994l-19.595,5.669l7.752,37.885L284.741,343.004z"/>
	<path style="fill:#454F56;" d="M275.521,366.02c2.616-0.511,6.14-1.205,8.44-1.631c2.3-0.427,6.215-10.138,6.215-10.138l3.02,8.435
		l2.315-0.43c0,0-1.001-9.365-1.379-12.659c-0.379-3.293-2.961-7.887-2.961-7.887s-2.245,2.167-3.069,5.544
		c-1.901,7.782-7.204,12.521-9.185,9.826c-1.414,1.179-3.514,3.185-4.915,4.741C272.492,363.5,270.892,366.919,275.521,366.02z"/>
	<path style="fill:#454F56;" d="M293.735,193.511c-5.397-10.394-48.091,0-48.091,0l-1.191,77.742c0,0,13.962,2.315,25.459,2.315
		c11.496,0,22.388-2.102,22.388-2.102S301.699,208.845,293.735,193.511z"/>
	<path style="fill:#FFFFFF;" d="M245.644,193.511h48.091l-9.282-30.095l3.752-29.02l-1.559-19.337l-11.673-4.043h-15.469
		l-9.561,2.625l-2.303,15.104c0,0-4.478,7.98-4.273,10.902c0.205,2.922,3.102,6.269,3.102,6.269l2.434,15.714L245.644,193.511z"/>
	<path style="fill:#F9BB8D;" d="M260.882,105.032c-2.994-2.608,16.941-8.691,15.092-4.349c-2.737,6.432,0.089,10.334,0.089,10.334
		s-3.468,7.075-9.262,7.075c-5.794,0-7.084-7.075-7.084-7.075S263.878,107.64,260.882,105.032z"/>
	<path style="fill:#DEA97F;" d="M270.635,105.103c-0.883,3.38-6.995,5.382-9.086,3.653c0.566-1.129,0.729-2.509-0.667-3.724
		c-2.064-1.798,6.772-5.249,11.853-5.794C271.54,101.033,271.028,102.998,270.635,105.103z"/>
	<path style="fill:#F9BB8D;" d="M261.864,106.48l13.056-2.167c0,0,3.169-9.704,4.223-14.175c0.835,0.598,1.835,0.84,3.358,0.382
		c1.667-0.499,3.414-4.595,3.007-7.484c-0.448-3.176-3.83-3.917-5.75-1.105c-1.104,1.617-1.623,4.82-1.623,4.82
		s-2.9-0.652-0.978-5.211c2.915-6.907,1.534-18.392-1.831-21.246c-6.031-5.114-22.722-7.175-28.218,0.153
		c-2.364,3.153-3.194,11.995-3.002,16.715c0.814,20.015,4.224,24.979,7.887,27.814C255.12,107.396,261.864,106.48,261.864,106.48z"
		/>
	<path style="fill:#DADADA;" d="M271.012,123.962l11.069-10.832c0,0-5.144-2.219-6.019-2.113c-1.741,4.122-9.262,7.075-9.262,7.075
		L271.012,123.962z"/>
	<path style="fill:#DADADA;" d="M261.875,123.528l-7.483-11.382l5.326-1.129c0,0,1.37,6.328,7.084,7.075
		C267.311,118.289,261.875,123.528,261.875,123.528z"/>
	<path style="fill:#F9BB8D;" d="M292.571,155.355c0.085,0.438-15.257,20.176-15.257,20.176l3.418,1.98
		c0,0,20.384-15.066,20.939-20.105c0.54-5.383-6.841-32.995-10.648-37.817c-0.99-1.248-2.739-3.074-4.412-3.544
		c-1.663-0.465-3.038,7.658-1.489,13.671C285.8,132.35,292.233,153.576,292.571,155.355z"/>
	<path style="fill:#DADADA;" d="M290.393,151.496c-2.6-4.491-5.32-18.784-5.94-21.193c-1.549-6.013,0.53-15.71,2.193-15.243
		c1.673,0.47,3.945,2.281,4.935,3.529c3.005,3.805,7.577,19.626,9.108,28.78C297.753,148.498,293.358,150.827,290.393,151.496z"/>
	<path style="fill:#481615;" d="M288.27,59.962c0.502,6.35,0.157,13.231-5.439,14.644c-10.828,0.627-26.568-9.701-29.245-11.592
		c0,0-8.318,5.403-9.71,4.925c-3.023-14.053,4.07-19.246,18.908-19.246C277.621,48.693,284.149,48.216,288.27,59.962z"/>
	<polygon style="fill:#E7DAD7;" points="256.033,84.888 258.168,87.857 258.168,75.089 	"/>
	<path style="fill:#481615;" d="M248.33,77.163c0,1.013,0.82,1.832,1.832,1.832c1.013,0,1.832-0.819,1.832-1.832
		c0-1.01-0.819-1.832-1.832-1.832C249.15,75.33,248.33,76.152,248.33,77.163z"/>
	<path style="fill:#481615;" d="M264.621,77.163c0,1.013,0.82,1.832,1.832,1.832c1.012,0,1.832-0.819,1.832-1.832
		c0-1.01-0.819-1.832-1.832-1.832C265.441,75.33,264.621,76.152,264.621,77.163z"/>
	<path style="opacity:0.4;fill:#E27F64;" d="M272.735,83.993c0,1.389-1.996,2.519-4.456,2.519c-2.461,0-4.457-1.129-4.457-2.519
		c0-1.393,1.996-2.52,4.457-2.52C270.739,81.474,272.735,82.6,272.735,83.993z"/>
	<path style="opacity:0.4;fill:#E27F64;" d="M253.833,83.535c0,1.137-1.996,2.061-4.456,2.061c-2.461,0-4.456-0.923-4.456-2.061
		c0-1.141,1.995-2.062,4.456-2.062C251.836,81.474,253.833,82.395,253.833,83.535z"/>
	<g>
		<path style="fill:#F9BB8D;" d="M277.314,175.531l2.95,0.439l0.468,1.541c0,0-1.082,4.321-1.29,6.046
			c-0.127,1.059-5.265-0.528-5.265-0.528c0.25-0.866,0.125-1.657,0.125-1.657s-0.951,1.552-1.358,2.246
			c-0.591,1.004-1.322-0.059-1.005-0.829c0.317-0.771,1.94-4.593,2.682-5.277C275.56,176.649,277.314,175.531,277.314,175.531z"/>
		<path style="fill:#F9BB8D;" d="M277.729,188.343c-0.132,1.174,0.994,1.078,1.115,0.26c0.123-0.818,0.754-6.032,0.754-6.032
			l-1.253,0.289C278.346,182.859,277.86,187.165,277.729,188.343z"/>
		<path style="fill:#F9BB8D;" d="M276.146,188.948c-0.131,1.175,1.178,1.128,1.3,0.31c0.122-0.818,0.854-6.47,0.854-6.47
			l-1.438,0.237C276.862,183.025,276.278,187.771,276.146,188.948z"/>
		<path style="fill:#F9BB8D;" d="M274.63,189.145c-0.13,1.175,1.178,1.128,1.3,0.31c0.122-0.817,0.853-6.47,0.853-6.47l-1.439,0.239
			C275.345,183.224,274.761,187.969,274.63,189.145z"/>
		<path style="fill:#F9BB8D;" d="M273.496,188.521c-0.126,1.089,0.957,1.026,1.07,0.268c0.114-0.759,0.802-6.001,0.802-6.001
			l-1.191,0.241C274.177,183.029,273.623,187.432,273.496,188.521z"/>
	</g>
	<g>
		<path style="fill:#F9BB8D;" d="M203.74,145.961l-0.573,2.927l-1.56,0.398c0,0-4.267-1.277-5.981-1.563
			c-1.052-0.174,0.766-5.236,0.766-5.236c0.854,0.289,1.651,0.2,1.651,0.2s-1.508-1.021-2.183-1.46
			c-0.976-0.635,0.119-1.317,0.875-0.965c0.756,0.351,4.499,2.145,5.148,2.919C202.705,144.159,203.74,145.961,203.74,145.961z"/>
		<path style="fill:#F9BB8D;" d="M190.922,145.795c-1.167-0.185-1.122,0.944-0.31,1.103c0.811,0.159,5.993,1.028,5.993,1.028
			l-0.231-1.265C196.374,146.66,192.092,145.98,190.922,145.795z"/>
		<path style="fill:#F9BB8D;" d="M190.389,144.186c-1.167-0.185-1.18,1.126-0.368,1.285c0.812,0.159,6.425,1.145,6.425,1.145
			l-0.173-1.446C196.274,145.17,191.559,144.371,190.389,144.186z"/>
		<path style="fill:#F9BB8D;" d="M190.261,142.662c-1.167-0.184-1.181,1.127-0.368,1.286c0.813,0.159,6.426,1.146,6.426,1.146
			l-0.173-1.447C196.146,143.647,191.431,142.847,190.261,142.662z"/>
		<path style="fill:#F9BB8D;" d="M190.936,141.558c-1.081-0.176-1.068,0.909-0.316,1.057c0.754,0.147,5.96,1.074,5.96,1.074
			l-0.188-1.201C196.392,142.487,192.02,141.734,190.936,141.558z"/>
	</g>
	<path style="fill:#481615;" d="M245.842,73.126c2.285-2.02,4.272-2.186,6.544-1.431c0.524,0.174,0.21-1.237-0.151-1.449
		c-2.066-1.211-5.677,0.628-6.732,2.282C245.255,72.915,245.424,73.496,245.842,73.126z"/>
	<path style="fill:#360D09;" d="M271.235,73.126c-2.285-2.02-4.273-2.186-6.544-1.431c-0.525,0.174-0.211-1.237,0.15-1.449
		c2.066-1.211,5.678,0.628,6.732,2.282C271.822,72.915,271.653,73.496,271.235,73.126z"/>
	<g>
		<g>
			<path style="fill:#CE8D6F;" d="M252.819,92.923c0,0,1.493,3.732,5.485,3.732c3.981,0,5.486-3.732,5.486-3.732
				s-3.66,1.241-6.013,1.241C255.422,94.164,252.819,92.923,252.819,92.923z"/>
		</g>
		<g>
			<path style="fill:#DB9F78;" d="M252.819,92.923c0,0,2.208,1.527,5.194,1.527c3.142,0,5.777-1.527,5.777-1.527
				s-3.022,0.515-5.067-0.325c-0.419-0.171-0.727,0.325-0.727,0.325s-0.518-0.398-0.71-0.326
				C254.841,93.506,252.819,92.923,252.819,92.923z"/>
		</g>
	</g>
</g>
<g>
	<path style="fill:#F9BB8D;" d="M171.867,347.415c0,0,0.194,2.781-2.797,3.182c-2.992,0.402-8.279-2.949-8.279-2.949
		s-1.842-53.945-2.572-62.3c-0.732-8.355,2.292-19.532,2.292-19.532l-8.275-39.242l16.815,0.906l3.67,40.453l-3.44,77.559
		L171.867,347.415z"/>
	<path style="fill:#2D3437;" d="M181.456,356.663c-2.66-0.157-6.245-0.376-8.581-0.493c-2.337-0.117-6.172-1.521-6.172-1.521
		l-1.074,1.009l-4.872-0.466c0,0-0.433-4.261,0.033-7.543c2.004,0.806,9.472,2.702,11.077-0.233
		c1.557,0.981,7.833,3.664,10.535,4.886C184.46,353.23,186.164,356.94,181.456,356.663z"/>
	<path style="fill:#2D3437;" d="M174.266,212.874c0,0,0.029,47.41,1.076,55.631c1.047,8.222-4.585,75.521-4.585,75.521
		l-10.623,0.842l-7.778-77.22c0,0-4.112-22.319-8.094-43.687C141.441,208.826,174.266,212.874,174.266,212.874z"/>
	<path style="fill:#E73E1B;" d="M138.53,55.671c-9.961-1.816-6.096,17.562-2.599,30.883c3.959,15.071,11.193,16.824,11.193,16.824
		s25.033,0.944,31.199-22.52c1.436-5.467,4.234-11.018,3.168-17.764c4.439-1.421,6.846-8.884,3.551-12.431
		c-2.562-2.757-6.538-4.439-14.559-1.903C158.333,52.598,143.501,40.187,138.53,55.671z"/>
	<path style="fill:#F9BB8D;" d="M197.326,151.333c1.028,1.584,25.613,0.248,25.613,0.248l2.126,3.328c0,0-27.544,6.59-31.759,3.771
		c-4.468-3.052-22.325-26.257-23.507-32.331c-0.304-1.576-0.194-4.512,0.546-6.119c0.737-1.596,0.978-0.604,6.269,0.325
		C182.14,121.526,196.338,149.814,197.326,151.333z"/>
	<path style="fill:#2D3437;" d="M221.764,151.008c0,0-23.104,0.701-23.616-0.055c-5.131-7.568-17.716-34.289-21.799-35.007
		c-5.291-0.929-6.854,8.828-6.551,10.403c1.059,5.435,18.745,32.039,24.422,34.005c5.678,1.966,30.017-4.283,30.017-4.283
		L221.764,151.008z"/>
	<path style="fill:#1E2425;" d="M176.546,124.116c1.594,0.279,9.226,23.517,8.948,27.62c-6.977-8.865-14.994-21.78-15.696-25.386
		C169.494,124.774,171.255,123.186,176.546,124.116z"/>
	<path style="fill:#F9BB8D;" d="M137.976,355.571c0,0-0.185,2.781-3.204,2.774c-3.019-0.006-7.803-4.044-7.803-4.044
		s5.478-53.697,5.883-62.073c0.407-8.379,4.917-19.041,4.917-19.041l-2.886-40.001l16.538,3.173l0.914,40.421l-16.664,76.536
		L137.976,355.571z"/>
	<path style="fill:#454F56;" d="M146.224,366.032c-2.615-0.517-6.137-1.22-8.435-1.65c-2.3-0.431-5.91-2.343-5.91-2.343l-1.2,0.854
		l-4.764-1.121c0,0,0.148-4.28,1.055-7.472c1.875,1.071,9.017,3.96,11.006,1.27c1.408,1.183,7.264,4.69,9.776,6.266
		C149.665,363.036,150.851,366.943,146.224,366.032z"/>
	<path style="fill:#454F56;" d="M130.242,192.789c4.352-10.874,45.273,0.57,45.273,0.57l-1.249,19.515l-17.31,10.936
		c0,0-1.616,42.247-1.691,50.534c-0.076,8.287-17.93,77.719-17.93,77.719l-10.642-0.603l4.9-77.761
		C131.594,273.699,124.515,207.095,130.242,192.789z"/>
	<path style="fill:#FFFFFF;" d="M175.515,193.359l-45.273-0.57l2.608-26.987l-2.489-24.864l0.429-24.249l16.568-5.659l15.469,0.036
		l13.521,4.881c0,0,2.965,12.318,2.715,27.113C178.856,155.248,175.515,193.359,175.515,193.359z"/>
	<path style="fill:#E63812;" d="M157.837,189.031l-3.177-11.53c0,0,4.966-12.448,5.121-26.466c0.156-14.019-3.064-25.47-3.064-25.47
		l-3.173-3.464l-6.184-11.071l15.469,0.036v10.562l-2.862,3.6c0,0,4.197,11.334,6.124,24.096
		c1.929,12.762,1.053,32.095,1.053,32.095L157.837,189.031z"/>
	<path style="fill:#F9BB8D;" d="M163.234,105.144c3.001-2.6-18.691-8.796-16.852-4.449c2.723,6.437-0.113,10.333-0.113,10.333
		s3.452,7.081,9.246,7.096c5.792,0.013,7.1-7.058,7.1-7.058S160.234,107.745,163.234,105.144z"/>
	<path style="fill:#DEA97F;" d="M153.024,105.061c1.191,2.978,6.869,5.299,8.752,3.884c-0.196-1.591,0.344-2.588,1.742-3.799
		c2.07-1.795-8.815-5.334-13.894-5.889C150.815,101.054,152.634,102.956,153.024,105.061z"/>
	<path style="fill:#F9BB8D;" d="M160.479,106.523l-13.051-2.196c0,0-3.146-9.712-4.189-14.186c-0.835,0.596-1.837,0.836-3.359,0.374
		c-1.666-0.503-3.404-4.602-2.99-7.49c0.455-3.177,3.839-3.909,5.752-1.092c1.1,1.619,1.611,4.824,1.611,4.824
		s0.675,0.29,1.392-2.755c0.717-3.046-1.894-20.85,1.479-23.696c6.042-5.099,22.737-7.121,28.216,0.218
		c2.358,3.158,3.166,12.001,2.963,16.723c-0.86,20.013-4.281,24.967-7.95,27.795C167.221,107.457,160.479,106.523,160.479,106.523z"
		/>
	<path style="fill:#DADADA;" d="M154.019,124.063l-12.818-10.179c0,0,4.194-2.964,5.069-2.857c1.829,4.353,8.87,5.427,12.582,6.143
		L154.019,124.063z"/>
	<path style="fill:#DADADA;" d="M162.431,124.083l5.884-10.309l-5.7-2.708c0,0-0.612,3.739-3.764,6.105
		C158.341,117.368,162.431,124.083,162.431,124.083z"/>
	<path style="fill:#E73E1B;" d="M138.529,65.432c-0.517,6.348,7.971,19.115,6.952,9.211c-0.63-6.119,2.202-10.479,6.367-11.933
		c9.578-3.345,9.933,3.36,20.549,0.385c3.859-1.083,4.436,0.875,5.34,4.917c3.055-14.048-3.025-14.118-17.862-14.152
		C145.038,53.826,142.677,53.696,138.529,65.432z"/>
	<polygon style="fill:#E7DAD7;" points="166.491,85.775 164.349,88.74 164.378,75.971 	"/>
	<path style="fill:#481615;" d="M174.075,79.368c-0.003,1.012-0.823,1.831-1.835,1.828c-1.012-0.002-1.83-0.824-1.828-1.836
		c0.003-1.01,0.824-1.829,1.836-1.826C173.26,77.534,174.079,78.357,174.075,79.368z"/>
	<path style="fill:#481615;" d="M157.785,79.331c-0.003,1.013-0.824,1.831-1.837,1.828c-1.011-0.002-1.828-0.823-1.827-1.836
		c0.002-1.011,0.825-1.831,1.836-1.828C156.969,77.497,157.788,78.32,157.785,79.331z"/>
	<g>
		<path style="fill:#F9BB8D;" d="M222.939,151.582l0.565,2.928l1.561,0.4c0,0,4.268-1.267,5.985-1.549
			c1.051-0.172-0.755-5.238-0.755-5.238c-0.855,0.287-1.652,0.196-1.652,0.196s1.511-1.018,2.186-1.454
			c0.978-0.634-0.115-1.317-0.872-0.967c-0.757,0.35-4.503,2.135-5.155,2.907C223.978,149.781,222.939,151.582,222.939,151.582z"/>
	</g>
	<path style="fill:#E73E1B;" d="M151.258,75.396c2.291-2.013,5.48-2.406,8.348-1.127c0.505,0.226,0.21-1.675-0.144-1.9
		c-2.422-1.539-7.673,0.051-8.733,1.702C150.48,74.457,150.84,75.765,151.258,75.396z"/>
	<path style="fill:#E73E1B;" d="M176.394,75.455c-2.28-2.023-5.469-2.432-8.343-1.166c-0.506,0.222-0.202-1.677,0.153-1.899
		c2.43-1.527,7.674,0.085,8.726,1.741C177.176,74.519,176.812,75.825,176.394,75.455z"/>
	<g>
		<g>
			<path style="fill:#CE8D6F;" d="M170.587,94.841c0,0-2.542,2.68-6.152,2.672c-4.319-0.011-6.89-2.702-6.89-2.702
				s4.348,0.686,7.147,0.691C167.489,95.509,170.587,94.841,170.587,94.841z"/>
		</g>
		<g>
			<path style="fill:#DB9F78;" d="M170.587,94.841c0,0-2.629,0.886-6.177,0.876c-3.735-0.008-6.865-0.906-6.865-0.906
				s2.936,0.242,5.371-0.823c0.498-0.216,1.557,0.328,1.557,0.328s0.799-0.502,1.426-0.308
				C168.889,94.934,170.587,94.841,170.587,94.841z"/>
		</g>
	</g>
	<polygon style="fill:#2D3437;" points="152.623,180.499 141.425,212.326 124.511,208.847 130.307,164.469 130.361,140.938 
		130.79,116.688 145.129,111.259 155.829,133.276 	"/>
	<polygon style="fill:#1D2324;" points="146.957,135.092 149.18,133.527 143.501,132.065 145.129,111.259 155.829,133.276 
		153.932,161.818 	"/>
	<path style="fill:#1E2425;" d="M132.814,147.191c-0.098,4.247,2.329,1.916,2.233,6.161c-0.083,3.736-2.819,11.068-0.674,14.322
		c1.589,2.414,4.739,7.221,5.52,10.045c1.123,4.071-2.009,5.648-5.384,3.803c-2.069-1.128-3.896-2.633-5.939-3.751l1.738-13.303
		l0.055-23.532l0.203-11.497c0.762,1.092,1.464,2.222,2.071,3.411C134.621,136.743,132.911,142.905,132.814,147.191z"/>
	<path style="fill:#F9BB8D;" d="M124.68,158.275c-0.086,0.438,15.21,20.212,15.21,20.212l-3.421,1.973
		c0,0-20.35-15.114-20.893-20.154c-0.529-5.383,6.917-32.979,10.736-37.792c0.992-1.246,1.418-2.449,3.092-2.915
		c1.664-0.463,2.529,11.041,0.967,17.052C129.687,139.284,125.023,156.499,124.68,158.275z"/>
	<g>
		<path style="fill:#F9BB8D;" d="M139.89,178.488l-2.95,0.433l-0.471,1.54c0,0,1.072,4.324,1.274,6.048
			c0.126,1.06,5.268-0.515,5.268-0.515c-0.249-0.867-0.122-1.659-0.122-1.659s0.947,1.555,1.353,2.248
			c0.589,1.006,1.322-0.053,1.007-0.826c-0.315-0.773-1.929-4.598-2.67-5.282C141.643,179.608,139.89,178.488,139.89,178.488z"/>
		<path style="fill:#F9BB8D;" d="M139.447,191.299c0.128,1.174-0.997,1.076-1.117,0.256c-0.121-0.818-0.74-6.034-0.74-6.034
			l1.253,0.292C138.843,185.813,139.318,190.121,139.447,191.299z"/>
		<path style="fill:#F9BB8D;" d="M141.027,191.909c0.129,1.174-1.18,1.124-1.3,0.306c-0.12-0.819-0.838-6.473-0.838-6.473
			l1.437,0.241C140.326,185.983,140.9,190.73,141.027,191.909z"/>
		<path style="fill:#F9BB8D;" d="M142.544,192.109c0.128,1.174-1.182,1.124-1.302,0.306c-0.119-0.818-0.836-6.472-0.836-6.472
			l1.436,0.242C141.841,186.185,142.415,190.932,142.544,192.109z"/>
		<path style="fill:#F9BB8D;" d="M143.679,191.487c0.124,1.089-0.958,1.024-1.07,0.264c-0.111-0.759-0.788-6.003-0.788-6.003
			l1.19,0.245C143.011,185.994,143.555,190.395,143.679,191.487z"/>
	</g>
	<path style="fill:#2D3437;" d="M124.882,158.646c2.832-9.543,6.51-20.497,6.981-22.939c1.07-5.562,0.59-19.482-1.072-19.019
		c-1.676,0.466-5.017,3.169-5.746,4.586c-2.857,5.563-10.563,35.114-9.5,40.337c1.064,5.224,19.855,18.847,19.855,18.847
		l4.492-2.738C139.892,177.72,124.181,158.486,124.882,158.646z"/>
	<path style="fill:#2D3437;" d="M175.624,206.48l-6.187,5.911l0.983-45.226l-1.594-32.023l-5.998-24.077l13.521,4.881
		c0,0,3.671,11.158,3.166,27.166C179.13,155.297,175.624,206.48,175.624,206.48z"/>
	<polygon style="fill:#1D2324;" points="170.42,167.166 168.826,135.143 162.828,111.066 175.65,135.158 173.018,139.358 
		175.766,144.45 	"/>
	<g>
		<path style="fill:#093B59;" d="M217.614,166.152c0.184,0.989,0.547,1.288,1.465,1.114l15.851-2.973
			c0.916-0.173,1.147-0.583,0.961-1.572l-4.759-25.365c-0.186-0.989-0.549-1.287-1.467-1.116l-15.85,2.976
			c-0.917,0.171-1.147,0.583-0.961,1.57L217.614,166.152z"/>
		
			<rect x="215.855" y="140.125" transform="matrix(0.9828 -0.1844 0.1844 0.9828 -24.1238 43.9896)" style="fill:#D2ECFC;" width="17.079" height="23.085"/>
		
			<rect x="213.875" y="140.309" transform="matrix(0.9828 -0.1845 0.1845 0.9828 -22.2132 43.4489)" style="fill:#017CA8;" width="17.079" height="1.605"/>
		<polygon style="fill:#B2C8D6;" points="234.008,160.906 229.876,138.895 230.659,138.747 234.916,161.436 218.131,164.586 
			218.004,163.91 		"/>
		<path style="fill:#FFFFFF;" d="M228.867,139.9c0.06,0.319,0.368,0.531,0.688,0.47c0.318-0.06,0.529-0.367,0.469-0.687
			c-0.06-0.32-0.367-0.529-0.687-0.47C229.018,139.273,228.807,139.581,228.867,139.9z"/>
		<path style="fill:#FFFFFF;" d="M227.207,140.211c0.06,0.32,0.368,0.529,0.687,0.47c0.32-0.061,0.531-0.368,0.47-0.687
			c-0.06-0.319-0.366-0.53-0.686-0.47C227.357,139.585,227.148,139.893,227.207,140.211z"/>
		<path style="fill:#FFFFFF;" d="M214.529,142.507c0.051,0.274,0.351,0.448,0.67,0.389l10.706-2.01
			c0.319-0.059,0.537-0.33,0.485-0.604l0,0c-0.052-0.275-0.353-0.448-0.672-0.389l-10.706,2.009
			C214.693,141.961,214.477,142.232,214.529,142.507L214.529,142.507z"/>
		
			<rect x="215.717" y="142.989" transform="matrix(0.9829 -0.1844 0.1844 0.9829 -22.751 43.5197)" style="fill:#DADADA;" width="13.815" height="2.201"/>
		
			<rect x="216.169" y="146.094" transform="matrix(0.9828 -0.1844 0.1844 0.9828 -23.1915 43.6561)" style="fill:#DADADA;" width="13.815" height="0.8"/>
		
			<rect x="216.641" y="149.066" transform="matrix(0.9828 -0.1846 0.1846 0.9828 -23.8379 42.9429)" style="fill:#DADADA;" width="4.033" height="0.801"/>
		
			<rect x="216.905" y="150.47" transform="matrix(0.9828 -0.1845 0.1845 0.9828 -24.077 42.9806)" style="fill:#DADADA;" width="4.033" height="0.801"/>
		
			<rect x="217.168" y="151.874" transform="matrix(0.9828 -0.1845 0.1845 0.9828 -24.3346 43.06)" style="fill:#DADADA;" width="4.033" height="0.8"/>
		
			<rect x="217.432" y="153.278" transform="matrix(0.9829 -0.1842 0.1842 0.9829 -24.5506 43.0479)" style="fill:#DADADA;" width="4.033" height="0.8"/>
		
			<rect x="217.695" y="154.681" transform="matrix(0.9828 -0.1845 0.1845 0.9828 -24.8371 43.1912)" style="fill:#DADADA;" width="4.032" height="0.801"/>
		
			<rect x="217.891" y="155.27" transform="matrix(0.9829 -0.1843 0.1843 0.9829 -24.8417 44.1026)" style="fill:#DADADA;" width="13.815" height="0.8"/>
		
			<rect x="218.171" y="156.762" transform="matrix(0.9829 -0.1844 0.1844 0.9829 -25.1201 44.1978)" style="fill:#DADADA;" width="13.815" height="0.8"/>
		
			<rect x="218.451" y="158.254" transform="matrix(0.9829 -0.1844 0.1844 0.9829 -25.3864 44.2663)" style="fill:#DADADA;" width="13.815" height="0.8"/>
		
			<rect x="218.731" y="159.747" transform="matrix(0.9829 -0.1844 0.1844 0.9829 -25.66 44.3506)" style="fill:#DADADA;" width="13.814" height="0.799"/>
		<g>
			<path style="fill:#95C11F;" d="M226.123,150.689l-3.012-1.823c0.502-0.842,1.348-1.474,2.388-1.669
				c1.929-0.362,3.79,0.911,4.152,2.844c0.362,1.929-0.91,3.791-2.838,4.153c-1.6,0.299-3.142-0.517-3.835-1.895L226.123,150.689z"
				/>
			<path style="fill:#006633;" d="M222.326,151.513c0.053,0.281,0.13,0.552,0.24,0.812l3.205-1.645l-3.058-1.847
				C222.302,149.63,222.148,150.565,222.326,151.513z"/>
		</g>
	</g>
	<path style="fill:#F9BB8D;" d="M231.268,147.793c1.096-0.208,1.531-0.39,2.028-0.501c0.732-0.162,0.765,1.114,0.319,1.235
		c-0.335,0.09-0.97,0.18-2.237,0.405C230.822,149.01,230.515,148.09,231.268,147.793z"/>
	<path style="fill:#F9BB8D;" d="M231.253,149.105c1.095-0.206,2.178-0.449,2.675-0.559c0.732-0.162,0.765,1.114,0.319,1.234
		c-0.336,0.089-1.589,0.288-2.858,0.512C230.833,150.374,230.501,149.402,231.253,149.105z"/>
	<path style="fill:#F9BB8D;" d="M231.376,150.474c1.094-0.207,2.178-0.449,2.674-0.559c0.732-0.162,0.765,1.114,0.318,1.234
		c-0.335,0.09-1.589,0.29-2.857,0.513C230.955,151.743,230.622,150.771,231.376,150.474z"/>
	<path style="fill:#F9BB8D;" d="M232.289,151.594c1.021-0.167,1.34-0.227,1.803-0.314c0.683-0.131,0.712,0.902,0.297,0.999
		c-0.313,0.072-0.791,0.095-1.974,0.278C231.898,152.622,231.587,151.835,232.289,151.594z"/>
</g>
</svg>
