<?xml version="1.0" encoding="utf-8"?>
<!-- Generator: Adobe Illustrator 27.5.0, SVG Export Plug-In . SVG Version: 6.00 Build 0)  -->
<svg version="1.1" id="Layer_1" xmlns="http://www.w3.org/2000/svg" xmlns:xlink="http://www.w3.org/1999/xlink" x="0px" y="0px"
	 viewBox="0 0 2742.325 2000" style="enable-background:new 0 0 2742.325 2000;" xml:space="preserve">
<rect x="0" style="fill:#FFFFFF;" width="2742.325" height="2000"/>
<g>
	<path style="fill:#FDEACF;" d="M379.214,1883.216c0,0-206.667-336.281-165.261-750.671
		c51.496-515.372,395.585-740.992,889.337-647.138c106.505,20.245,274.208-25.954,342.684-84.406
		c276.467-236,757.185-171.974,949.979,202.484c292,567.144-116,1279.732-116,1279.732H379.214z"/>
	<g>
		<g>
			<g>
				<g>
					<g>
						<g>
							<g>
								<g>
									<g>
										<g>
											<g>
												<g>
													<polygon style="fill:#FE9F73;" points="785.122,1855.297 706.331,1856.419 705.165,1782.111 783.641,1772.268 
																											"/>
												</g>
											</g>
										</g>
									</g>
								</g>
							</g>
						</g>
					</g>
				</g>
				<g>
					<g>
						<g>
							<g>
								<g>
									<g>
										<path style="fill:#3AA1C9;" d="M866.084,1868.635l-160.876,0.079l-0.016-32.372c0,0,11.694-15.544,29.515-7.622
											c0,0,26.386,19.086,50.13-3.747l59.577,25.545C844.415,1850.517,866.078,1857.629,866.084,1868.635z"/>
									</g>
								</g>
							</g>
						</g>
					</g>
					<g>
						<g>
							<g>
								<g>
									<g>
										<path style="fill:#472A31;" d="M705.213,1880.044l165.638-0.081c1.229,0,2.224-0.997,2.224-2.226l-0.003-6.881
											c-0.001-1.229-0.997-2.224-2.226-2.224l-165.638,0.081L705.213,1880.044z"/>
									</g>
								</g>
							</g>
						</g>
					</g>
					<g>
						<g>
							<g>
								<g>
									<g>
										<path style="fill:#D7E4F7;" d="M802.473,1832.534c-5.393,8.429-16.222,25.367-23.111,36.143l-10.966,0.005
											c6.153-9.626,19.054-29.806,25.473-39.838L802.473,1832.534z"/>
									</g>
								</g>
							</g>
						</g>
					</g>
					<g>
						<g>
							<g>
								<g>
									<g>
										<path style="fill:#D7E4F7;" d="M796.948,1868.669l-10.966,0.005c5.007-7.833,14.769-23.104,21.683-33.914l8.605,3.689
											C810.462,1847.531,802.415,1860.117,796.948,1868.669z"/>
									</g>
								</g>
							</g>
						</g>
					</g>
				</g>
				<g>
					<g>
						<g>
							<g>
								<g>
									<g>
										<g>
											<g>
												<g>
													<polygon style="fill:#FE9F73;" points="628.84,1855.644 551.703,1854.5 550.703,1781.75 626.369,1772.639 
																											"/>
												</g>
											</g>
										</g>
									</g>
								</g>
							</g>
						</g>
					</g>
				</g>
				<g>
					<g>
						<g>
							<g>
								<g>
									<g>
										<g>
											<path style="fill:#FF424D;" d="M644.279,1223.704c3.561,76.698,21.657,363.408,47.955,559.488
												c1.733,12.925,12.825,22.555,25.864,22.358c14.435-0.218,36.326,1.128,58.491-5.942
												c10.713-3.417,18.057-13.29,18.1-24.535l5.591-599.291c0.006-1.452-0.112-2.902-0.35-4.334l-0.49-2.946
												c-2.702-16.235-19.71-25.822-34.998-19.73l-95.768,38.161C658.453,1191.005,643.768,1212.716,644.279,1223.704z"/>
										</g>
									</g>
								</g>
							</g>
						</g>
					</g>
				</g>
				<g>
					<g>
						<g>
							<g>
								<g>
									<g>
										<g>
											<path style="fill:#EF3A4C;" d="M545.977,1214.692c0,0-29.225,204.579-4.801,580.132
												c0.701,10.783,9.603,19.173,20.387,19.86c15.266,0.972,38.493,0.508,64.591-6.768
												c8.851-2.467,15.221-10.218,15.898-19.381l37.377-542.62l28.026-134.565L545.977,1214.692z"/>
										</g>
									</g>
								</g>
							</g>
						</g>
					</g>
				</g>
				<g>
					<g>
						<g>
							<g>
								<g>
									<g>
										<g>
											<path style="fill:#21111D;" d="M542.771,1812.337l0.009,0L542.771,1812.337z"/>
										</g>
									</g>
								</g>
							</g>
						</g>
					</g>
				</g>
				<g>
					<g>
						<g>
							<g>
								<g>
									<g>
										<path style="fill:#4CB7D8;" d="M709.956,1868.014l-160.863,2l-0.402-32.369c0,0,11.508-15.683,29.422-7.974
											c0,0,26.612,18.77,50.082-4.346l59.878,24.831C688.072,1850.156,709.819,1857.009,709.956,1868.014z"/>
									</g>
								</g>
							</g>
						</g>
					</g>
					<g>
						<g>
							<g>
								<g>
									<g>
										<path style="fill:#683D46;" d="M549.233,1881.343l165.625-2.059c1.229-0.015,2.212-1.024,2.197-2.252l-0.086-6.88
											c-0.015-1.229-1.024-2.212-2.252-2.197l-165.625,2.059L549.233,1881.343z"/>
									</g>
								</g>
							</g>
						</g>
					</g>
					<g>
						<g>
							<g>
								<g>
									<g>
										<path style="fill:#D7E4F7;" d="M645.919,1832.675c-5.292,8.493-15.918,25.559-22.678,36.417l-10.965,0.136
											c6.038-9.699,18.697-30.031,24.995-40.139L645.919,1832.675z"/>
									</g>
								</g>
							</g>
						</g>
					</g>
					<g>
						<g>
							<g>
								<g>
									<g>
										<path style="fill:#D7E4F7;" d="M640.825,1868.873l-10.965,0.136c4.913-7.892,14.492-23.279,21.277-34.17l8.648,3.586
											C654.086,1847.575,646.19,1860.257,640.825,1868.873z"/>
									</g>
								</g>
							</g>
						</g>
					</g>
				</g>
			</g>
			<g>
				<g>
					<g>
						<path style="fill:#61A3C5;" d="M815.638,1246.657l0.936-1.092l17.252-266.798c0,0,85.323,69.836,109.348,73.048
							c24.024,3.211,137.29-136.836,137.29-136.836c-16.512-53.512-60.139-64.535-60.139-64.535l-90.791,89.529l-88.305-102.175
							c-4.604-3.6-21.735-1.871-40.52-10.492c-31.755-5.318-70.352-9.433-70.352-9.433s-77.26-11.046-90.855-3.801
							c-13.594,7.245-93.414,139.116-106.217,200.981c-12.803,61.865-19.703,94.134,24.219,105.404l8.841,12.085l1.99,85.951
							c0,0,73.717,36.721,247.668,30.074L815.638,1246.657z"/>
					</g>
				</g>
			</g>
			<g>
				<g>
					<path style="fill:#FECC86;" d="M1020.324,850.443l-90.791,89.529l-88.305-102.175c-4.559-3.565-21.342-7.264-40.52-10.492
						L729.82,970.218l-74.347-158.871c-30.69-2.377-39.475,4.307-46.324,8.402c-52.923,31.638-77.648,133.734-90.452,195.599
						c-12.803,61.865-8.983,102.988,34.939,114.258l1.744,0.192l-19.001,96.643c0,0,113.644,37.412,287.595,30.764l0.936-1.093
						l12.386-269.645c0,0,81.558,71.966,105.582,75.178c24.024,3.211,137.586-146.668,137.586-146.668
						C1063.952,861.466,1020.324,850.443,1020.324,850.443z"/>
				</g>
			</g>
			<g>
				<g>
					<g>
						<polygon style="fill:#21111D;" points="602.59,1040.698 600.959,1038.214 620.303,1023.541 634.912,935.101 637.723,935.598 
							622.906,1025.289 						"/>
					</g>
				</g>
			</g>
			<g>
				<g>
					<g>
						<path style="fill:#21111D;" d="M569.653,1132.909l-16.364-1.817c-21.558-5.531-34.568-18.365-39.773-39.231
							c-4.517-18.104-3.313-42.515,3.788-76.825l2.786,0.626c-14.472,69.929-4.679,102.515,33.804,112.437l16.085,1.771
							L569.653,1132.909z"/>
					</g>
				</g>
			</g>
			<g>
				<g>
					<g>
						<path style="fill:#21111D;" d="M928.275,965.928l-0.164-25.34l-85.51-98.941c-6.267-7.251-19.57-8.501-19.703-8.512
							l0.266-3.043l0.001,0c0.605,0.053,14.529,1.355,21.542,9.468l86.252,99.798l0.171,26.513L928.275,965.928z"/>
					</g>
				</g>
			</g>
			<g>
				<g>
					<g>
						<path style="fill:#21111D;" d="M930.495,941.089l-1.921-2.234l94.236-86l0.749,0.199c0.433,0.115,40.654,8.049,58.251,61.399
							l-2.691,1.047c-15.829-47.989-51.215-59.328-56.863-61.141L930.495,941.089z"/>
					</g>
				</g>
			</g>
			<path style="fill:#21111D;" d="M838.406,1044.404l-15.753,211.33c-9.842,0.405-73.87,2.879-109.353-0.625l-0.293,3.041
				c0.816,0.08,1.644,0.157,2.49,0.231c38.969,3.398,107.812,0.381,108.518,0.35l1.277-0.056l16.036-214.144L838.406,1044.404z"/>
			<g>
				<g>
					<g>
						<path style="fill:#21111D;" d="M698.42,872.391c-13.472-10.799-22.567-26.494-25.611-44.194l2.808-0.588
							c2.913,16.952,11.626,31.985,24.532,42.33L698.42,872.391z"/>
					</g>
				</g>
			</g>
			<g>
				<g>
					<g>
						<g>
							<path style="fill:#FE9F73;" d="M718.61,697.005c0,0,23.296-7.594,42.641,1c11.201,4.977,17.914,16.624,16.849,28.835
								l-1.042,11.941l-59.178-31.61c0,0-10.123,3.75-9.222,2.422C709.56,708.265,718.61,697.005,718.61,697.005z"/>
						</g>
					</g>
				</g>
				<g>
					<g>
						<g>
							<g>
								<g>
									<g>
										<path style="fill:#FE9F73;" d="M778.211,725.497l-4.392,50.358c0,0-0.82,18.058-16.759,18.934l0.846,24.262
											c0.314,9.018-5.766,17.096-14.573,19.062c-4.306,0.961-9.393,1.494-15.066,0.999
											c-17.993-1.569-26.562-15.914-27.472-22.792c-0.911-6.878,6.399-38.722,6.399-38.722l0.833-15.888l7.401-61.199
											L778.211,725.497z"/>
									</g>
								</g>
							</g>
						</g>
					</g>
					<g>
						<g>
							<g>
								<g>
									<g>
										<path style="fill:#21111D;" d="M732.7,745.452c-0.187-0.016-0.368-0.102-0.501-0.255
											c-0.273-0.312-0.242-0.788,0.071-1.061c0.112-0.099,11.344-9.747,20.104-1.333c0.3,0.287,0.309,0.764,0.022,1.063
											c-0.288,0.301-0.764,0.31-1.064,0.022c-7.763-7.454-17.654,1.016-18.07,1.38C733.1,745.409,732.896,745.469,732.7,745.452
											z"/>
									</g>
								</g>
							</g>
						</g>
					</g>
					<g>
						<g>
							<g>
								<g>
									<g>
										<path style="fill:#21111D;" d="M763.996,743.649c-0.21-0.018-0.411-0.124-0.544-0.309
											c-0.244-0.336-0.169-0.806,0.167-1.051c0.325-0.236,8.01-5.728,12.193-1.456c0.291,0.297,0.286,0.773-0.011,1.064
											c-0.297,0.292-0.773,0.287-1.064-0.011c-3.277-3.346-10.165,1.573-10.234,1.623
											C764.351,743.62,764.17,743.665,763.996,743.649z"/>
									</g>
								</g>
							</g>
						</g>
					</g>
					<g>
						<g>
							<g>
								<g>
									<g>
										<path d="M747.596,749.804c-0.108,1.242-1.203,2.161-2.445,2.053c-1.242-0.108-2.161-1.203-2.053-2.445
											c0.108-1.242,1.203-2.161,2.445-2.053C746.785,747.467,747.704,748.562,747.596,749.804z"/>
									</g>
								</g>
							</g>
						</g>
					</g>
					<g>
						<g>
							<g>
								<g>
									<g>
										<path d="M771.699,749.64c-0.108,1.242-1.203,2.161-2.445,2.053c-1.242-0.108-2.161-1.203-2.053-2.445
											c0.108-1.242,1.203-2.161,2.445-2.053C770.888,747.303,771.807,748.398,771.699,749.64z"/>
									</g>
								</g>
							</g>
						</g>
					</g>
					<g>
						<g>
							<g>
								<g>
									<g>
										<path style="fill:#21111D;" d="M718.679,696.219c0,0-18.965-2.576-25.249,13.662c-6.285,16.239,1.181,25.764,0.915,30.745
											c-0.267,4.981-6.556,38.174,17.171,37.725l11.173-54.757l-6.261-22.734L718.679,696.219z"/>
									</g>
								</g>
							</g>
						</g>
					</g>
					<g>
						<g>
							<g>
								<g>
									<g>
										
											<ellipse transform="matrix(0.2558 -0.9667 0.9667 0.2558 -188.8683 1247.1014)" style="fill:#FE9F73;" cx="715.594" cy="746.226" rx="13.546" ry="13.546"/>
									</g>
								</g>
							</g>
						</g>
					</g>
					<g>
						<g>
							<g>
								<g>
									<g>
										<path style="fill:#F07162;" d="M713.875,754.409c-2.803-0.245-4.492-2.515-4.925-4.674
											c-0.512-2.554,0.535-4.901,2.667-5.98c3.15-1.594,5.756-0.168,7.064,0.866c-0.449-1.583-1.265-2.777-2.434-3.56
											c-2.531-1.695-5.922-0.917-5.956-0.909c-0.202,0.049-0.405-0.077-0.453-0.279c-0.048-0.202,0.076-0.404,0.278-0.453
											c0.151-0.036,3.736-0.863,6.544,1.013c1.621,1.083,2.635,2.838,3.014,5.217l0.213,1.334l-0.872-1.032
											c-0.123-0.146-3.06-3.547-7.058-1.524c-2.214,1.12-2.606,3.48-2.269,5.161c0.35,1.745,1.672,3.847,4.249,4.072
											c0.026,0.002,0.05,0.002,0.077,0.006c0.205,0.018,0.357,0.197,0.343,0.402c-0.015,0.207-0.195,0.363-0.403,0.348
											C713.928,754.412,713.901,754.411,713.875,754.409z"/>
									</g>
								</g>
							</g>
						</g>
					</g>
					<g>
						<g>
							<g>
								<g>
									<g>
										<path style="fill:#F07162;" d="M721.894,776.32c0,0-1.571,30.207,35.789,36.364l-0.624-17.895
											C757.06,794.789,732.239,797.562,721.894,776.32z"/>
									</g>
								</g>
							</g>
						</g>
					</g>
					<g>
						<g>
							<g>
								<g>
									<g>
										<path style="fill:#F07162;" d="M754.206,765.667c-0.157-0.014-0.295-0.126-0.333-0.288
											c-0.048-0.203,0.077-0.405,0.28-0.453l7.731-1.829l-0.832-17.891c-0.01-0.207,0.151-0.384,0.358-0.393
											c0.21-0.015,0.384,0.151,0.393,0.358l0.861,18.515l-8.339,1.973C754.286,765.668,754.245,765.67,754.206,765.667z"/>
									</g>
								</g>
							</g>
						</g>
					</g>
					<g>
						<g>
							<g>
								<polygon style="fill:#FE9F73;" points="706.27,781.739 711.098,756.581 717.339,757.829 715.122,783.248 								"/>
							</g>
						</g>
					</g>
				</g>
				<g>
					<g>
						<g>
							<path style="fill:#21111D;" d="M722.245,696.026c0,0-5.334,10.15,0.374,28.355c5.708,18.204-18.004-8.174-18.004-8.174
								S708.65,690.643,722.245,696.026z"/>
						</g>
					</g>
				</g>
			</g>
			<g>
				<g>
					<g>
						<path style="fill:#21111D;" d="M722.619,724.381c0,0,57.603,1.603,62.307-11.514c4.704-13.117-8.743-14.646-8.743-14.646
							s4.189-18.858-13.616-14.715c-17.805,4.143-49.812,0.606-60.229,15.863C691.922,714.626,722.619,724.381,722.619,724.381z"/>
					</g>
				</g>
			</g>
			<g>
				<g>
					<path style="fill:#21111D;" d="M720.594,733.857l1.558,10.675l2.768-2.907c0,0,6.208-14.588,3.456-22.097
						c-2.752-7.509-17.2,1.68-17.2,1.68L720.594,733.857z"/>
				</g>
			</g>
			<g>
				<g>
					<polygon style="fill:#EDFCFB;" points="701.323,807.994 732.963,839.923 757.881,818.368 775.337,823.437 755.328,865.834 
						733.225,849.471 707.747,863.268 679.489,812.422 					"/>
				</g>
			</g>
			<g>
				<g>
					<g>
						<g>
							<g>
								<g>
									<path style="fill:#FBFDFC;" d="M763.693,771.576c-0.221-0.044-14.246-0.453-14.246-0.453s1.792,4.083,7.004,4.248
										C761.664,775.537,763.693,771.576,763.693,771.576z"/>
								</g>
							</g>
						</g>
					</g>
				</g>
			</g>
			<g>
				<g>
					<g>
						<g>
							<g>
								<g>
									<path style="fill:#7FC6A6;" d="M1374.474,1007.283l-371.764,305.914c-16.593,13.654-41.125,11.218-54.709-5.433
										l-167.738-205.609c-13.503-16.552-11.085-40.905,5.41-54.478l371.763-305.914c16.594-13.654,41.125-11.218,54.709,5.433
										l167.738,205.609C1393.387,969.356,1390.968,993.71,1374.474,1007.283z"/>
								</g>
							</g>
						</g>
					</g>
					
						<ellipse transform="matrix(0.77 -0.638 0.638 0.77 -329.0125 1043.8506)" style="fill:#5AB08A;" cx="1283.355" cy="978.278" rx="54.341" ry="29.976"/>
					<g>
						<path d="M937.512,1046.159c-0.894,2.081-1.931,3.95-3.111,5.609c-1.18,1.659-2.516,3.105-4.005,4.34
							c-1.502,1.245-3.089,2.23-4.76,2.955c-1.671,0.725-3.409,1.187-5.214,1.384c-2.941,0.343-5.757-0.036-8.448-1.135
							c-2.691-1.1-4.999-2.81-6.923-5.132c-1.451-1.751-2.51-3.737-3.178-5.958c-0.668-2.221-0.872-4.476-0.612-6.765
							c0.261-2.415,0.967-4.665,2.118-6.75c1.152-2.085,2.708-3.941,4.67-5.566c1.428-1.183,3.066-2.201,4.916-3.052
							c1.849-0.852,3.92-1.536,6.213-2.055l1.79,2.16c-2.522,0.519-4.72,1.178-6.593,1.976c-1.873,0.798-3.492,1.763-4.858,2.895
							c-1.217,1.008-2.241,2.135-3.074,3.379c-0.832,1.245-1.477,2.59-1.933,4.036c-0.709,2.43-0.813,4.857-0.313,7.28
							c0.5,2.423,1.573,4.628,3.219,6.615c1.266,1.527,2.781,2.769,4.547,3.724c1.766,0.956,3.629,1.542,5.59,1.761
							c1.961,0.218,3.906,0.02,5.836-0.595c1.93-0.615,3.721-1.607,5.372-2.975c1.353-1.121,2.593-2.526,3.719-4.212
							c1.126-1.687,2.191-3.731,3.195-6.134L937.512,1046.159z"/>
						<path d="M942.861,1044.994l-14.26-17.209l1.918-1.59l3.519,4.246c-0.29-2.524-0.283-4.499,0.023-5.924
							c0.305-1.426,0.936-2.535,1.892-3.327c0.521-0.432,1.115-0.746,1.78-0.941c0.665-0.195,1.45-0.291,2.354-0.286l0.469,2.689
							c-0.871,0.01-1.603,0.093-2.196,0.249s-1.088,0.399-1.485,0.728c-0.77,0.638-1.243,1.658-1.421,3.062
							c-0.177,1.403-0.073,3.349,0.312,5.835l9.013,10.877L942.861,1044.994z"/>
						<path d="M967.808,1021.118c-0.48,1.696-1.099,3.172-1.858,4.43c-0.759,1.257-1.704,2.354-2.833,3.29
							c-2.57,2.13-5.334,2.996-8.291,2.599c-2.957-0.397-5.594-1.993-7.909-4.786c-2.161-2.607-3.161-5.312-3.002-8.115
							c0.159-2.802,1.437-5.196,3.834-7.182c2.222-1.842,4.639-2.577,7.25-2.206c2.611,0.371,4.945,1.797,7.003,4.281l0.062,0.075
							l-13.428,11.127l0.17,0.205c1.862,2.247,3.972,3.567,6.328,3.96c2.357,0.393,4.491-0.203,6.403-1.788
							c1.142-0.946,2.074-2.059,2.795-3.337s1.299-2.83,1.733-4.656L967.808,1021.118z M947.518,1022.79l10.932-9.059
							c-1.454-1.35-3.052-2.078-4.794-2.184s-3.309,0.417-4.699,1.569c-1.428,1.183-2.277,2.672-2.549,4.468
							C946.137,1019.38,946.507,1021.115,947.518,1022.79z"/>
						<path d="M984.498,1008.356c-0.253,1.11-0.671,2.122-1.255,3.035c-0.584,0.913-1.347,1.76-2.291,2.542
							c-2.508,2.078-5.223,2.941-8.144,2.587c-2.922-0.354-5.483-1.859-7.685-4.516c-2.202-2.657-3.205-5.454-3.01-8.39
							c0.195-2.936,1.547-5.444,4.055-7.522c0.944-0.782,1.918-1.375,2.924-1.779c1.006-0.404,2.077-0.627,3.215-0.669
							l-8.349-10.076l1.862-1.543l21.59,26.055l-1.862,1.543L984.498,1008.356z M982.77,1006.27l-8.766-10.579
							c-1.178-0.133-2.271-0.05-3.279,0.251c-1.007,0.301-1.989,0.847-2.945,1.639c-1.912,1.584-2.92,3.54-3.023,5.866
							c-0.104,2.327,0.735,4.564,2.515,6.712s3.823,3.387,6.128,3.718c2.305,0.331,4.414-0.296,6.326-1.881
							c0.981-0.813,1.715-1.677,2.201-2.594C982.413,1008.487,982.694,1007.442,982.77,1006.27z"/>
						<path d="M973.378,981.1l-2.623-3.166l1.956-1.62l2.624,3.166L973.378,981.1z M992.345,1003.989l-14.26-17.209l1.956-1.62
							l14.26,17.209L992.345,1003.989z"/>
						<path d="M998.229,991.984c0.957,1.155,1.748,1.787,2.373,1.897c0.625,0.11,1.348-0.174,2.167-0.853
							c0.422-0.35,0.804-0.786,1.145-1.31c0.341-0.524,0.674-1.171,0.998-1.942l1.559,1.881c-0.338,0.678-0.716,1.29-1.134,1.835
							c-0.418,0.545-0.887,1.034-1.409,1.466c-1.428,1.183-2.716,1.675-3.866,1.476c-1.149-0.199-2.429-1.15-3.838-2.851
							l-9.398-11.342l-3.669,3.04l-1.327-1.602l3.744-3.102l-3.256-3.93l0.064-2.88l0.447-0.37l4.645,5.606l4.619-3.827l1.327,1.602
							l-4.619,3.827L998.229,991.984z"/>
						<path d="M1030.494,971.216c-0.42,0.934-0.917,1.781-1.492,2.54s-1.241,1.453-1.999,2.08c-2.645,2.192-5.512,3.154-8.602,2.887
							c-3.09-0.267-5.72-1.71-7.891-4.33c-2.109-2.545-2.998-5.4-2.667-8.564c0.331-3.164,1.819-5.842,4.463-8.033
							c0.646-0.535,1.34-1.005,2.082-1.411c0.742-0.406,1.544-0.746,2.406-1.02l1.775,2.142c-0.977,0.16-1.875,0.428-2.695,0.804
							c-0.82,0.375-1.602,0.872-2.347,1.489c-1.912,1.585-2.957,3.628-3.134,6.131c-0.177,2.503,0.568,4.76,2.234,6.771
							c1.677,2.024,3.751,3.174,6.221,3.452c2.471,0.277,4.668-0.381,6.593-1.976c0.72-0.597,1.352-1.319,1.895-2.167
							c0.543-0.848,1.004-1.827,1.383-2.937L1030.494,971.216z"/>
						<path d="M1041.465,960.46c-0.349,1.525-0.805,2.787-1.369,3.788c-0.563,1.001-1.298,1.877-2.205,2.628
							c-1.415,1.173-2.903,1.715-4.464,1.626c-1.561-0.089-2.881-0.785-3.961-2.089c-1.574-1.9-1.954-4.108-1.14-6.626
							c0.814-2.518,2.779-5.182,5.894-7.994l-1.512-1.825c-1.07-1.291-2.157-1.977-3.26-2.058s-2.325,0.435-3.666,1.546
							c-0.832,0.689-1.531,1.551-2.098,2.586c-0.566,1.035-1.043,2.33-1.429,3.886l-1.559-1.881
							c0.433-1.448,0.965-2.695,1.596-3.741c0.631-1.046,1.38-1.929,2.25-2.649c1.974-1.636,3.78-2.363,5.418-2.181
							c1.638,0.182,3.311,1.304,5.019,3.365l7.469,9.014c0.309,0.372,0.587,0.608,0.836,0.705s0.478,0.059,0.689-0.116
							c0.298-0.247,0.546-0.997,0.743-2.249c0.04-0.305,0.073-0.531,0.098-0.678l1.454,1.717c-0.127,0.984-0.318,1.803-0.573,2.454
							c-0.256,0.652-0.564,1.127-0.924,1.425c-0.546,0.453-1.078,0.626-1.595,0.521
							C1042.659,961.528,1042.089,961.136,1041.465,960.46z M1039.947,958.703l-4.46-5.382c-2.452,2.095-4.044,4.167-4.774,6.218
							c-0.73,2.05-0.514,3.777,0.648,5.18c0.73,0.882,1.605,1.33,2.622,1.345c1.018,0.015,2.048-0.409,3.091-1.273
							c0.708-0.586,1.294-1.37,1.758-2.352C1039.296,961.456,1039.668,960.211,1039.947,958.703z"/>
						<path d="M1050.025,956.194l-14.26-17.209l1.918-1.59l3.519,4.246c-0.29-2.524-0.283-4.498,0.023-5.924
							c0.305-1.426,0.936-2.535,1.892-3.327c0.521-0.432,1.115-0.746,1.78-0.941c0.665-0.195,1.45-0.291,2.354-0.286l0.469,2.689
							c-0.871,0.01-1.603,0.093-2.196,0.249s-1.088,0.399-1.485,0.728c-0.77,0.638-1.243,1.659-1.421,3.062
							c-0.177,1.403-0.073,3.349,0.312,5.835l9.013,10.877L1050.025,956.194z"/>
						<path d="M1073.429,934.664c-0.253,1.11-0.671,2.122-1.255,3.035c-0.584,0.913-1.347,1.76-2.291,2.542
							c-2.508,2.078-5.223,2.94-8.144,2.587c-2.922-0.354-5.483-1.859-7.685-4.516c-2.202-2.657-3.205-5.454-3.01-8.39
							c0.195-2.936,1.547-5.444,4.055-7.522c0.944-0.782,1.918-1.375,2.924-1.779c1.005-0.404,2.077-0.627,3.215-0.669
							l-8.349-10.076l1.863-1.543l21.59,26.055l-1.862,1.543L1073.429,934.664z M1071.7,932.579L1062.934,922
							c-1.179-0.133-2.271-0.05-3.279,0.251c-1.007,0.301-1.989,0.847-2.945,1.639c-1.912,1.585-2.92,3.54-3.023,5.866
							c-0.104,2.327,0.735,4.564,2.515,6.712c1.78,2.148,3.823,3.387,6.128,3.718s4.414-0.296,6.326-1.881
							c0.981-0.813,1.715-1.677,2.201-2.594C1071.344,934.795,1071.625,933.751,1071.7,932.579z"/>
					</g>
					<g>
						<g>
							<g>
								<path style="fill:#FFFFFF;" d="M889.181,1079.871c-4.188,3.47-10.396,2.888-13.866-1.3
									c-3.47-4.188-2.888-10.396,1.299-13.866c4.188-3.47,10.396-2.888,13.866,1.3
									C893.951,1070.193,893.369,1076.401,889.181,1079.871z"/>
							</g>
						</g>
						<g>
							<g>
								<path style="fill:#FFFFFF;" d="M887.7,1091.651c0.575,0.693,0.963,1.556,1.076,2.518c0.312,2.653-1.586,5.057-4.239,5.37
									c-8.881,1.046-17.586-2.436-23.285-9.315c-5.33-6.432-7.281-15.109-5.222-23.214c0.658-2.59,3.291-4.155,5.88-3.497
									c2.59,0.657,4.155,3.291,3.497,5.881c-1.301,5.118-0.069,10.597,3.294,14.656c3.598,4.342,9.094,6.539,14.704,5.879
									C885.098,1089.731,886.688,1090.43,887.7,1091.651z"/>
							</g>
						</g>
						<g>
							<g>
								<path style="fill:#FFFFFF;" d="M889.243,1109.025c0.575,0.693,0.963,1.556,1.076,2.518c0.313,2.654-1.585,5.058-4.238,5.371
									c-14.782,1.741-29.271-4.054-38.756-15.501c-8.87-10.704-12.119-25.148-8.691-38.638c0.658-2.59,3.291-4.156,5.88-3.497
									c2.589,0.658,4.155,3.29,3.497,5.88c-2.67,10.504-0.141,21.749,6.763,30.081c7.384,8.911,18.663,13.421,30.174,12.066
									C886.64,1107.104,888.231,1107.804,889.243,1109.025z"/>
							</g>
						</g>
					</g>
					<path style="fill:#5AB08A;" d="M1264.302,920.075l-323.991,268.471c-10.353,8.579-25.842,7.127-34.42-3.225h0
						c-8.579-10.353-7.127-25.842,3.226-34.421l323.991-268.471c10.353-8.579,25.842-7.127,34.421,3.226l0,0
						C1276.106,896.007,1274.654,911.497,1264.302,920.075z"/>
					<path style="fill:#5AB08A;" d="M1138.066,1086.238l-174.092,144.259c-6.733,5.579-16.807,4.635-22.387-2.098h0
						c-5.579-6.733-4.635-16.807,2.098-22.387l174.092-144.259c6.733-5.579,16.807-4.635,22.387,2.098l0,0
						C1145.743,1070.585,1144.799,1080.659,1138.066,1086.238z"/>
					<path style="fill:#5AB08A;" d="M1071.738,1199.61l-79.068,65.518c-6.733,5.579-16.807,4.635-22.387-2.098l0,0
						c-5.579-6.733-4.635-16.807,2.098-22.387l79.068-65.518c6.733-5.579,16.807-4.635,22.387,2.098l0,0
						C1079.415,1183.956,1078.471,1194.031,1071.738,1199.61z"/>
					<path style="fill:#5AB08A;" d="M1205.616,1088.673l-79.068,65.518c-6.733,5.579-16.807,4.635-22.387-2.098l0,0
						c-5.579-6.733-4.635-16.807,2.098-22.387l79.068-65.518c6.733-5.579,16.807-4.635,22.387,2.098l0,0
						C1213.294,1073.02,1212.35,1083.094,1205.616,1088.673z"/>
					<g>
						<g>
							<g>
								<path d="M977.681,1325.27c-11.472,0-22.206-5.092-29.45-13.972l-166.989-204.524c-0.71-0.871-0.583-2.163,0.282-2.881
									c0.383-0.312,0.831-0.473,1.308-0.473c0.621,0,1.202,0.276,1.595,0.757l163.055,199.701
									c8.678,10.474,19.2,16.006,30.43,16.006c8.847,0,17.862-3.595,26.072-10.398l229.008-188.444
									c0.373-0.307,0.824-0.469,1.304-0.469c0.618,0,1.196,0.273,1.588,0.749c0.717,0.872,0.594,2.168-0.275,2.888
									l-233.82,192.406C995.008,1322.198,986.447,1325.27,977.681,1325.27z"/>
							</g>
						</g>
					</g>
					<g>
						<g>
							<g>
								<path d="M913.305,944.627c-0.342,0-0.842-0.081-1.277-0.463c-0.47-0.414-0.725-0.978-0.716-1.59
									c0.009-0.603,0.28-1.169,0.744-1.554l245.981-202.414c6.855-5.641,15.51-8.747,24.37-8.747
									c11.597,0,22.448,5.148,29.77,14.124l134.267,164.583c0.71,0.871,0.584,2.164-0.281,2.881
									c-0.383,0.312-0.832,0.472-1.309,0.472c-0.621,0-1.202-0.276-1.595-0.756L1210.57,748.514
									c-7.012-8.596-17.403-13.525-28.507-13.525c-8.486,0-16.775,2.975-23.339,8.376L914.796,944.087
									C914.373,944.435,913.844,944.626,913.305,944.627z"/>
							</g>
						</g>
					</g>
				</g>
				<g>
					<g>
						<g>
							<g>
								<g>
									<g>
										<path style="fill:#FE9F73;" d="M820.874,1092.186c14.046-11.117,0.628-14.364,0.628-14.364
											c6.975-6.788,5.801-10.341,3.611-12.123c-1.602-1.304-3.732-1.618-5.68-1c-6.183,1.962-25.044,8.021-36.638,12.553
											c-7.85-1.289-4.085-15.339,0.087-22.343c2.15-3.608,2.818-9.82-6.304-4.301c-7.454,4.51-19.454,20.453-19.454,20.453
											l-43.646-8.375l0.891,65.587c0,0,50.34,3.632,57.92,4.235c7.58,0.603,33.755-6.437,42.041-12.913
											c15.034-11.752,6.346-13.176,6.346-13.176C835.243,1092.659,820.874,1092.186,820.874,1092.186z"/>
									</g>
								</g>
							</g>
						</g>
					</g>
				</g>
				<g>
					<g>
						<g>
							<g>
								<g>
									<g>
										<g>
											<path style="fill:#F07162;" d="M804.673,1087.17c-0.386-0.001-0.741-0.265-0.861-0.68
												c-0.148-0.515,0.123-1.065,0.606-1.23c6.77-2.313,16.543-8.227,16.64-8.286c0.441-0.267,0.998-0.104,1.244,0.364
												c0.245,0.47,0.086,1.068-0.355,1.336c-0.407,0.246-10.038,6.075-16.993,8.45
												C804.86,1087.155,804.766,1087.17,804.673,1087.17z"/>
										</g>
									</g>
								</g>
							</g>
						</g>
					</g>
				</g>
				<g>
					<g>
						<g>
							<g>
								<g>
									<g>
										<g>
											<path style="fill:#F07162;" d="M804.5,1099.568c-0.432-0.001-0.812-0.331-0.887-0.803
												c-0.085-0.532,0.25-1.041,0.748-1.139c8.494-1.661,15.989-6.241,16.063-6.287c0.442-0.272,0.999-0.111,1.246,0.355
												c0.248,0.468,0.093,1.067-0.346,1.338c-0.316,0.195-7.837,4.795-16.656,6.52
												C804.612,1099.563,804.556,1099.568,804.5,1099.568z"/>
										</g>
									</g>
								</g>
							</g>
						</g>
					</g>
				</g>
				<g>
					<g>
						<g>
							<g>
								<g>
									<g>
										<g>
											<path style="fill:#F07162;" d="M806.337,1113.712c-0.422-0.001-0.796-0.316-0.882-0.775
												c-0.099-0.528,0.222-1.048,0.717-1.161c7.297-1.66,13.957-6.137,14.024-6.183c0.428-0.292,0.993-0.157,1.26,0.299
												c0.266,0.455,0.135,1.061-0.294,1.352c-0.282,0.191-7.01,4.713-14.63,6.447
												C806.466,1113.706,806.401,1113.712,806.337,1113.712z"/>
										</g>
									</g>
								</g>
							</g>
						</g>
					</g>
				</g>
			</g>
			<g>
				<g>
					<g>
						<path style="fill:#FECC86;" d="M690.36,1035.193l44.048,6.905c0,0,6.319,31.05-9.801,91.482
							c-1.565,5.869-4.654,15.864-4.654,15.864s-45.331-0.082-51.028-16.356c-3.577-10.219,9.823-51.844,9.823-51.844
							L690.36,1035.193z"/>
					</g>
				</g>
			</g>
			<g>
				<g>
					<g>
						<path style="fill:#21111D;" d="M720.911,1151.099l-151.271-18.191l0.352-3.036l148.991,17.917
							c2.961-9.284,22.202-71.824,14.289-104.322l-111.89-17.541l0.445-3.022l113.705,17.825l0.248,0.937
							c9.417,35.592-13.505,105.323-14.485,108.275L720.911,1151.099z"/>
					</g>
				</g>
			</g>
		</g>
		<g>
			<g>
				<path style="fill:#FE9F73;" d="M1000.357,852.731c3.216-2.605,7.455-2.445,8.049-1.716l19.858,24.379
					c2.232,2.74,2.113,6.816-0.477,9.219c-2.838,2.634-7.26,2.29-9.666-0.664l-20.364-25
					C997.757,858.948,997.141,855.336,1000.357,852.731z"/>
			</g>
			<g>
				<path style="fill:#FE9F73;" d="M1010.566,844.544c3.165-2.666,7.406-2.588,8.015-1.87l20.322,23.994
					c2.284,2.696,2.243,6.773-0.3,9.226c-2.787,2.688-7.215,2.429-9.677-0.479l-20.839-24.605
					C1008.086,850.811,1007.401,847.211,1010.566,844.544z"/>
			</g>
			<g>
				<path style="fill:#FE9F73;" d="M1021.482,839.548c2.559-2.207,6.023-2.184,6.527-1.604l16.824,19.399
					c1.891,2.18,1.896,5.51-0.157,7.537c-2.25,2.222-5.868,2.053-7.906-0.298l-17.253-19.893
					C1019.517,844.689,1018.923,841.756,1021.482,839.548z"/>
			</g>
			<g>
				<g>
					<path style="fill:#F07162;" d="M1009.109,850.126c-0.451-0.357-1.103-0.366-1.566,0.014c-0.533,0.437-0.611,1.223-0.173,1.756
						l19.929,24.29c1.866,2.291,1.71,5.592-0.361,7.513c-1.109,1.029-2.546,1.539-4.047,1.434c-1.501-0.105-2.852-0.802-3.803-1.972
						l-18.155-22.289c-0.439-0.527-1.223-0.613-1.755-0.179c-0.535,0.435-0.614,1.22-0.179,1.755l18.155,22.289
						c1.369,1.681,3.398,2.733,5.564,2.884c2.195,0.153,4.298-0.59,5.918-2.095c3.031-2.813,3.292-7.61,0.595-10.921l-19.931-24.293
						C1009.242,850.242,1009.177,850.18,1009.109,850.126z"/>
				</g>
			</g>
			<g>
				<path style="fill:#FE9F73;" d="M992.823,863.205c2.857-2.314,6.623-2.172,7.151-1.525l17.641,21.658
					c1.982,2.434,1.877,6.055-0.424,8.19c-2.521,2.34-6.45,2.034-8.587-0.59l-18.091-22.21
					C990.513,868.728,989.966,865.519,992.823,863.205z"/>
			</g>
			<g>
				<g>
					<path style="fill:#F07162;" d="M1000.598,860.89c-0.4-0.317-0.98-0.325-1.391,0.012c-0.474,0.388-0.542,1.087-0.154,1.56
						l17.705,21.578c1.658,2.035,1.519,4.968-0.32,6.675c-0.985,0.914-2.262,1.367-3.596,1.274
						c-1.334-0.093-2.533-0.713-3.378-1.752l-16.129-19.801c-0.39-0.468-1.086-0.545-1.559-0.159
						c-0.475,0.386-0.546,1.084-0.159,1.559l16.129,19.801c1.217,1.494,3.019,2.428,4.943,2.562
						c1.951,0.136,3.818-0.524,5.258-1.861c2.692-2.499,2.925-6.761,0.528-9.702l-17.707-21.582
						C1000.716,860.994,1000.659,860.939,1000.598,860.89z"/>
				</g>
			</g>
			<g>
				<g>
					<path style="fill:#F07162;" d="M1019.48,842.916c-0.462-0.366-1.133-0.363-1.594,0.038c-0.519,0.453-0.573,1.241-0.121,1.761
						l20.127,23.109c1.923,2.269,1.864,5.225-0.156,7.173c-1.088,1.051-2.515,1.587-4.017,1.511
						c-1.503-0.075-2.864-0.745-3.841-1.898l-20.839-24.605c-0.442-0.527-1.233-0.592-1.758-0.146
						c-0.525,0.445-0.591,1.232-0.145,1.758l20.839,24.605c1.401,1.658,3.449,2.668,5.62,2.778c2.198,0.11,4.285-0.674,5.874-2.208
						c2.964-2.859,3.096-7.314,0.317-10.596l-20.138-23.122C1019.594,843.016,1019.539,842.963,1019.48,842.916z"/>
				</g>
			</g>
			<g>
				<g>
					<path style="fill:#F07162;" d="M1028.687,837.086c-0.404-0.32-0.992-0.319-1.395,0.032c-0.456,0.395-0.505,1.086-0.109,1.542
						l16.824,19.398c1.558,1.796,1.514,4.449-0.098,6.042c-0.865,0.854-2.005,1.298-3.212,1.251
						c-1.207-0.046-2.309-0.573-3.101-1.488l-17.253-19.893c-0.39-0.452-1.086-0.505-1.542-0.109
						c-0.456,0.395-0.505,1.086-0.109,1.542l17.253,19.893c1.174,1.355,2.875,2.171,4.668,2.241c1.818,0.07,3.534-0.598,4.833-1.882
						c2.432-2.4,2.525-6.368,0.214-9.032l-16.824-19.398C1028.789,837.175,1028.74,837.128,1028.687,837.086z"/>
				</g>
			</g>
		</g>
	</g>
	<rect x="237.359" y="1879.584" style="fill:#49263E;" width="2232.885" height="7.264"/>
	<g>
		<g>
			<g>
				<g>
					<g>
						<g>
							<g>
								<g>
									<g>
										<g>
											<polygon style="fill:#FE9F73;" points="1920.398,1858.675 1992.688,1859.668 1993.724,1791.492 1921.719,1782.497 
																							"/>
										</g>
									</g>
								</g>
							</g>
						</g>
					</g>
				</g>
			</g>
		</g>
		<g>
			<g>
				<g>
					<g>
						<g>
							<g>
								<path style="fill:#33192C;" d="M1846.124,1870.948h147.6v-29.7c0,0-10.736-14.256-27.083-6.98c0,0-24.2,17.523-45.995-3.416
									l-54.65,23.464C1865.996,1854.316,1846.124,1860.85,1846.124,1870.948z"/>
							</g>
						</g>
					</g>
				</g>
			</g>
			<g>
				<g>
					<g>
						<g>
							<g>
								<path style="fill:#472A31;" d="M1993.724,1881.343H1842.69c-1.644,0-2.977-1.333-2.977-2.977v-4.44
									c0-1.644,1.333-2.977,2.977-2.977h151.033V1881.343z"/>
							</g>
						</g>
					</g>
				</g>
			</g>
			<g>
				<g>
					<g>
						<g>
							<g>
								<path style="fill:#D7E4F7;" d="M1904.469,1837.797c4.952,7.731,14.895,23.267,21.22,33.15h10.061
									c-5.65-8.829-17.495-27.338-23.389-36.539L1904.469,1837.797z"/>
							</g>
						</g>
					</g>
				</g>
			</g>
			<g>
				<g>
					<g>
						<g>
							<g>
								<path style="fill:#D7E4F7;" d="M1909.554,1870.948h10.061c-4.597-7.184-13.561-21.191-19.909-31.105l-7.893,3.389
									C1897.146,1851.56,1904.534,1863.104,1909.554,1870.948z"/>
							</g>
						</g>
					</g>
				</g>
			</g>
		</g>
		<g>
			<g>
				<g>
					<g>
						<g>
							<g>
								<g>
									<g>
										<g>
											<polygon style="fill:#FE9F73;" points="2044.859,1858.675 2117.148,1859.668 2118.184,1791.492 2046.18,1782.497 
																							"/>
										</g>
									</g>
								</g>
							</g>
						</g>
					</g>
				</g>
			</g>
		</g>
		<g>
			<g>
				<g>
					<g>
						<g>
							<g>
								<g>
									<path style="fill:#33192C;" d="M2037.159,1268.531c-2.392,70.404-12.804,345.807-34.694,525.991
										c-1.443,11.877-11.508,20.838-23.473,20.806c-13.245-0.035-31.668-1.614-52.082-7.847
										c-9.867-3.013-16.717-11.987-16.885-22.302l-8.9-548.259c-0.022-1.332,0.069-2.663,0.272-3.98l0.416-2.708
										c2.294-14.924,17.787-23.914,31.883-18.5l88.294,33.917C2031.411,1249.267,2037.502,1258.444,2037.159,1268.531z"/>
								</g>
							</g>
						</g>
					</g>
				</g>
			</g>
		</g>
		<g>
			<g>
				<g>
					<g>
						<g>
							<g>
								<g>
									<path style="fill:#49263E;" d="M2134.249,1254.331c0,0,6.01,338.653-9.66,547.547c-0.742,9.886-8.591,17.699-18.477,18.452
										c-13.994,1.066-35.308,0.905-59.333-5.472c-8.148-2.163-14.081-9.2-14.806-17.599l-41.915-485.664l-25.808-134.844
										L2134.249,1254.331z"/>
								</g>
							</g>
						</g>
					</g>
				</g>
			</g>
		</g>
		<g>
			<g>
				<g>
					<g>
						<g>
							<g>
								<g>
									<path style="fill:#21111D;" d="M2123.317,1817.963h0.008H2123.317z"/>
								</g>
							</g>
						</g>
					</g>
				</g>
			</g>
		</g>
		<g>
			<g>
				<g>
					<g>
						<g>
							<path style="fill:#FFB357;" d="M2161.211,1146.55c-1.477,13.528-9.58,214.231-32.097,230.791
								c-22.517,16.56-237.98,0.646-242.997-18.919c-5.017-19.565,24.226-229.306,24.226-229.306L2161.211,1146.55z"/>
						</g>
					</g>
				</g>
			</g>
		</g>
		<g>
			<g>
				<g>
					<g>
						<g>
							<g>
								<g>
									<g>
										<path style="fill:#FFB357;" d="M1917.926,1051.988c-2.909,0.05-118.137,54.33-118.137,54.33l25.105,44.292l65.135-16.643
											L1917.926,1051.988z"/>
									</g>
								</g>
							</g>
						</g>
					</g>
				</g>
			</g>
		</g>
		<g>
			<g>
				<g>
					<g>
						<g>
							<g>
								<path style="fill:#FFB357;" d="M2080.216,836.631c0,0,49.666-3.435,73.863,9.204
									c36.108,18.86,27.408,134.227,27.408,134.227s-30.662-15.393-32.673-20.804S2080.216,836.631,2080.216,836.631z"/>
							</g>
						</g>
					</g>
				</g>
			</g>
		</g>
		<g>
			<g>
				<g>
					<g>
						<g>
							<g>
								<path style="fill:#FFB357;" d="M2128.656,843.961c-28.395-2.95-103.059-3.107-103.059-3.107s-9.791,2.928-6.694,1.361
									c-81.856,17.348-88.876,78.728-88.876,78.728l-34.183,177.819l-44.65,3.947c-13.542,27.923-0.388,101.548-0.388,101.548
									l217.5,17.031c0,0,47.096,6.125,84.974-46.023c25.057-34.498,30.455-137.978,27.873-213.364
									C2181.154,961.901,2172.781,848.545,2128.656,843.961z"/>
							</g>
						</g>
					</g>
				</g>
			</g>
		</g>
		<g>
			<g>
				<g>
					<g>
						<g>
							<g>
								<g>
									<g>
										<path style="fill:#21111D;" d="M2064.333,1096.076c-0.243,0.102-0.518,0.134-0.795,0.079
											c-0.742-0.148-1.223-0.87-1.074-1.611c0.194-0.974,19.557-98.003,27.127-158.904c0.095-0.751,0.781-1.282,1.528-1.19
											c0.75,0.093,1.283,0.777,1.19,1.527c-7.583,61.003-26.964,158.13-27.16,159.103
											C2065.056,1095.545,2064.738,1095.907,2064.333,1096.076z"/>
									</g>
								</g>
							</g>
						</g>
					</g>
				</g>
			</g>
		</g>
		<g>
			<g>
				<g>
					<g>
						<g>
							<g>
								<g>
									<g>
										<path style="fill:#21111D;" d="M1930.105,1098.362c0.222,0.197,0.51,0.323,0.828,0.341
											c0.755,0.044,1.403-0.533,1.446-1.288c0.064-1.124,6.526-112.765,13.059-149.728c0.131-0.746-0.368-1.455-1.109-1.587
											c-0.745-0.132-1.455,0.365-1.587,1.109c-6.561,37.121-13.032,148.923-13.097,150.047
											C1929.62,1097.694,1929.801,1098.094,1930.105,1098.362z"/>
									</g>
								</g>
							</g>
						</g>
					</g>
				</g>
			</g>
		</g>
		<g>
			<g>
				<g>
					<g>
						<g>
							<g>
								<g>
									<g>
										<path style="fill:#21111D;" d="M1913.653,1074.162c-0.605,0.253-1.322,0.039-1.684-0.534l-9.722-15.426l0.102-0.531
											l26.324-136.937c0.149-1.232,2.293-17.158,15.121-35.076c12.026-16.798,36.134-38.461,82.678-46.274
											c0.746-0.125,1.452,0.378,1.577,1.123c0.125,0.745-0.379,1.452-1.124,1.577c-45.54,7.645-69.084,28.714-80.817,45.043
											c-12.713,17.695-14.704,33.813-14.722,33.973l-0.016,0.102l-26.232,136.455l9.147,14.511
											c0.403,0.639,0.211,1.485-0.429,1.888C1913.792,1074.098,1913.723,1074.133,1913.653,1074.162z"/>
									</g>
								</g>
							</g>
						</g>
					</g>
				</g>
			</g>
		</g>
		<g>
			<g>
				<g>
					<g>
						<g>
							<g>
								<g>
									<g>
										<path style="fill:#21111D;" d="M2100.784,1085.704c-0.058,0.024-0.117,0.044-0.178,0.061l-36.299,9.618
											c-0.73,0.193-1.48-0.242-1.674-0.973c-0.194-0.73,0.24-1.477,0.973-1.674l36.299-9.618c0.73-0.193,1.48,0.242,1.674,0.973
											C2101.756,1084.759,2101.405,1085.444,2100.784,1085.704z"/>
									</g>
								</g>
							</g>
						</g>
					</g>
				</g>
			</g>
		</g>
		<g>
			<g>
				<g>
					<g>
						<g>
							<g>
								<g>
									<g>
										<path style="fill:#21111D;" d="M1865.225,1076.31c-0.687,0.287-1.48-0.028-1.78-0.713c-0.303-0.692,0.011-1.5,0.703-1.804
											l38.996-17.117c0.719-0.276,1.5,0.01,1.804,0.703c0.303,0.692-0.011,1.5-0.703,1.804l-38.996,17.117
											C1865.24,1076.304,1865.233,1076.307,1865.225,1076.31z"/>
									</g>
								</g>
							</g>
						</g>
					</g>
				</g>
			</g>
		</g>
		<g>
			<g>
				<g>
					<g>
						<g>
							<g>
								<g>
									<g>
										<g>
											<g>
												<path style="fill:#633455;" d="M1703.599,1205.854l128.186-8.427c6.084-0.4,11.209-5.803,10.497-11.067l-25.534-188.778
													c-0.516-3.816-4.008-6.316-8.419-6.026l-128.186,8.427c-6.084,0.4-11.209,5.803-10.497,11.067l25.534,188.778
													C1695.696,1203.645,1699.188,1206.144,1703.599,1205.854z"/>
											</g>
										</g>
									</g>
								</g>
							</g>
						</g>
					</g>
				</g>
			</g>
			<g>
				<g>
					<g>
						<g>
							<g>
								<g>
									<g>
										<g>
											<g>
												<g>
													<g>
														<path style="fill:#FE9F73;" d="M1765.726,1166.268c-0.13-3.528,2.914-6.612,6.437-6.847l21.792-1.458
															c0.685-0.046,1.264-0.522,1.443-1.185l0,0c0.262-0.977-0.434-1.95-1.444-2.017l-32.26-2.136
															c-3.696-0.245-5.934-3.372-4.973-6.949l0,0c0.961-3.577,4.771-6.304,8.467-6.059l32.897,2.178
															c0.764,0.051,1.457-0.445,1.656-1.185l0.141-0.523c0.23-0.856-0.277-1.736-1.133-1.966l-35.269-9.473
															c-3.409-0.916-5.796-4.532-4.983-7.968c0.862-3.642,4.554-5.827,8.143-4.863l35.536,9.545
															c0.855,0.23,1.736-0.278,1.966-1.133l0.446-1.661c0.209-0.778-0.191-1.59-0.936-1.899l-31.537-13.065
															c-3.261-1.351-5.158-5.247-3.905-8.548c1.328-3.499,5.273-5.185,8.705-3.763c0,0,48.506,17.167,56.422,19.255
															l-14.59-6.817c-10.736,10.066,1.385-3.673,10.218-5.453c9.787-1.971,35.641,21.966,35.641,21.966
															c1.188,2.06-0.034,6.662-1.901,10.126c-7.214,38.309-8.64,44.151-11.536,54.301l-39.852-12.159
															c-11.499-3.508-23.541-4.895-35.536-4.093l-3.013,0.201C1769.061,1172.869,1765.864,1170.008,1765.726,1166.268z"/>
													</g>
												</g>
											</g>
										</g>
									</g>
								</g>
							</g>
						</g>
					</g>
				</g>
			</g>
			<g>
				<g>
					<g>
						<g>
							<g>
								<g>
									<g>
										<g>
											<g>
												<path style="fill:#FFFFFF;" d="M1736.724,1064.705c0.036,6.969,5.518,12.82,12.245,13.068
													c6.727,0.248,12.151-5.201,12.115-12.17c-0.036-6.969-5.518-12.82-12.245-13.068
													C1742.112,1052.287,1736.688,1057.736,1736.724,1064.705z"/>
											</g>
										</g>
									</g>
								</g>
							</g>
						</g>
					</g>
				</g>
			</g>
			<g>
				<g>
					<g>
						<g>
							<g>
								<g>
									<g>
										<polygon style="fill:#FD7583;" points="1828.525,1099.597 1830.336,1113.659 1815.371,1108.663 1815.569,1098.483 
																					"/>
									</g>
								</g>
							</g>
						</g>
					</g>
				</g>
			</g>
			<g>
				<g>
					<g>
						<g>
							<g>
								<g>
									<path style="fill:#21111D;" d="M1680.136,998.61l128.186-8.427c5.049-0.332,9.151,2.667,9.754,7.133l15.441,117.466
										l-3.179-1.105l-14.919-115.827c-0.424-3.143-3.338-5.166-7.084-4.92l-128.186,8.427c-0.74,0.049-1.343-0.527-1.347-1.286
										C1678.799,999.313,1679.396,998.659,1680.136,998.61z"/>
								</g>
							</g>
						</g>
					</g>
				</g>
			</g>
		</g>
		<g>
			<g>
				<g>
					<g>
						<g>
							<g>
								<path style="fill:#FFB357;" d="M1851.195,1102.709c0,0-13.148,34.231-0.388,101.548l12.774-48.363l21.299-31.498
									L1851.195,1102.709z"/>
							</g>
						</g>
					</g>
				</g>
			</g>
		</g>
		<g>
			<g>
				<g>
					<g>
						<g>
							<g>
								<g>
									<g>
										<path style="fill:#21111D;" d="M2111.629,1095.681c-0.16,0.067-0.337,0.105-0.522,0.106
											c-1.959,0.006-195.746,0.797-258.907,8.182c-1.416,4.211-7.83,25.937-4.489,65.172c0.064,0.754-0.49,1.417-1.248,1.481
											c-0.754,0.064-1.417-0.495-1.481-1.248c-3.785-44.46,4.581-66.262,4.938-67.168l0.3-0.759l0.81-0.098
											c62.417-7.496,258.096-8.294,260.066-8.302c0.756-0.003,1.371,0.609,1.374,1.365
											C2112.473,1094.984,2112.125,1095.474,2111.629,1095.681z"/>
									</g>
								</g>
							</g>
						</g>
					</g>
				</g>
			</g>
		</g>
		<g>
			<g>
				<g>
					<g>
						<g>
							<path style="fill:#21111D;" d="M2032.6,1216.689c-79.132,0-175.991-10.209-181.963-10.847
								c-0.874-0.093-1.51-0.88-1.417-1.755c0.094-0.875,0.843-1.515,1.757-1.416c2.158,0.229,216.514,22.828,270.356,1.722
								c53.213-20.86,56.927-138.099,56.958-139.281c0.023-0.881,0.76-1.593,1.637-1.551c0.88,0.023,1.576,0.755,1.553,1.635
								c-0.131,4.912-3.807,120.537-58.985,142.167C2104.753,1214.318,2070.736,1216.689,2032.6,1216.689z"/>
						</g>
					</g>
				</g>
			</g>
		</g>
		<g>
			<g>
				<g>
					<g>
						<g>
							<g>
								<g>
									<path style="fill:#21111D;" d="M2078.553,714.449c0,0,18.804,9.704,9.402,47.649l-7.112-3.667l2.399-20.158
										L2078.553,714.449z"/>
								</g>
							</g>
						</g>
					</g>
				</g>
			</g>
			<g>
				<g>
					<g>
						<g>
							<g>
								<g>
									<g>
										<g>
											<g>
												<path style="fill:#FE9F73;" d="M2012.662,737.991v55.606c0,0-0.778,18.796,15.566,21.146l-3.052,25.078
													c-1.134,9.322,4.405,18.246,13.302,21.081c4.35,1.386,9.544,2.398,15.433,2.398c18.679,0,28.797-14.097,30.353-21.146
													c1.557-7.049-3.113-40.726-3.113-40.726l0.569-16.548l-2.125-64.119L2012.662,737.991z"/>
											</g>
										</g>
									</g>
								</g>
							</g>
						</g>
					</g>
				</g>
			</g>
			<g>
				<g>
					<g>
						<g>
							<g>
								<g>
									<g>
										<g>
											<g>
												<path style="fill:#21111D;" d="M2057.76,765.795c0.194,0,0.388-0.073,0.539-0.219c0.31-0.299,0.32-0.795,0.022-1.107
													c-0.107-0.112-10.812-11.131-20.594-3.2c-0.335,0.271-0.387,0.764-0.118,1.1c0.27,0.338,0.759,0.391,1.094,0.118
													c8.668-7.026,18.097,2.65,18.494,3.066C2057.351,765.713,2057.555,765.795,2057.76,765.795z"/>
											</g>
										</g>
									</g>
								</g>
							</g>
						</g>
					</g>
				</g>
			</g>
			<g>
				<g>
					<g>
						<g>
							<g>
								<g>
									<g>
										<g>
											<g>
												<path style="fill:#21111D;" d="M2025.677,761.095c0.218,0,0.434-0.092,0.588-0.271c0.281-0.326,0.246-0.82-0.078-1.104
													c-0.314-0.274-7.738-6.663-12.432-2.613c-0.326,0.281-0.364,0.776-0.084,1.104c0.28,0.33,0.771,0.367,1.097,0.085
													c3.677-3.172,10.332,2.55,10.399,2.608C2025.315,761.033,2025.496,761.095,2025.677,761.095z"/>
											</g>
										</g>
									</g>
								</g>
							</g>
						</g>
					</g>
				</g>
			</g>
			<g>
				<g>
					<g>
						<g>
							<g>
								<g>
									<g>
										<g>
											<g>
												<path d="M2042.021,768.96c0,1.298,1.046,2.349,2.335,2.349c1.289,0,2.335-1.052,2.335-2.349
													c0-1.298-1.045-2.35-2.335-2.35C2043.066,766.61,2042.021,767.662,2042.021,768.96z"/>
											</g>
										</g>
									</g>
								</g>
							</g>
						</g>
					</g>
				</g>
			</g>
			<g>
				<g>
					<g>
						<g>
							<g>
								<g>
									<g>
										<g>
											<g>
												<path d="M2017.202,766.61c0,1.298,1.045,2.35,2.335,2.35s2.335-1.052,2.335-2.35c0-1.297-1.045-2.349-2.335-2.349
													S2017.202,765.313,2017.202,766.61z"/>
											</g>
										</g>
									</g>
								</g>
							</g>
						</g>
					</g>
				</g>
			</g>
			<g>
				<g>
					<g>
						<g>
							<g>
								<g>
									<g>
										<g>
											<g>
												<ellipse style="fill:#FE9F73;" cx="2083.269" cy="769.773" rx="14.009" ry="14.097"/>
											</g>
										</g>
									</g>
								</g>
							</g>
						</g>
					</g>
				</g>
			</g>
			<g>
				<g>
					<g>
						<g>
							<g>
								<g>
									<g>
										<g>
											<g>
												<path style="fill:#F07162;" d="M2084.305,778.412c2.91,0,4.854-2.201,5.494-4.401c0.757-2.602-0.111-5.129-2.21-6.441
													c-3.103-1.938-5.915-0.694-7.356,0.259c0.604-1.6,1.553-2.765,2.828-3.471c2.76-1.529,6.184-0.415,6.218-0.404
													c0.204,0.069,0.424-0.043,0.492-0.248c0.068-0.205-0.042-0.426-0.246-0.495c-0.153-0.051-3.771-1.233-6.834,0.458
													c-1.767,0.976-2.97,2.704-3.574,5.136l-0.339,1.364l0.991-0.991c0.14-0.141,3.471-3.4,7.409-0.942
													c2.18,1.361,2.372,3.844,1.874,5.556c-0.517,1.778-2.068,3.838-4.744,3.838c-0.027,0-0.052-0.002-0.08-0.001
													c-0.212,0-0.386,0.171-0.389,0.386c-0.003,0.216,0.169,0.394,0.384,0.397
													C2084.25,778.412,2084.278,778.412,2084.305,778.412z"/>
											</g>
										</g>
									</g>
								</g>
							</g>
						</g>
					</g>
				</g>
			</g>
			<g>
				<g>
					<g>
						<g>
							<g>
								<g>
									<g>
										<g>
											<path style="fill:#21111D;" d="M2009.952,784.75c0,0-5.089,37.658,19.76,38.996c35.556,1.914,39-18.506,41.113-35.214
												l0.357-34.485l-1.142-10.007l0,0c-2.513,2.86-4.049,6.449-4.387,10.252c-0.736,8.269-2.557,30.548-4.608,31.534
												C2058.148,787.217,2015.486,781.123,2009.952,784.75z"/>
										</g>
									</g>
								</g>
							</g>
						</g>
					</g>
				</g>
			</g>
			<g>
				<g>
					<g>
						<g>
							<g>
								<g>
									<g>
										<g>
											<g>
												<path style="fill:#F07162;" d="M2033.785,784.808c0.163,0,0.315-0.104,0.369-0.268c0.068-0.206-0.043-0.427-0.247-0.495
													l-7.801-2.596l2.465-18.474c0.029-0.214-0.121-0.411-0.334-0.44c-0.215-0.034-0.409,0.122-0.438,0.336l-2.551,19.118
													l8.414,2.799C2033.703,784.802,2033.744,784.808,2033.785,784.808z"/>
											</g>
										</g>
									</g>
								</g>
							</g>
						</g>
					</g>
				</g>
			</g>
			<g>
				<g>
					<g>
						<g>
							<g>
								<g>
									<g>
										<g>
											<g>
												<path style="fill:#FBFDFC;" d="M2039.827,792.436c-0.24-0.047-15.41-0.405-15.41-0.405s1.904,6.313,7.543,6.462
													C2037.598,798.641,2039.827,792.436,2039.827,792.436z"/>
											</g>
										</g>
									</g>
								</g>
							</g>
						</g>
					</g>
				</g>
			</g>
			<g>
				<g>
					<g>
						<g>
							<g>
								<g>
									<path style="fill:#21111D;" d="M2070.113,744.682l7.033-6.408l7.278,17.493c0,0-8.998,1.487-9.154,10.844
										c-0.156,9.357,4.894,23.965-11.311,44.958c-16.204,20.992,1.305-31.335,1.462-33.155
										C2065.577,776.592,2070.113,744.682,2070.113,744.682z"/>
								</g>
							</g>
						</g>
					</g>
				</g>
			</g>
			<g>
				<g>
					<g>
						<g>
							<g>
								<g>
									<path style="fill:#21111D;" d="M2078.553,714.449c-7.503-7.444-33.527-11.694-52.096-0.501l-0.001-0.02
										c-21.144,10.344-14.501,31.398-13.799,32.023l0.274-0.21c-0.107,0.485-0.204,0.972-0.274,1.46c0,0,0.888-1.419,2.787-3.385
										l8.314-6.368c4.658-2.622,10.909-4.885,18.995-5.412c8.028-0.524,15.038-0.077,20.793,1.692
										c1.522,4.775,2.758,14.242,0.972,32.882c-2.726,28.434,9.695-6.058,14.211-19.266c0.97,2.47,1.674,5.243,2.027,8.422
										C2080.756,755.766,2093.59,729.367,2078.553,714.449z"/>
								</g>
							</g>
						</g>
					</g>
				</g>
			</g>
			<g>
				<g>
					<g>
						<g>
							<g>
								<g>
									<path style="fill:#FE9F73;" d="M2012.662,753.611c0,0-0.554-11.412-0.006-13.914c0.548-2.501,25.956-9.68,39.869-7.771
										c13.912,1.909-13.056,17.229-13.369,17.229C2038.844,749.155,2012.662,753.611,2012.662,753.611z"/>
								</g>
							</g>
						</g>
					</g>
				</g>
			</g>
			<g>
				<g>
					<g>
						<g>
							<g>
								<g>
									<polygon style="fill:#FE9F73;" points="2060.887,734.851 2074.332,722.344 2061.669,740.635 									"/>
								</g>
							</g>
						</g>
					</g>
				</g>
			</g>
			<g>
				<g>
					<g>
						<g>
							<g>
								<g>
									<path style="fill:#21111D;" d="M2060.887,710.227c0,0-2.736-26.968,12.272-21.105c15.008,5.863,17.588,18.291,3.987,26.499
										C2063.545,723.829,2060.887,710.227,2060.887,710.227z"/>
								</g>
							</g>
						</g>
					</g>
				</g>
			</g>
		</g>
		<g>
			<g>
				<g>
					<g>
						<g>
							<path style="fill:#FFB357;" d="M2116.244,894.319l-26.493-44.428l-46.552,14.061l-18.883-20.087
								c0,0-4.017,18.551-3.899,20.087c0.118,1.536,21.269,23.514,23.986,23.277
								C2047.121,886.993,2116.244,894.319,2116.244,894.319z"/>
						</g>
					</g>
				</g>
			</g>
		</g>
		<g>
			<g>
				<g>
					<g>
						<g>
							<path style="fill:#21111D;" d="M2112.469,1383.671c-0.829,0-1.529-0.642-1.589-1.482c-0.062-0.879,0.598-1.642,1.477-1.704
								c22.351-1.597,25.42-20.603,30.505-52.089c0.914-5.66,1.859-11.512,2.997-17.803c7.569-41.819,10.9-143.133,10.931-144.151
								c0.029-0.863,0.738-1.544,1.595-1.544c0.017,0,0.033,0,0.052,0.001c0.881,0.028,1.57,0.766,1.543,1.645
								c-0.033,1.021-3.373,102.569-10.981,144.618c-1.134,6.261-2.077,12.098-2.989,17.743
								c-5.153,31.906-8.557,52.986-33.425,54.762C2112.546,1383.67,2112.509,1383.671,2112.469,1383.671z"/>
						</g>
					</g>
				</g>
			</g>
		</g>
		<g>
			<g>
				<g>
					<g>
						<g>
							<path style="fill:#FD7583;" d="M2027.117,823.871l-1.926,15.734c0,0,11.52,17.286,19.404,22.809
								c15.632-10.842,39.829-25.997,39.829-25.997l-1.414-19.89c29.019-3.309,62.064,14.931,54.502,24.327
								c-7.562,9.395-46.865,12.282-57.296,15.705c-10.291,3.376-36.582,11.359-36.582,11.359
								c-6.913-5.133-25.476-26.943-25.476-26.943l-18.784,5.214C1999.01,827.125,2027.117,823.871,2027.117,823.871z"/>
						</g>
					</g>
				</g>
			</g>
		</g>
		<g>
			<g>
				<g>
					<g>
						<g>
							<g>
								<path style="fill:#49263E;" d="M1970.584,1870.948h147.6v-29.7c0,0-10.736-14.256-27.083-6.98c0,0-24.2,17.523-45.995-3.416
									l-54.649,23.464C1990.457,1854.316,1970.584,1860.85,1970.584,1870.948z"/>
							</g>
						</g>
					</g>
				</g>
			</g>
			<g>
				<g>
					<g>
						<g>
							<g>
								<path style="fill:#683D46;" d="M2118.184,1881.343h-151.033c-1.644,0-2.977-1.333-2.977-2.977v-4.441
									c0-1.644,1.333-2.977,2.977-2.977h151.033V1881.343z"/>
							</g>
						</g>
					</g>
				</g>
			</g>
			<g>
				<g>
					<g>
						<g>
							<g>
								<path style="fill:#D7E4F7;" d="M2028.929,1837.797c4.952,7.731,14.895,23.267,21.22,33.15h10.061
									c-5.65-8.829-17.495-27.338-23.389-36.539L2028.929,1837.797z"/>
							</g>
						</g>
					</g>
				</g>
			</g>
			<g>
				<g>
					<g>
						<g>
							<g>
								<path style="fill:#D7E4F7;" d="M2034.015,1870.948h10.061c-4.597-7.184-13.561-21.191-19.909-31.105l-7.893,3.389
									C2021.606,1851.56,2028.995,1863.104,2034.015,1870.948z"/>
							</g>
						</g>
					</g>
				</g>
			</g>
		</g>
		<g>
			<g>
				<g>
					<path d="M2043.633,868.981c-0.274,0-0.55-0.106-0.758-0.318l-32.788-33.308c-0.411-0.418-0.407-1.091,0.013-1.504
						c0.417-0.41,1.09-0.408,1.504,0.013l32.788,33.308c0.411,0.418,0.407,1.091-0.012,1.504
						C2044.171,868.879,2043.903,868.981,2043.633,868.981z"/>
				</g>
			</g>
		</g>
	</g>
	<g>
		<g>
			<g>
				<path style="fill:#FFA8B2;" d="M1674.036,949.557c-2.597-9.352,2.88-19.039,12.233-21.636
					c9.352-2.596,19.039,2.881,21.636,12.233c2.597,9.352-2.881,19.039-12.233,21.635
					C1686.32,964.386,1676.633,958.909,1674.036,949.557z"/>
			</g>
		</g>
		<g>
			<g>
				<path style="fill:#FFA8B2;" d="M1655.932,938.55c-1.549,0.43-3.236,0.433-4.886-0.084c-4.549-1.427-7.08-6.273-5.653-10.822
					c4.776-15.227,16.798-26.864,32.159-31.129c14.364-3.988,29.921-0.835,41.617,8.431c3.737,2.961,4.366,8.392,1.405,12.129
					c-2.96,3.738-8.391,4.367-12.129,1.406c-7.386-5.853-17.209-7.845-26.274-5.328c-9.696,2.692-17.286,10.041-20.302,19.658
					C1660.958,935.713,1658.658,937.793,1655.932,938.55z"/>
			</g>
		</g>
		<g>
			<g>
				<path style="fill:#FFA8B2;" d="M1626.51,928.388c-1.549,0.43-3.237,0.433-4.885-0.085c-4.551-1.426-7.082-6.272-5.655-10.821
					c7.949-25.345,27.958-44.714,53.522-51.812c23.906-6.637,49.8-1.39,69.269,14.035c3.738,2.961,4.367,8.391,1.406,12.129
					c-2.959,3.736-8.39,4.367-12.128,1.406c-15.16-12.011-35.319-16.097-53.927-10.931c-19.899,5.525-35.475,20.605-41.665,40.341
					C1631.536,925.55,1629.237,927.63,1626.51,928.388z"/>
			</g>
		</g>
	</g>
	<g>
		<g>
			<g>
				<g>
					<g>
						<g>
							<g>
								<path style="fill:#FFA8B2;" d="M1838.904,722.174h-436.421c-8.062,0-14.597-6.535-14.597-14.597V595.113
									c0-8.062,6.535-14.597,14.597-14.597h436.421c8.062,0,14.597,6.535,14.597,14.597v112.464
									C1853.501,715.639,1846.966,722.174,1838.904,722.174z"/>
							</g>
						</g>
					</g>
				</g>
			</g>
		</g>
		<g>
			<path style="fill:#FFFFFF;" d="M1422.837,645.226c-0.028-2.958,0.531-5.823,1.681-8.594c1.148-2.771,2.793-5.226,4.934-7.367
				c2.203-2.183,4.7-3.855,7.491-5.015c2.79-1.161,5.728-1.755,8.813-1.785c3.127-0.03,6.096,0.507,8.909,1.614
				c2.812,1.106,5.32,2.729,7.524,4.87c2.245,2.161,3.953,4.594,5.123,7.301c1.17,2.707,1.77,5.602,1.8,8.687
				c0.022,2.309-0.287,4.547-0.927,6.714c-0.641,2.168-1.602,4.192-2.885,6.072c-2.152,3.232-4.892,5.74-8.223,7.524
				c-3.33,1.785-6.957,2.696-10.881,2.734c-3.106,0.03-6.086-0.519-8.94-1.645c-2.855-1.126-5.352-2.739-7.491-4.838
				c-2.225-2.182-3.928-4.663-5.109-7.443C1423.473,651.274,1422.867,648.332,1422.837,645.226z M1426.711,645.346
				c0.025,2.581,0.537,5.079,1.536,7.493c1,2.414,2.4,4.536,4.201,6.365c1.801,1.788,3.903,3.174,6.305,4.158
				c2.402,0.984,4.872,1.464,7.411,1.439c2.623-0.025,5.095-0.537,7.415-1.535c2.319-0.998,4.383-2.44,6.191-4.326
				c1.808-1.864,3.182-3.997,4.125-6.398c0.942-2.402,1.401-4.924,1.375-7.568c-0.026-2.644-0.527-5.136-1.505-7.478
				c-0.978-2.34-2.399-4.436-4.263-6.286c-1.844-1.829-3.95-3.236-6.321-4.221c-2.37-0.984-4.836-1.464-7.396-1.439
				c-2.539,0.024-4.979,0.547-7.32,1.566c-2.341,1.02-4.436,2.473-6.285,4.358c-1.787,1.822-3.152,3.929-4.094,6.319
				C1427.143,640.184,1426.685,642.701,1426.711,645.346z"/>
			<path style="fill:#FFFFFF;" d="M1475.713,666.908l-0.281-29.084l3.21-0.031l0.045,4.658c1.389-1.755,2.914-3.065,4.574-3.932
				c1.66-0.866,3.476-1.309,5.449-1.328c3.295-0.032,5.844,0.972,7.647,3.011c1.803,2.039,2.724,4.958,2.761,8.756l0.171,17.721
				l-3.211,0.031l-0.156-16.179c-0.034-3.504-0.673-6.116-1.917-7.836c-1.244-1.719-3.105-2.567-5.581-2.543
				c-2.015,0.019-3.83,0.551-5.446,1.595c-1.617,1.044-3.034,2.59-4.252,4.637l0.198,20.491L1475.713,666.908z"/>
			<path style="fill:#FFFFFF;" d="M1507.157,666.605l-0.425-44.036l3.306-0.032l0.425,44.036L1507.157,666.605z"/>
			<path style="fill:#FFFFFF;" d="M1518.273,627.809l-0.052-5.351l3.306-0.032l0.052,5.351L1518.273,627.809z M1518.646,666.494
				l-0.281-29.084l3.306-0.032l0.281,29.084L1518.646,666.494z"/>
			<path style="fill:#FFFFFF;" d="M1529.884,666.385l-0.281-29.084l3.21-0.031l0.045,4.658c1.389-1.755,2.914-3.066,4.574-3.932
				c1.66-0.866,3.476-1.309,5.449-1.328c3.295-0.032,5.844,0.972,7.647,3.011c1.803,2.039,2.724,4.958,2.761,8.756l0.171,17.721
				l-3.211,0.031l-0.156-16.179c-0.034-3.504-0.673-6.116-1.917-7.836c-1.244-1.719-3.105-2.567-5.581-2.543
				c-2.015,0.02-3.83,0.551-5.446,1.595c-1.617,1.044-3.034,2.59-4.252,4.637l0.198,20.491L1529.884,666.385z"/>
			<path style="fill:#FFFFFF;" d="M1584.969,662.643c-1.876,1.32-3.713,2.302-5.512,2.949c-1.799,0.647-3.653,0.98-5.563,0.998
				c-4.343,0.042-7.847-1.352-10.507-4.18c-2.661-2.828-4.014-6.603-4.06-11.325c-0.042-4.407,1.166-7.96,3.627-10.659
				c2.461-2.699,5.716-4.069,9.766-4.108c3.756-0.036,6.8,1.204,9.134,3.721c2.333,2.517,3.519,5.874,3.56,10.07l0.001,0.126
				l-22.695,0.219l0.003,0.346c0.037,3.799,1.084,6.863,3.143,9.193c2.057,2.331,4.703,3.481,7.934,3.45
				c1.93-0.019,3.784-0.378,5.562-1.077c1.777-0.699,3.634-1.792,5.572-3.28L1584.969,662.643z M1563.104,647.681l18.477-0.178
				c-0.36-2.557-1.377-4.603-3.05-6.141c-1.673-1.537-3.684-2.294-6.035-2.271c-2.414,0.023-4.493,0.831-6.241,2.421
				C1564.507,643.102,1563.457,645.159,1563.104,647.681z"/>
			<path style="fill:#FFFFFF;" d="M1608.592,680.264l-0.422-43.721l3.085-0.03l0.02,2.077c1.187-0.914,2.45-1.592,3.789-2.035
				s2.806-0.673,4.401-0.688c4.239-0.041,7.683,1.316,10.333,4.071c2.65,2.756,3.996,6.378,4.04,10.868
				c0.043,4.491-1.233,8.14-3.829,10.945c-2.597,2.806-6.014,4.229-10.252,4.269c-1.637,0.016-3.123-0.18-4.46-0.586
				c-1.337-0.407-2.597-1.045-3.78-1.915l0.161,16.714L1608.592,680.264z M1611.309,642.21l0.172,17.784
				c1.081,1.102,2.259,1.914,3.533,2.437c1.275,0.523,2.709,0.776,4.304,0.761c3.253-0.031,5.891-1.185,7.915-3.46
				c2.024-2.275,3.019-5.218,2.984-8.828c-0.035-3.609-1.086-6.532-3.154-8.768c-2.068-2.236-4.728-3.338-7.981-3.307
				c-1.616,0.016-3.05,0.297-4.305,0.844C1613.525,640.221,1612.369,641.066,1611.309,642.21z"/>
			<path style="fill:#FFFFFF;" d="M1654.661,662.348c-1.604,1.254-3.101,2.155-4.491,2.703c-1.391,0.549-2.852,0.831-4.383,0.845
				c-2.392,0.023-4.34-0.651-5.843-2.021c-1.504-1.371-2.266-3.158-2.287-5.361c-0.031-3.211,1.397-5.753,4.286-7.628
				c2.888-1.874,7.059-2.953,12.513-3.237l-0.03-3.085c-0.021-2.182-0.556-3.767-1.604-4.754c-1.048-0.987-2.706-1.469-4.972-1.448
				c-1.406,0.014-2.82,0.31-4.241,0.891c-1.422,0.581-2.966,1.498-4.633,2.752l-0.031-3.179c1.626-1.107,3.187-1.93,4.682-2.469
				c1.495-0.539,2.978-0.816,4.447-0.83c3.336-0.032,5.757,0.716,7.262,2.244c1.504,1.528,2.274,4.034,2.307,7.517l0.147,15.235
				c0.006,0.63,0.094,1.096,0.265,1.398c0.171,0.303,0.434,0.452,0.791,0.449c0.504-0.005,1.369-0.559,2.597-1.662
				c0.291-0.275,0.51-0.477,0.656-0.604l0.059,2.927c-0.936,0.891-1.8,1.56-2.593,2.008c-0.793,0.449-1.494,0.676-2.103,0.682
				c-0.923,0.009-1.603-0.252-2.038-0.783C1654.991,664.406,1654.736,663.543,1654.661,662.348z M1654.569,659.326l-0.088-9.097
				c-4.196,0.103-7.505,0.891-9.925,2.363c-2.42,1.471-3.618,3.393-3.596,5.764c0.014,1.49,0.529,2.661,1.545,3.511
				c1.016,0.851,2.405,1.267,4.167,1.25c1.196-0.012,2.432-0.323,3.706-0.933C1651.653,661.574,1653.05,660.621,1654.569,659.326z"
				/>
			<path style="fill:#FFFFFF;" d="M1674.937,659.319l-12.408-23.301l3.62-0.035l10.516,19.699l9.472-19.892l3.337-0.032
				l-20.982,43.928l-3.274,0.032L1674.937,659.319z"/>
			<path style="fill:#FFFFFF;" d="M1693.563,664.805l-0.281-29.084l3.21-0.031l0.045,4.658c1.326-1.754,2.788-3.064,4.385-3.93
				c1.597-0.865,3.34-1.307,5.229-1.326c2.182-0.021,3.991,0.429,5.427,1.349c1.436,0.92,2.657,2.414,3.663,4.482
				c1.596-2.05,3.229-3.562,4.899-4.533c1.669-0.971,3.501-1.466,5.495-1.486c3.168-0.031,5.623,0.974,7.363,3.014
				c1.74,2.04,2.63,4.959,2.666,8.757l0.171,17.721l-3.274,0.032l-0.156-16.179c-0.034-3.504-0.641-6.116-1.823-7.837
				c-1.182-1.72-2.948-2.568-5.298-2.546c-1.93,0.019-3.667,0.555-5.21,1.609c-1.543,1.053-2.86,2.593-3.953,4.618l0.198,20.491
				l-3.242,0.031l-0.156-16.179c-0.034-3.504-0.647-6.116-1.838-7.836c-1.192-1.72-2.973-2.568-5.345-2.545
				c-1.888,0.018-3.599,0.549-5.131,1.592c-1.532,1.043-2.876,2.588-4.032,4.635l0.198,20.491L1693.563,664.805z"/>
			<path style="fill:#FFFFFF;" d="M1767.282,660.883c-1.876,1.32-3.713,2.302-5.512,2.949c-1.799,0.647-3.653,0.98-5.563,0.998
				c-4.343,0.042-7.847-1.351-10.507-4.18c-2.661-2.828-4.014-6.603-4.06-11.325c-0.042-4.407,1.166-7.96,3.627-10.659
				c2.461-2.699,5.716-4.069,9.766-4.108c3.756-0.036,6.8,1.204,9.134,3.721c2.333,2.517,3.519,5.874,3.56,10.07l0.001,0.126
				l-22.695,0.219l0.003,0.346c0.037,3.799,1.084,6.863,3.143,9.193c2.057,2.331,4.703,3.481,7.935,3.45
				c1.93-0.019,3.784-0.378,5.562-1.077c1.777-0.699,3.634-1.792,5.572-3.28L1767.282,660.883z M1745.416,645.921l18.477-0.178
				c-0.36-2.557-1.377-4.603-3.05-6.141c-1.673-1.537-3.684-2.294-6.035-2.271c-2.414,0.023-4.493,0.831-6.241,2.421
				C1746.82,641.343,1745.77,643.399,1745.416,645.921z"/>
			<path style="fill:#FFFFFF;" d="M1774.207,664.027l-0.281-29.084l3.211-0.031l0.045,4.658c1.389-1.755,2.914-3.065,4.574-3.932
				c1.66-0.866,3.476-1.309,5.449-1.328c3.295-0.032,5.844,0.972,7.647,3.011c1.803,2.04,2.724,4.958,2.761,8.756l0.171,17.721
				l-3.211,0.031l-0.156-16.179c-0.034-3.504-0.673-6.116-1.917-7.836c-1.244-1.719-3.105-2.567-5.581-2.543
				c-2.015,0.019-3.83,0.551-5.446,1.595c-1.617,1.044-3.034,2.59-4.252,4.637l0.198,20.491L1774.207,664.027z"/>
			<path style="fill:#FFFFFF;" d="M1809.958,656.536c0.019,1.951,0.298,3.24,0.84,3.864c0.541,0.624,1.504,0.929,2.889,0.916
				c0.713-0.007,1.457-0.134,2.231-0.383c0.774-0.249,1.641-0.63,2.602-1.143l0.031,3.179c-0.899,0.408-1.783,0.715-2.651,0.923
				c-0.869,0.207-1.744,0.316-2.625,0.324c-2.414,0.023-4.119-0.537-5.116-1.682c-0.998-1.144-1.51-3.154-1.538-6.029l-0.185-19.169
				l-6.201,0.06l-0.026-2.707l6.327-0.061l-0.064-6.642l2.428-2.856l0.756-0.007l0.092,9.474l7.806-0.075l0.026,2.707l-7.806,0.075
				L1809.958,656.536z"/>
		</g>
		<g>
			<g>
				<g>
					<g>
						<g>
							<g>
								<g>
									<path style="fill:#FFA8B2;" d="M1769.647,712.724c0.205,0.82,44.31,38.473,44.31,38.473l-11.991-40.666L1769.647,712.724z"
										/>
								</g>
							</g>
						</g>
					</g>
				</g>
			</g>
		</g>
	</g>
</g>
</svg>
