<?xml version="1.0" encoding="utf-8"?>
<!-- Generator: Adobe Illustrator 27.5.0, SVG Export Plug-In . SVG Version: 6.00 Build 0)  -->
<svg version="1.1" xmlns="http://www.w3.org/2000/svg" xmlns:xlink="http://www.w3.org/1999/xlink" x="0px" y="0px"
	 viewBox="0 0 500 500" style="enable-background:new 0 0 500 500;" xml:space="preserve">
<g id="BACKGROUND">
	<rect style="fill:#FFFFFF;" width="500" height="500"/>
</g>
<g id="OBJECTS">
	<g>
		<g id="_x35__4_">
			<path id="XMLID_32_" style="fill-rule:evenodd;clip-rule:evenodd;fill:#00786E;" d="M99.122,412.96
				c1.275-1.544,1.71-2.814,1.93-3.591c-0.002,0.001-0.006,0.001-0.009,0.002c-0.462,0.038-0.844,0.035-1.118-0.028
				c0.311-0.765,0.725-1.209,1.241-1.779c0.02-0.009,0.039-0.017,0.058-0.026c-0.004,0.001-0.007,0.001-0.01,0.002
				c-0.203,0.034-0.825-0.613-1.021-0.579c0.294-0.757,1.445-1.456,1.55-1.479c0.526-0.13-1.099-0.623-1.086-0.661
				c0.43-1.123,2.055-1.832,2.055-1.832s-1.02-0.566-1.129-0.395c0.407-0.75,1.724-1.457,2.263-1.558
				c0.047-0.011,0.057-0.037,0.036-0.071l0.067-0.013c-0.143-0.154-0.653-0.415-1.12-0.46c0.659-0.727,1.189-1.243,2.256-1.366
				c-0.196-0.252-0.705-0.795-0.966-0.87c0.618-0.853,1.566-1.179,2.498-1.445c-0.131-0.287-0.597-0.72-0.881-0.865
				c0.576-0.707,1.357-0.892,2.136-1.13c-0.054-0.043-0.111-0.103-0.172-0.168c0.112-0.002,0.226,0.001,0.338,0.001
				c-0.113-0.009-0.227-0.02-0.34-0.026c-0.266-0.282-0.594-0.77-0.889-0.845c0.595-0.712,1.547-0.751,2.425-0.962
				c-0.225-0.2-0.617-0.855-0.917-0.983c0.697-0.607,1.579-0.49,2.365-0.766c-0.227-0.137-0.764-0.706-0.842-1.102
				c0.813-0.452,1.354-0.034,2.135-0.306c-0.261-0.176-0.44-0.691-0.736-0.97c0.459-0.315,1.435-0.348,2.133-0.332
				c-0.22-0.273-0.444-0.863-0.721-0.923c0.864-0.704,1.779-0.177,2.424-0.488c-0.283-0.12-0.438-0.424-0.68-0.622
				c1.349-0.982,2.083-0.353,3.09-0.278c-0.172-0.065-0.466-1.172-0.657-1.24c1.122-0.404,1.798-0.142,2.884,0.273
				c-0.256-0.251-0.113-0.865-0.411-1.094c1.015-0.386,2.154,0.292,3.289,0.488c0.022,0.008,0.046,0.016,0.069,0.025
				c-0.191-0.169-0.19-1.435-0.378-1.592c1.091,0.02,2.275,1.079,3.338,1.293c-0.229-0.19-0.118-1.099-0.276-1.365
				c1.291,0.053,1.899,1.089,3.003,1.498c-0.153-0.224-0.007-1.173-0.157-1.396c1.181,0.392,2.213,1.949,3.315,2.537
				c-0.09-0.387-0.469-1.542-0.288-1.956c0.962,0.571,2.026,1.277,2.986,2.042c1.823,1.454,5.554,2.794,8.116,3.316
				c-0.903,2.454-1.724,6.332-1.446,8.648c0.146,1.219,0.187,2.496,0.167,3.614c-0.447-0.064-1.231-0.993-1.513-1.274
				c-0.079,1.247,0.703,2.943,0.415,4.154c-0.11-0.244-0.995-0.62-1.105-0.868c-0.233,1.154,0.329,2.216-0.304,3.342
				c-0.143-0.274-0.975-0.658-1.016-0.953c-0.377,1.016-0.098,2.58-0.655,3.519c-0.035-0.242-1.113-0.907-1.156-1.158
				c-0.005,0.024-0.01,0.048-0.015,0.072c-0.429,1.069-0.452,2.394-1.314,3.055c-0.038-0.374-0.636-0.575-0.714-0.925
				c-0.218,1.143-0.35,1.855-1.284,2.597c0.042-0.198-0.745-1.03-0.71-1.211c-0.466,0.896-0.317,1.851-1.861,2.482
				c-0.041-0.31-0.218-0.602-0.172-0.906c-0.603,0.385-0.637,1.441-1.689,1.806c0.095-0.267-0.289-0.767-0.406-1.098
				c-0.354,0.602-0.895,1.415-1.404,1.64c-0.081-0.398-0.425-0.821-0.438-1.136c-0.642,0.521-0.571,1.202-1.383,1.655
				c-0.295-0.275-0.497-1.03-0.494-1.296c-0.647,0.524-1.012,1.335-1.895,1.609c0.049-0.323-0.303-1.001-0.354-1.297
				c-0.641,0.636-1.175,1.425-2.093,1.557c0.091-0.29-0.151-0.825-0.251-1.2c0.055-0.099,0.104-0.201,0.157-0.302
				c-0.059,0.095-0.117,0.194-0.177,0.288c-0.024-0.086-0.045-0.166-0.053-0.235c-0.612,0.537-1.18,1.104-2.084,1.223
				c0.025-0.318-0.097-0.943-0.273-1.205c-0.716,0.652-1.492,1.287-2.543,1.365c0.073-0.262-0.121-0.98-0.232-1.279
				c-0.665,0.843-1.383,1.022-2.348,1.201c0.207-0.421,0.253-0.992,0.197-1.195l-0.047,0.05c-0.017-0.035-0.045-0.041-0.079-0.007
				c-0.37,0.405-1.663,1.154-2.515,1.106c0.203-0.003,0.257-1.168,0.257-1.168s-1.458,1.009-2.639,0.784
				c-0.039-0.009,0.396-1.651,0.009-1.271c-0.076,0.077-1.275,0.689-2.073,0.541c0.131-0.149-0.092-1.018,0.044-1.173
				c0.002-0.003,0.005-0.005,0.007-0.008c-0.018,0.012-0.035,0.024-0.053,0.036c-0.756,0.139-1.352,0.258-2.166,0.12
				c0.091-0.266,0.289-0.593,0.564-0.966c0.002-0.002,0.004-0.005,0.006-0.007C102.414,412.985,101.105,412.686,99.122,412.96
				L99.122,412.96L99.122,412.96z M136.12,406.08c-0.143,0.689-0.288,1.249-0.395,1.739
				C135.782,407.623,135.948,407.02,136.12,406.08L136.12,406.08L136.12,406.08z M122.738,384.526
				c0.473,0.167,1.025,0.338,1.687,0.578l0,0C123.535,384.756,122.934,384.58,122.738,384.526z"/>
			<g id="XMLID_28_">
				<path id="XMLID_29_" style="fill-rule:evenodd;clip-rule:evenodd;fill:#005144;" d="M156.102,384.183
					c0.23-0.047,0.455,0.101,0.503,0.331c0.047,0.23-0.101,0.455-0.331,0.503c-6.584,1.391-14.906,4.639-22.083,7.85
					c0.704,5.193-0.27,10.291-3.236,14.677l0.209-0.416c2.523-4.89,3.498-8.64,2.7-14.114c-1.511,0.679-2.968,1.355-4.346,2.011
					c0.501,4.261-2.097,10.917-4.542,14.353c-0.43,0.605-0.61,0.8-1.162,1.285c0.435-0.476,0.712-0.807,1.071-1.348
					c2.279-3.431,4.787-9.935,4.304-14.132c-0.617,0.295-1.216,0.585-1.796,0.869c-1.21,0.592-2.434,1.202-3.663,1.832
					c-0.368,4.35-2.694,9.718-5.071,13.261l0.223-0.447c2.083-4.034,4.126-8.036,4.49-12.63c-1.975,1.017-3.961,2.084-5.92,3.208
					c-0.502,3.448-1.45,7.984-3.597,10.773c1.908-3.264,2.721-6.847,3.218-10.555c-1.718,0.994-3.415,2.032-5.064,3.12
					c-0.747,2.552-1.878,5.05-3.26,7.319c0.242-0.605,0.141-0.376,0.411-0.96c1.035-2.23,1.766-3.776,2.412-6.07
					c-2.519,1.682-4.923,3.479-7.122,5.408l-0.511,0.442c1.811-2.049,4.644-4.257,7.767-6.363c-2.447-0.348-4.178-0.293-6.693-0.232
					c-0.643,0.016-0.393,0.014-1.044-0.005c2.683-0.37,5.481-0.405,8.166-0.051c1.612-1.073,3.291-2.116,4.938-3.093
					c-3.618-0.916-7.239-1.492-10.97-0.937c3.407-0.959,8.001-0.136,11.394,0.687c2.113-1.244,4.162-2.375,5.934-3.319
					c-4.235-1.891-8.75-1.996-13.313-2.08l-0.499-0.017c4.289-0.412,10.193,0.106,14.198,1.892c0.321-0.17,0.633-0.333,0.933-0.49
					c1.321-0.687,2.747-1.409,4.249-2.146c-3.386-2.513-10.047-3.745-14.081-3.613c-0.649,0.021-1.076,0.083-1.71,0.202
					c0.703-0.214,0.964-0.265,1.705-0.313c4.14-0.269,11.011,0.975,14.433,3.555c1.379-0.673,2.82-1.358,4.3-2.039
					c-4.255-3.585-7.963-4.733-13.467-5.158l-0.464-0.041c5.331-0.219,10.213,1.662,14.279,5.039
					C141.328,388.869,149.579,385.611,156.102,384.183L156.102,384.183z M117.45,401.274c-0.126,0.072-0.253,0.145-0.379,0.218
					L117.45,401.274z"/>
			</g>
		</g>
		<g id="_x35__1_">
			<path id="XMLID_10_" style="fill-rule:evenodd;clip-rule:evenodd;fill:#00786E;" d="M417.007,394.055
				c-1.99,0.225-3.185,0.838-3.882,1.244c0.003,0.001,0.005,0.003,0.007,0.005c0.359,0.293,0.632,0.561,0.785,0.797
				c-0.755,0.335-1.361,0.367-2.128,0.419c-0.021-0.007-0.04-0.014-0.06-0.022c0.003,0.002,0.006,0.004,0.009,0.006
				c0.17,0.117,0.168,1.014,0.332,1.126c-0.737,0.341-2.05,0.044-2.143-0.012c-0.469-0.272,0.358,1.212,0.323,1.23
				c-1.089,0.509-2.751-0.108-2.751-0.108s0.34,1.116,0.538,1.068c-0.814,0.257-2.252-0.149-2.71-0.451
				c-0.042-0.025-0.067-0.012-0.075,0.026l-0.057-0.037c-0.004,0.21,0.181,0.752,0.486,1.109c-0.979,0.065-1.719,0.069-2.572-0.584
				c-0.034,0.317-0.045,1.061,0.091,1.297c-1.037,0.184-1.946-0.239-2.801-0.694c-0.105,0.297-0.07,0.933,0.033,1.235
				c-0.906,0.109-1.596-0.301-2.321-0.67c0.009,0.068,0.009,0.151,0.007,0.24c-0.082-0.077-0.161-0.158-0.242-0.236
				c0.076,0.085,0.149,0.172,0.227,0.254c-0.004,0.388-0.107,0.966,0.053,1.225c-0.923,0.099-1.635-0.534-2.413-0.992
				c0.023,0.3-0.15,1.044-0.023,1.344c-0.923-0.048-1.477-0.744-2.233-1.091c0.068,0.257,0.059,1.038-0.159,1.378
				c-0.899-0.239-0.998-0.916-1.749-1.263c0.066,0.308-0.163,0.803-0.144,1.209c-0.549-0.092-1.274-0.746-1.766-1.242
				c-0.031,0.35-0.28,0.929-0.122,1.164c-1.11-0.094-1.403-1.108-2.083-1.332c0.12,0.283,0.02,0.609,0.057,0.92
				c-1.652-0.23-1.744-1.193-2.416-1.946c0.079,0.166-0.478,1.167-0.389,1.349c-1.088-0.489-1.392-1.146-1.885-2.2
				c0.01,0.358-0.52,0.701-0.464,1.073c-0.999-0.427-1.348-1.706-2.027-2.635c-0.01-0.021-0.022-0.044-0.033-0.066
				c0.02,0.254-0.86,1.165-0.834,1.408c-0.772-0.772-0.888-2.356-1.504-3.248c0.033,0.296-0.678,0.873-0.749,1.174
				c-0.892-0.935-0.61-2.103-1.12-3.163c-0.045,0.267-0.81,0.849-0.856,1.113c-0.578-1.102-0.239-2.939-0.624-4.128
				c-0.204,0.341-0.733,1.435-1.151,1.608c-0.295-1.079-0.571-2.326-0.731-3.543c-0.302-2.312-2.056-5.867-3.537-8.023
				c2.354-1.139,5.638-3.359,7.045-5.219c0.742-0.978,1.599-1.926,2.389-2.716c0.278,0.357,0.196,1.569,0.204,1.967
				c0.922-0.842,1.538-2.606,2.586-3.277c-0.09,0.253,0.286,1.137,0.193,1.391c0.969-0.669,1.302-1.823,2.54-2.194
				c-0.087,0.296,0.245,1.15,0.07,1.391c0.977-0.469,1.862-1.788,2.915-2.077c-0.143,0.198,0.171,1.425,0.027,1.636
				c0.02-0.014,0.041-0.027,0.061-0.041c1.051-0.471,1.987-1.409,3.066-1.286c-0.233,0.296,0.058,0.855-0.128,1.161
				c0.95-0.671,1.54-1.092,2.727-0.978c-0.168,0.114-0.179,1.259-0.33,1.364c0.957-0.322,1.513-1.112,3.063-0.494
				c-0.186,0.252-0.261,0.585-0.505,0.771c0.701,0.142,1.458-0.595,2.469-0.126c-0.253,0.126-0.324,0.753-0.47,1.072
				c0.673-0.187,1.627-0.397,2.149-0.205c-0.218,0.343-0.264,0.886-0.474,1.122c0.824,0.071,1.245-0.469,2.145-0.231
				c0.022,0.403-0.358,1.086-0.544,1.276c0.829,0.073,1.655-0.258,2.481,0.158c-0.259,0.199-0.477,0.93-0.646,1.179
				c0.904-0.012,1.835-0.21,2.588,0.333c-0.267,0.145-0.464,0.699-0.653,1.038c-0.108,0.033-0.215,0.073-0.323,0.109
				c0.109-0.027,0.218-0.058,0.327-0.085c-0.043,0.078-0.083,0.151-0.125,0.206c0.813,0.038,1.616,0.024,2.349,0.567
				c-0.239,0.212-0.585,0.746-0.64,1.056c0.968,0.028,1.967,0.11,2.777,0.784c-0.234,0.137-0.593,0.789-0.721,1.081
				c1.064-0.145,1.705,0.225,2.523,0.766c-0.441,0.159-0.871,0.538-0.971,0.723l0.068-0.004c-0.012,0.037,0.004,0.06,0.052,0.06
				c0.547-0.035,1.998,0.324,2.578,0.95c-0.148-0.139-0.996,0.661-0.996,0.661s1.75,0.286,2.444,1.268
				c0.022,0.033-1.432,0.913-0.889,0.908c0.108-0.003,1.396,0.39,1.867,1.051c-0.198,0.016-0.641,0.796-0.846,0.813
				c-0.003,0-0.007,0-0.01,0.001c0.022,0.004,0.042,0.007,0.063,0.011c0.64,0.425,1.152,0.753,1.642,1.418
				c-0.25,0.128-0.619,0.226-1.077,0.303c-0.003,0-0.006,0.001-0.009,0.001C414.655,391.751,415.39,392.875,417.007,394.055
				L417.007,394.055L417.007,394.055z M385.607,373.314c0.582-0.397,1.075-0.699,1.492-0.977
				C386.921,372.438,386.383,372.756,385.607,373.314L385.607,373.314L385.607,373.314z M380.268,398.116
				c-0.224-0.448-0.503-0.955-0.812-1.588l0,0C379.854,397.397,380.164,397.94,380.268,398.116z"/>
			<g id="XMLID_6_">
				<path id="XMLID_7_" style="fill-rule:evenodd;clip-rule:evenodd;fill:#005144;" d="M356.023,375.194
					c-0.199-0.126-0.258-0.389-0.132-0.587c0.126-0.198,0.389-0.258,0.587-0.132c5.704,3.571,13.947,7.013,21.341,9.686
					c3.099-4.226,7.341-7.217,12.521-8.314l-0.439,0.154c-5.211,1.766-8.517,3.787-11.744,8.281c1.559,0.56,3.077,1.086,4.523,1.571
					c2.599-3.414,9.091-6.399,13.235-7.173c0.729-0.136,0.995-0.152,1.729-0.118c-0.643,0.041-1.073,0.087-1.707,0.227
					c-4.022,0.886-10.344,3.825-12.911,7.18c0.648,0.216,1.281,0.424,1.896,0.622c1.282,0.414,2.586,0.825,3.908,1.226
					c3.285-2.874,8.687-5.122,12.857-6.021l-0.471,0.167c-4.3,1.456-8.549,2.917-12.001,5.97c2.127,0.64,4.297,1.251,6.488,1.803
					c2.756-2.133,6.588-4.737,10.069-5.254c-3.639,1.024-6.713,3.037-9.645,5.36c1.927,0.478,3.868,0.909,5.811,1.272
					c2.309-1.318,4.858-2.33,7.428-3.003c-0.594,0.267-0.362,0.173-0.962,0.405c-2.294,0.886-3.893,1.491-5.951,2.693
					c2.98,0.539,5.958,0.915,8.88,1.054l0.675,0.037c-2.726,0.217-6.298-0.161-10.008-0.815c1.519,1.949,2.803,3.113,4.655,4.814
					c0.474,0.435,0.293,0.263,0.747,0.729c-2.188-1.597-4.225-3.515-5.911-5.634c-1.905-0.347-3.837-0.763-5.702-1.203
					c1.967,3.172,4.173,6.1,7.243,8.292c-3.117-1.676-5.852-5.458-7.722-8.407c-2.385-0.572-4.644-1.181-6.575-1.733
					c1.734,4.301,4.911,7.512,8.135,10.742l0.348,0.359c-3.373-2.682-7.261-7.155-8.902-11.221c-0.349-0.101-0.687-0.2-1.011-0.296
					c-1.428-0.423-2.955-0.894-4.548-1.407c0.691,4.16,4.629,9.672,7.623,12.378c0.482,0.436,0.832,0.688,1.371,1.042
					c-0.655-0.334-0.878-0.479-1.444-0.958c-3.166-2.681-7.247-8.348-7.917-12.58c-1.46-0.474-2.972-0.981-4.51-1.519
					c0.572,5.534,2.444,8.935,6.108,13.063l0.305,0.352c-3.988-3.544-6.195-8.288-6.775-13.542
					C369.908,382.081,361.707,378.696,356.023,375.194L356.023,375.194z M395.704,389.737c0.141,0.036,0.283,0.071,0.424,0.106
					L395.704,389.737z"/>
			</g>
		</g>
		<g id="_x35__2_">
			<path id="XMLID_18_" style="fill-rule:evenodd;clip-rule:evenodd;fill:#00786E;" d="M449.001,340.867
				c-0.697,0.964-0.906,1.734-1.007,2.203c0.001-0.001,0.003-0.001,0.005-0.001c0.273-0.04,0.499-0.053,0.664-0.026
				c-0.155,0.465-0.383,0.745-0.667,1.102c-0.011,0.006-0.022,0.012-0.034,0.018c0.002,0,0.004-0.001,0.006-0.002
				c0.119-0.028,0.513,0.332,0.627,0.304c-0.145,0.46-0.801,0.918-0.862,0.936c-0.307,0.097,0.676,0.327,0.669,0.35
				c-0.212,0.682-1.148,1.165-1.148,1.165s0.626,0.297,0.684,0.191c-0.213,0.46-0.966,0.93-1.282,1.01
				c-0.027,0.008-0.032,0.024-0.019,0.043l-0.039,0.01c0.091,0.086,0.403,0.221,0.681,0.23c-0.363,0.456-0.657,0.783-1.285,0.896
				c0.126,0.142,0.448,0.444,0.606,0.479c-0.334,0.529-0.884,0.759-1.425,0.953c0.088,0.165,0.382,0.404,0.556,0.479
				c-0.314,0.441-0.771,0.581-1.223,0.752c0.034,0.023,0.07,0.057,0.108,0.093c-0.066,0.005-0.134,0.008-0.201,0.012
				c0.067,0.001,0.135,0.003,0.202,0.002c0.169,0.157,0.382,0.433,0.559,0.467c-0.326,0.445-0.888,0.504-1.401,0.663
				c0.141,0.11,0.398,0.483,0.581,0.548c-0.39,0.386-0.917,0.351-1.373,0.544c0.14,0.073,0.48,0.389,0.541,0.621
				c-0.464,0.299-0.802,0.072-1.254,0.263c0.162,0.094,0.288,0.393,0.473,0.547c-0.26,0.204-0.837,0.261-1.252,0.279
				c0.141,0.154,0.296,0.495,0.462,0.52c-0.485,0.45-1.048,0.173-1.418,0.382c0.172,0.06,0.276,0.235,0.427,0.343
				c-0.762,0.634-1.221,0.289-1.821,0.283c0.104,0.032,0.321,0.677,0.437,0.71c-0.65,0.282-1.06,0.153-1.72-0.052
				c0.161,0.139,0.1,0.509,0.286,0.633c-0.587,0.268-1.288-0.09-1.969-0.164c-0.014-0.004-0.028-0.008-0.042-0.012
				c0.12,0.093,0.168,0.844,0.285,0.929c-0.648,0.03-1.39-0.553-2.028-0.639c0.143,0.104,0.112,0.647,0.216,0.799
				c-0.767,0.018-1.168-0.573-1.838-0.773c0.099,0.127,0.049,0.695,0.147,0.822c-0.715-0.187-1.387-1.071-2.063-1.377
				c0.068,0.226,0.337,0.896,0.246,1.149c-0.592-0.302-1.25-0.68-1.849-1.096c-1.137-0.792-3.4-1.444-4.939-1.655
				c0.441-1.49,0.78-3.82,0.526-5.182c-0.133-0.717-0.206-1.473-0.237-2.136c0.268,0.021,0.768,0.542,0.946,0.697
				c-0.001-0.742-0.529-1.718-0.405-2.447c0.075,0.141,0.614,0.329,0.688,0.472c0.094-0.693-0.28-1.301,0.052-1.993
				c0.095,0.157,0.603,0.353,0.639,0.526c0.185-0.617-0.041-1.533,0.254-2.111c0.03,0.142,0.694,0.495,0.729,0.642
				c0.002-0.014,0.004-0.029,0.006-0.043c0.214-0.65,0.176-1.436,0.662-1.861c0.037,0.221,0.399,0.317,0.459,0.521
				c0.085-0.686,0.137-1.113,0.661-1.589c-0.017,0.119,0.481,0.582,0.467,0.691c0.242-0.549,0.117-1.11,1.008-1.543
				c0.036,0.182,0.152,0.348,0.137,0.53c0.343-0.251,0.322-0.878,0.932-1.135c-0.046,0.162,0.201,0.444,0.283,0.635
				c0.187-0.37,0.476-0.873,0.77-1.026c0.063,0.233,0.284,0.47,0.303,0.657c0.361-0.333,0.293-0.734,0.757-1.034
				c0.186,0.152,0.334,0.592,0.343,0.749c0.364-0.335,0.549-0.83,1.062-1.027c-0.016,0.193,0.218,0.582,0.26,0.755
				c0.356-0.402,0.642-0.89,1.181-1.004c-0.043,0.176,0.121,0.484,0.195,0.702c-0.029,0.061-0.054,0.123-0.081,0.185
				c0.031-0.059,0.062-0.119,0.094-0.178c0.017,0.05,0.033,0.097,0.04,0.137c0.342-0.342,0.657-0.7,1.189-0.805
				c-0.003,0.19,0.094,0.555,0.208,0.704c0.399-0.414,0.835-0.82,1.455-0.906c-0.033,0.158,0.109,0.576,0.187,0.749
				c0.362-0.525,0.781-0.659,1.346-0.802c-0.107,0.258-0.112,0.598-0.071,0.716l0.026-0.031c0.012,0.02,0.028,0.022,0.047,0.001
				c0.203-0.254,0.941-0.748,1.448-0.752c-0.12,0.009-0.108,0.702-0.108,0.702s0.826-0.654,1.535-0.566
				c0.023,0.004-0.172,0.994,0.043,0.754c0.042-0.048,0.729-0.457,1.208-0.4c-0.072,0.093,0.093,0.6,0.019,0.697
				c-0.001,0.002-0.003,0.003-0.004,0.005c0.01-0.008,0.02-0.016,0.03-0.023c0.443-0.111,0.792-0.204,1.279-0.154
				c-0.044,0.161-0.149,0.363-0.297,0.594c-0.001,0.001-0.002,0.003-0.003,0.004C447.048,340.978,447.836,341.105,449.001,340.867
				L449.001,340.867L449.001,340.867z M427.33,346.363c0.058-0.414,0.123-0.752,0.167-1.046
				C427.471,345.435,427.396,345.799,427.33,346.363L427.33,346.363L427.33,346.363z M436.089,358.629
				c-0.287-0.081-0.621-0.161-1.022-0.278l0,0C435.608,358.523,435.97,358.604,436.089,358.629z"/>
			<g id="XMLID_14_">
				<path id="XMLID_15_" style="fill-rule:evenodd;clip-rule:evenodd;fill:#005144;" d="M416.322,360.11
					c-0.135,0.037-0.274-0.042-0.311-0.177c-0.037-0.135,0.042-0.274,0.177-0.311c3.85-1.077,8.66-3.321,12.791-5.5
					c-0.616-3.052-0.234-6.112,1.357-8.826l-0.108,0.255c-1.309,2.995-1.743,5.256-1.06,8.471c0.87-0.46,1.708-0.917,2.499-1.358
					c-0.46-2.507,0.825-6.553,2.143-8.683c0.232-0.375,0.331-0.498,0.64-0.807c-0.239,0.299-0.391,0.506-0.583,0.84
					c-1.22,2.121-2.458,6.073-2.01,8.543c0.354-0.198,0.699-0.393,1.032-0.584c0.695-0.397,1.397-0.806,2.101-1.226
					c0.052-2.593,1.225-5.865,2.499-8.056l-0.115,0.274c-1.08,2.471-2.138,4.922-2.178,7.66c1.132-0.678,2.268-1.387,3.387-2.129
					c0.165-2.064,0.554-4.789,1.72-6.525c-1.006,2.008-1.351,4.163-1.503,6.381c0.981-0.655,1.947-1.336,2.883-2.043
					c0.345-1.541,0.92-3.066,1.652-4.464c-0.12,0.368-0.069,0.228-0.207,0.585c-0.528,1.362-0.902,2.306-1.198,3.691
					c1.429-1.094,2.785-2.251,4.015-3.479l0.286-0.281c-0.995,1.284-2.59,2.702-4.361,4.07c1.464,0.112,2.488,0.014,3.977-0.119
					c0.381-0.034,0.232-0.024,0.619-0.037c-1.576,0.322-3.234,0.45-4.839,0.343c-0.914,0.698-1.87,1.38-2.809,2.023
					c2.18,0.405,4.349,0.607,6.539,0.136c-1.983,0.699-4.738,0.387-6.781,0.029c-1.205,0.818-2.376,1.568-3.391,2.195
					c2.583,0.959,5.264,0.848,7.973,0.723l0.297-0.009c-2.527,0.409-6.047,0.327-8.49-0.578c-0.184,0.113-0.362,0.222-0.534,0.326
					c-0.757,0.458-1.575,0.941-2.437,1.435c2.104,1.36,6.1,1.836,8.486,1.603c0.384-0.037,0.635-0.09,1.006-0.185
					c-0.409,0.154-0.561,0.194-0.999,0.251c-2.444,0.318-6.566-0.156-8.693-1.555c-0.792,0.452-1.62,0.913-2.471,1.374
					c2.66,1.962,4.902,2.501,8.181,2.542l0.277,0.007c-3.152,0.334-6.118-0.594-8.658-2.441
					C424.901,356.766,420.134,359.013,416.322,360.11L416.322,360.11z M438.583,348.497c0.072-0.048,0.144-0.096,0.216-0.144
					L438.583,348.497z"/>
			</g>
		</g>
		<g style="opacity:0.2;">
			<circle style="fill:#00D6FF;" cx="395.928" cy="238.969" r="8.504"/>
			<path style="fill:#00D6FF;" d="M418.89,220.542c0,1.253-1.015,2.268-2.268,2.268s-2.268-1.015-2.268-2.268
				s1.015-2.268,2.268-2.268S418.89,219.29,418.89,220.542z"/>
			<path style="fill:#00D6FF;" d="M421.158,246.623c0,1.879-1.523,3.402-3.402,3.402c-1.879,0-3.402-1.523-3.402-3.402
				c0-1.879,1.523-3.402,3.402-3.402C419.634,243.221,421.158,244.744,421.158,246.623z"/>
			<circle style="fill:#00D6FF;" cx="354.822" cy="155.341" r="13.324"/>
			<circle style="fill:#00D6FF;" cx="386.289" cy="156.759" r="3.402"/>
			<path style="fill:#00D6FF;" d="M405.849,144.852c0,1.253-1.015,2.268-2.268,2.268c-1.253,0-2.268-1.015-2.268-2.268
				c0-1.253,1.015-2.268,2.268-2.268C404.834,142.585,405.849,143.6,405.849,144.852z"/>
			<circle style="fill:#00D6FF;" cx="435.332" cy="186.241" r="3.118"/>
			<circle style="fill:#00D6FF;" cx="401.597" cy="275.822" r="5.103"/>
			<circle style="fill:#00D6FF;" cx="419.173" cy="263.632" r="1.701"/>
			<circle style="fill:#00D6FF;" cx="382.887" cy="262.498" r="9.922"/>
			<circle style="fill:#00D6FF;" cx="433.631" cy="289.429" r="1.417"/>
			<path style="fill:#00D6FF;" d="M453.475,236.417c0,1.253-1.015,2.268-2.268,2.268c-1.253,0-2.268-1.015-2.268-2.268
				s1.015-2.268,2.268-2.268C452.459,234.15,453.475,235.165,453.475,236.417z"/>
			<path style="fill:#00D6FF;" d="M427.111,330.817c0,1.096-0.888,1.984-1.984,1.984c-1.096,0-1.984-0.888-1.984-1.984
				c0-1.096,0.889-1.984,1.984-1.984C426.222,328.833,427.111,329.721,427.111,330.817z"/>
			<circle style="fill:#00D6FF;" cx="408.684" cy="303.887" r="8.221"/>
			<g>
				<path style="fill:#00D6FF;" d="M257.961,104.485c-19.847-15.236-36.307-18.98-49.828-9.189
					c-13.521,9.79-12.164,46.565-23.303,54.186c-8.155,5.579-18.627,6.028-28.484,6.714c-14.913,1.038-29.987,3.109-43.685,9.096
					c-13.697,5.987-26.008,16.323-31.706,30.143c-5.699,13.82-3.639,31.231,7.1,41.629c9.151,8.86,23.239,11.964,30.789,22.222
					c7.791,10.586,6.106,25.052,5.955,38.195c-0.239,20.831,4.66,42.34,17.453,58.782c12.793,16.442,34.374,26.827,54.812,22.793
					c19.262-3.802,35.703-19.392,55.327-18.765c19.412,0.62,34.653,16.859,53.28,22.36c23.145,6.836,60.397-5.86,79.713-20.328
					c18.799-14.081,25.54-27.057,22.83-55.94c-1.499-15.979-25.115-34.974-25.106-51.023c0.009-15.94,13.402-29.585,23.011-42.988
					c9.114-12.711,11.632-29.08-2.023-40.712c-8.008-6.822-23.021-5.47-33.52-4.806c-10.499,0.663-22.512-0.254-29.135-8.427
					c-7.448-9.193,6.731-32.893-11.512-49.331C311.686,92.658,287.995,127.542,257.961,104.485z"/>
			</g>
			
				<ellipse transform="matrix(0.2307 -0.973 0.973 0.2307 18.1551 284.5998)" style="fill:#00D6FF;" cx="189.067" cy="130.818" rx="9.913" ry="9.913"/>
			
				<ellipse transform="matrix(0.1592 -0.9872 0.9872 0.1592 -19.6106 265.9552)" style="fill:#00D6FF;" cx="146.339" cy="144.491" rx="19.142" ry="19.142"/>
			<path style="fill:#00D6FF;" d="M171.976,110.308c0,2.265-1.837,4.102-4.102,4.102s-4.102-1.837-4.102-4.102
				c0-2.265,1.837-4.102,4.102-4.102S171.976,108.043,171.976,110.308z"/>
			<path style="fill:#00D6FF;" d="M193.169,101.421c0,1.699-1.377,3.076-3.076,3.076c-1.699,0-3.076-1.377-3.076-3.076
				c0-1.699,1.377-3.076,3.076-3.076C191.792,98.344,193.169,99.722,193.169,101.421z"/>
			<path style="fill:#00D6FF;" d="M145.997,115.436c0,1.888-1.531,3.418-3.418,3.418c-1.888,0-3.418-1.53-3.418-3.418
				c0-1.888,1.53-3.418,3.418-3.418C144.467,112.018,145.997,113.548,145.997,115.436z"/>
			<circle style="fill:#00D6FF;" cx="156.252" cy="93.901" r="1.367"/>
			<path style="fill:#00D6FF;" d="M131.982,97.319c0,1.322-1.071,2.393-2.393,2.393s-2.393-1.071-2.393-2.393
				s1.071-2.393,2.393-2.393S131.982,95.997,131.982,97.319z"/>
			<path style="fill:#00D6FF;" d="M103.61,145.517c0,1.133-0.918,2.051-2.051,2.051c-1.133,0-2.051-0.918-2.051-2.051
				s0.918-2.051,2.051-2.051C102.692,143.466,103.61,144.384,103.61,145.517z"/>
			<path style="fill:#00D6FF;" d="M113.182,126.374c0,3.587-2.908,6.495-6.495,6.495c-3.587,0-6.495-2.908-6.495-6.495
				s2.908-6.495,6.495-6.495C110.274,119.88,113.182,122.787,113.182,126.374z"/>
			<circle style="fill:#00D6FF;" cx="96.09" cy="249.09" r="12.648"/>
			<path style="fill:#00D6FF;" d="M115.233,281.222c0,2.265-1.837,4.102-4.102,4.102c-2.265,0-4.102-1.837-4.102-4.102
				c0-2.265,1.836-4.102,4.102-4.102C113.396,277.12,115.233,278.957,115.233,281.222z"/>
			<circle style="fill:#00D6FF;" cx="82.075" cy="288.4" r="9.913"/>
			<circle style="fill:#00D6FF;" cx="124.804" cy="305.833" r="14.699"/>
			<path style="fill:#00D6FF;" d="M98.141,319.507c0,2.454-1.99,4.444-4.444,4.444s-4.444-1.99-4.444-4.444s1.99-4.444,4.444-4.444
				S98.141,317.052,98.141,319.507z"/>
			<circle style="fill:#00D6FF;" cx="94.381" cy="267.891" r="2.393"/>
			<path style="fill:#00D6FF;" d="M70.111,265.498c0,1.699-1.377,3.077-3.076,3.077c-1.699,0-3.076-1.377-3.076-3.077
				s1.377-3.076,3.076-3.076C68.734,262.422,70.111,263.799,70.111,265.498z"/>
			<circle style="fill:#00D6FF;" cx="48.918" cy="309.935" r="2.393"/>
			<path style="fill:#00D6FF;" d="M102.243,342.409c0,2.265-1.836,4.102-4.102,4.102c-2.265,0-4.102-1.836-4.102-4.102
				s1.837-4.102,4.102-4.102C100.407,338.307,102.243,340.144,102.243,342.409z"/>
			<path style="fill:#00D6FF;" d="M126.171,362.235c0,1.888-1.53,3.418-3.418,3.418c-1.888,0-3.418-1.53-3.418-3.418
				c0-1.888,1.531-3.418,3.418-3.418C124.641,358.817,126.171,360.347,126.171,362.235z"/>
			
				<ellipse transform="matrix(0.7071 -0.7071 0.7071 0.7071 -203.0312 189.1882)" style="fill:#00D6FF;" cx="126.855" cy="339.674" rx="9.571" ry="9.571"/>
			<path style="fill:#00D6FF;" d="M100.192,377.959c0,1.699-1.377,3.076-3.076,3.076c-1.699,0-3.076-1.377-3.076-3.076
				c0-1.699,1.377-3.076,3.076-3.076C98.815,374.883,100.192,376.26,100.192,377.959z"/>
			<path style="fill:#00D6FF;" d="M63.617,351.98c0,0.378-0.306,0.684-0.684,0.684c-0.378,0-0.684-0.306-0.684-0.684
				c0-0.378,0.306-0.684,0.684-0.684C63.311,351.297,63.617,351.603,63.617,351.98z"/>
			<path style="fill:#00D6FF;" d="M57.122,188.587c0,1.888-1.53,3.418-3.418,3.418c-1.888,0-3.418-1.53-3.418-3.418
				c0-1.888,1.53-3.418,3.418-3.418C55.592,185.169,57.122,186.699,57.122,188.587z"/>
			<circle style="fill:#00D6FF;" cx="272.473" cy="82.279" r="2.393"/>
			<circle style="fill:#00D6FF;" cx="337.42" cy="72.024" r="1.709"/>
			<path style="fill:#00D6FF;" d="M414.673,160.215c0,0.566-0.459,1.026-1.026,1.026c-0.566,0-1.025-0.459-1.025-1.026
				c0-0.566,0.459-1.025,1.025-1.025C414.214,159.19,414.673,159.649,414.673,160.215z"/>
		</g>
		<g>
			
				<linearGradient id="SVGID_1_" gradientUnits="userSpaceOnUse" x1="336.4505" y1="366.3597" x2="302.4216" y2="393.361" gradientTransform="matrix(0.9909 0.135 -0.135 0.9909 116.9187 -52.2681)">
				<stop  offset="0" style="stop-color:#00D4C2"/>
				<stop  offset="1" style="stop-color:#009F85"/>
			</linearGradient>
			<path style="fill:url(#SVGID_1_);" d="M368.384,376.69c2.297-21.414,13.02-29.475,42.33-25.691
				C400.002,388.135,368.384,376.69,368.384,376.69z"/>
			<g>
				<path style="fill:#1D746B;" d="M401.104,356.417c-2.491,2.07-5.094,3.959-7.737,5.784c-2.636,1.836-5.338,3.565-8.053,5.273
					c-2.737,1.673-5.488,3.324-8.305,4.867c-2.81,1.555-5.661,3.044-8.625,4.35c2.489-2.072,5.092-3.962,7.735-5.786
					c2.636-1.836,5.338-3.564,8.055-5.27c2.738-1.671,5.489-3.321,8.307-4.864C395.292,359.216,398.142,357.725,401.104,356.417z"/>
			</g>
		</g>
		<g id="_x35__5_">
			<path id="XMLID_40_" style="fill-rule:evenodd;clip-rule:evenodd;fill:#00786E;" d="M259.115,53.041
				c0.496,1.94,1.267,3.039,1.766,3.674c0-0.003,0.002-0.005,0.004-0.008c0.241-0.396,0.469-0.703,0.681-0.887
				c0.435,0.702,0.55,1.298,0.707,2.05c-0.004,0.022-0.009,0.041-0.013,0.063c0.001-0.003,0.003-0.006,0.004-0.01
				c0.092-0.184,0.981-0.306,1.069-0.484c0.439,0.683,0.325,2.025,0.283,2.124c-0.205,0.502,1.151-0.521,1.173-0.489
				c0.654,1.009,0.271,2.74,0.271,2.74s1.058-0.491,0.984-0.68c0.366,0.771,0.162,2.251-0.074,2.746
				c-0.019,0.045-0.003,0.068,0.036,0.071l-0.029,0.062c0.209-0.025,0.72-0.283,1.031-0.634c0.199,0.961,0.305,1.693-0.225,2.628
				c0.319-0.01,1.057-0.102,1.272-0.268c0.325,1.002,0.03,1.96-0.303,2.87c0.309,0.064,0.933-0.059,1.218-0.202
				c0.232,0.882-0.079,1.622-0.345,2.392c0.066-0.018,0.149-0.029,0.237-0.04c-0.065,0.091-0.134,0.182-0.2,0.273
				c0.074-0.087,0.15-0.171,0.221-0.259c0.384-0.049,0.972-0.027,1.206-0.221c0.225,0.901-0.304,1.692-0.651,2.527
				c0.294-0.064,1.054,0.005,1.335-0.162c0.08,0.921-0.534,1.565-0.774,2.362c0.245-0.102,1.02-0.201,1.386-0.032
				c-0.113,0.923-0.77,1.114-1.01,1.906c0.296-0.108,0.818,0.051,1.217-0.024c-0.015,0.557-0.564,1.365-0.988,1.92
				c0.35-0.017,0.959,0.15,1.17-0.039c0.06,1.112-0.905,1.542-1.033,2.246c0.264-0.158,0.601-0.104,0.904-0.183
				c-0.001,1.668-0.942,1.891-1.595,2.661c0.154-0.101,1.221,0.313,1.389,0.2c-0.335,1.145-0.944,1.537-1.92,2.17
				c0.353-0.059,0.765,0.419,1.126,0.312c-0.286,1.048-1.504,1.569-2.332,2.37c-0.02,0.013-0.04,0.028-0.061,0.041
				c0.249-0.055,1.272,0.692,1.509,0.632c-0.659,0.87-2.212,1.203-3.01,1.936c0.288-0.074,0.958,0.552,1.266,0.581
				c-0.803,1.012-1.999,0.893-2.98,1.545c0.271,0.008,0.953,0.685,1.221,0.695c-1.012,0.724-2.879,0.641-4.003,1.185
				c0.366,0.155,1.523,0.529,1.751,0.919c-1.028,0.441-2.225,0.885-3.409,1.211c-2.249,0.617-5.529,2.843-7.46,4.606
				c-1.452-2.175-4.102-5.123-6.137-6.261c-1.071-0.6-2.127-1.319-3.019-1.993c0.315-0.324,1.528-0.41,1.92-0.472
				c-0.961-0.798-2.792-1.166-3.602-2.111c0.263,0.055,1.087-0.439,1.352-0.382c-0.796-0.868-1.985-1.039-2.522-2.214
				c0.305,0.046,1.106-0.401,1.368-0.26c-0.599-0.903-2.027-1.599-2.458-2.602c0.216,0.115,1.388-0.365,1.617-0.252
				c-0.016-0.018-0.033-0.037-0.049-0.055c-0.611-0.976-1.669-1.775-1.695-2.861c0.325,0.19,0.839-0.175,1.168-0.032
				c-0.795-0.849-1.293-1.376-1.343-2.567c0.136,0.151,1.271,0.005,1.396,0.139c-0.45-0.904-1.31-1.346-0.91-2.966
				c0.275,0.15,0.615,0.178,0.833,0.394c0.044-0.714-0.789-1.363-0.464-2.429c0.16,0.234,0.79,0.218,1.127,0.318
				c-0.278-0.64-0.617-1.557-0.498-2.101c0.37,0.169,0.914,0.14,1.176,0.315c-0.043-0.826-0.635-1.169-0.523-2.092
				c0.396-0.077,1.125,0.205,1.338,0.364c-0.042-0.832-0.483-1.604-0.185-2.479c0.232,0.229,0.987,0.344,1.257,0.477
				c-0.137-0.893-0.46-1.789-0.026-2.609c0.181,0.244,0.756,0.364,1.118,0.504c0.048,0.103,0.101,0.203,0.152,0.305
				c-0.042-0.104-0.088-0.208-0.129-0.313c0.083,0.031,0.161,0.062,0.221,0.096c-0.074-0.811-0.198-1.604,0.239-2.404
				c0.242,0.208,0.819,0.477,1.134,0.489c-0.106-0.963-0.161-1.964,0.394-2.859c0.169,0.213,0.863,0.479,1.17,0.566
				c-0.29-1.034-0.012-1.72,0.412-2.605c0.219,0.415,0.652,0.788,0.849,0.863l-0.013-0.067c0.039,0.007,0.059-0.012,0.052-0.06
				c-0.11-0.537,0.046-2.023,0.587-2.684c-0.118,0.166,0.792,0.896,0.792,0.896s0.043-1.773,0.92-2.595
				c0.03-0.026,1.101,1.293,1.022,0.756c-0.018-0.106,0.194-1.436,0.784-1.994c0.043,0.194,0.876,0.525,0.922,0.726
				c0.001,0.003,0.001,0.007,0.002,0.01c0.001-0.022,0.001-0.042,0.002-0.064c0.333-0.693,0.588-1.244,1.179-1.821
				c0.161,0.23,0.309,0.582,0.448,1.025c0.001,0.003,0.002,0.006,0.002,0.009C257.155,55.688,258.168,54.805,259.115,53.041
				L259.115,53.041L259.115,53.041z M242.885,86.994c-0.473-0.521-0.84-0.969-1.173-1.343
				C241.837,85.812,242.227,86.302,242.885,86.994L242.885,86.994L242.885,86.994z M268.186,88.873
				c-0.413,0.284-0.877,0.63-1.461,1.023l0,0C267.53,89.382,268.026,89,268.186,88.873z"/>
			<g id="XMLID_36_">
				<path id="XMLID_37_" style="fill-rule:evenodd;clip-rule:evenodd;fill:#005144;" d="M248.813,116.039
					c-0.097,0.214-0.349,0.308-0.563,0.211c-0.214-0.097-0.309-0.35-0.211-0.563c2.753-6.141,5.03-14.779,6.661-22.47
					c-4.612-2.489-8.158-6.279-9.956-11.26l0.213,0.414c2.466,4.919,4.922,7.915,9.817,10.494c0.341-1.621,0.653-3.197,0.934-4.696
					c-3.738-2.105-7.588-8.125-8.924-12.124c-0.235-0.704-0.287-0.964-0.354-1.697c0.129,0.632,0.233,1.05,0.459,1.66
					c1.431,3.862,5.21,9.72,8.887,11.802c0.125-0.672,0.244-1.327,0.356-1.963c0.234-1.327,0.462-2.675,0.677-4.039
					c-3.299-2.859-6.268-7.9-7.731-11.908l0.23,0.444c2.033,4.059,4.064,8.067,7.563,11.067c0.342-2.195,0.648-4.428,0.894-6.674
					c-2.492-2.436-5.598-5.874-6.588-9.251c1.514,3.464,3.931,6.232,6.635,8.817c0.209-1.974,0.368-3.957,0.462-5.93
					c-1.623-2.106-2.976-4.492-3.995-6.945c0.346,0.552,0.221,0.335,0.533,0.898c1.192,2.15,2.012,3.652,3.485,5.524
					c0.124-3.026,0.088-6.028-0.176-8.941l-0.056-0.674c0.59,2.67,0.706,6.26,0.568,10.025c1.722-1.773,2.698-3.204,4.129-5.272
					c0.366-0.529,0.22-0.326,0.619-0.841c-1.281,2.386-2.901,4.668-4.768,6.629c-0.082,1.934-0.228,3.905-0.408,5.813
					c2.871-2.384,5.469-4.972,7.218-8.313c-1.232,3.318-4.602,6.547-7.266,8.804c-0.239,2.441-0.531,4.762-0.813,6.75
					c4.022-2.309,6.766-5.896,9.522-9.534l0.307-0.394c-2.193,3.709-6.089,8.175-9.891,10.36c-0.052,0.36-0.103,0.708-0.154,1.042
					c-0.222,1.472-0.479,3.05-0.769,4.698c4.025-1.257,8.944-5.914,11.213-9.252c0.365-0.537,0.567-0.919,0.844-1.501
					c-0.241,0.695-0.354,0.935-0.751,1.562c-2.221,3.505-7.273,8.325-11.373,9.571c-0.268,1.511-0.564,3.079-0.885,4.676
					c5.403-1.327,8.515-3.648,12.1-7.846l0.306-0.351c-2.963,4.437-7.358,7.275-12.482,8.572
					C253.727,101.339,251.501,109.927,248.813,116.039L248.813,116.039z M257.765,74.736c0.016-0.145,0.031-0.29,0.047-0.435
					L257.765,74.736z"/>
			</g>
		</g>
		<g>
			
				<linearGradient id="SVGID_00000036965852457013470200000005547010700606915471_" gradientUnits="userSpaceOnUse" x1="834.1373" y1="-5136.0146" x2="790.2909" y2="-5101.2236" gradientTransform="matrix(-0.0025 -1 1 -0.0025 5356.5864 887.6935)">
				<stop  offset="0" style="stop-color:#00D4C2"/>
				<stop  offset="1" style="stop-color:#009F85"/>
			</linearGradient>
			<path style="fill:url(#SVGID_00000036965852457013470200000005547010700606915471_);" d="M250.412,104.196
				c-27.736,0.86-39.922-11.397-40.282-49.473C259.421,61.818,250.412,104.196,250.412,104.196z"/>
			<g>
				<path style="fill:#1D746B;" d="M218.746,66.028c3.083,2.812,5.954,5.8,8.751,8.85c2.81,3.039,5.495,6.181,8.155,9.344
					l3.902,4.818c1.26,1.64,2.56,3.246,3.779,4.919c2.482,3.311,4.887,6.686,7.079,10.237c-3.086-2.81-5.958-5.797-8.754-8.847
					c-1.419-1.507-2.758-3.082-4.137-4.623l-4.015-4.724c-2.618-3.199-5.211-6.417-7.678-9.74
					C223.347,72.95,220.941,69.577,218.746,66.028z"/>
			</g>
		</g>
		<g>
			
				<linearGradient id="SVGID_00000166656356249810692130000007271547948679389851_" gradientUnits="userSpaceOnUse" x1="-212.1816" y1="-345.1209" x2="-239.9517" y2="-323.0859" gradientTransform="matrix(0.9992 -0.0411 0.0411 0.9992 510.7823 413.2625)">
				<stop  offset="0" style="stop-color:#00D4C2"/>
				<stop  offset="1" style="stop-color:#009F85"/>
			</linearGradient>
			<path style="fill:url(#SVGID_00000166656356249810692130000007271547948679389851_);" d="M261.444,98.269
				c-1.223-17.533,6.236-25.546,30.325-26.705C288.485,102.933,261.444,98.269,261.444,98.269z"/>
			<g>
				<path style="fill:#1D746B;" d="M284.825,77.293c-1.704,2.02-3.525,3.91-5.387,5.755c-1.854,1.853-3.778,3.629-5.715,5.39
					c-1.959,1.736-3.932,3.456-5.975,5.1c-2.035,1.652-4.112,3.257-6.306,4.731c1.703-2.022,3.523-3.913,5.385-5.757
					c1.855-1.853,3.778-3.629,5.716-5.388c1.96-1.735,3.934-3.455,5.976-5.098C280.556,80.375,282.633,78.769,284.825,77.293z"/>
			</g>
		</g>
		<g>
			
				<linearGradient id="SVGID_00000183954307841804590070000005181956241034902963_" gradientUnits="userSpaceOnUse" x1="846.4189" y1="-5168.4814" x2="828.6123" y2="-5154.3525" gradientTransform="matrix(-0.0025 -1 1 -0.0025 5356.5864 887.6935)">
				<stop  offset="0" style="stop-color:#00D4C2"/>
				<stop  offset="1" style="stop-color:#009F85"/>
			</linearGradient>
			<path style="fill:url(#SVGID_00000183954307841804590070000005181956241034902963_);" d="M198.954,69.547
				c-11.264,0.349-16.213-4.629-16.359-20.091C202.613,52.337,198.954,69.547,198.954,69.547z"/>
			<g>
				<path style="fill:#1D746B;" d="M186.094,54.046c2.486,2.299,4.708,4.817,6.866,7.389c2.131,2.594,4.196,5.242,5.994,8.112
					c-2.488-2.297-4.71-4.816-6.866-7.389C189.959,59.563,187.895,56.914,186.094,54.046z"/>
			</g>
		</g>
		<g>
			
				<linearGradient id="SVGID_00000082358984011655285530000011280897459313494973_" gradientUnits="userSpaceOnUse" x1="-410.6771" y1="-809.3698" x2="-423.3812" y2="-799.2894" gradientTransform="matrix(0.9821 -0.1883 0.1883 0.9821 844.7845 765.1851)">
				<stop  offset="0" style="stop-color:#00D4C2"/>
				<stop  offset="1" style="stop-color:#009F85"/>
			</linearGradient>
			<path style="fill:url(#SVGID_00000082358984011655285530000011280897459313494973_);" d="M280.012,58.758
				c-1.738-7.85,1.095-11.979,11.915-14.132C292.562,59.041,280.012,58.758,280.012,58.758z"/>
			<g>
				<path style="fill:#1D746B;" d="M289.173,47.688c-1.282,2.048-2.753,3.939-4.269,5.793c-1.535,1.838-3.118,3.636-4.891,5.278
					c1.28-2.049,2.751-3.94,4.269-5.793C285.818,51.129,287.401,49.33,289.173,47.688z"/>
			</g>
		</g>
		<g>
			
				<linearGradient id="SVGID_00000119075826247535026960000010551596664625542039_" gradientUnits="userSpaceOnUse" x1="364.185" y1="355.0317" x2="330.156" y2="382.033" gradientTransform="matrix(-0.9909 0.135 0.135 0.9909 435.8837 -52.2681)">
				<stop  offset="0" style="stop-color:#00D4C2"/>
				<stop  offset="1" style="stop-color:#009F85"/>
			</linearGradient>
			<path style="fill:url(#SVGID_00000119075826247535026960000010551596664625542039_);" d="M155.407,369.209
				c-2.297-21.414-13.02-29.475-42.33-25.691C123.789,380.655,155.407,369.209,155.407,369.209z"/>
			<g>
				<path style="fill:#1D746B;" d="M122.687,348.936c2.963,1.309,5.813,2.799,8.623,4.353c2.818,1.543,5.569,3.193,8.307,4.864
					c2.717,1.706,5.419,3.434,8.055,5.27c2.643,1.824,5.246,3.714,7.735,5.786c-2.964-1.306-5.815-2.796-8.625-4.35
					c-2.817-1.543-5.568-3.193-8.305-4.867c-2.715-1.708-5.418-3.436-8.054-5.273C127.781,352.895,125.177,351.006,122.687,348.936z
					"/>
			</g>
		</g>
		<g>
			
				<linearGradient id="SVGID_00000157309484812995918920000009028720022076912318_" gradientUnits="userSpaceOnUse" x1="-1029.8993" y1="282.0658" x2="-1063.9305" y2="309.0688" gradientTransform="matrix(0.2555 0.9668 0.9668 -0.2555 126.4658 1488.4395)">
				<stop  offset="0" style="stop-color:#00D4C2"/>
				<stop  offset="1" style="stop-color:#009F85"/>
			</linearGradient>
			<path style="fill:url(#SVGID_00000157309484812995918920000009028720022076912318_);" d="M152.401,385.929
				c-20.971,4.908-27.655,16.538-20.302,45.162C167.64,415.903,152.401,385.929,152.401,385.929z"/>
			<g>
				<path style="fill:#1D746B;" d="M136.296,420.89c0.935-3.101,2.064-6.112,3.262-9.092c1.185-2.986,2.485-5.918,3.808-8.841
					c1.359-2.906,2.743-5.8,4.242-8.641c1.486-2.847,3.042-5.662,4.793-8.387c-0.933,3.102-2.061,6.114-3.259,9.094
					c-1.186,2.985-2.486,5.918-3.811,8.839c-1.362,2.904-2.745,5.798-4.244,8.64C139.6,415.348,138.045,418.164,136.296,420.89z"/>
			</g>
		</g>
		<g>
			
				<linearGradient id="SVGID_00000099651126857162385330000008132409868405085871_" gradientUnits="userSpaceOnUse" x1="-50.638" y1="494.9758" x2="-64.6773" y2="506.1157" gradientTransform="matrix(-0.4559 0.8901 0.8901 0.4559 -384.8648 217.63)">
				<stop  offset="0" style="stop-color:#00D4C2"/>
				<stop  offset="1" style="stop-color:#009F85"/>
			</linearGradient>
			<path style="fill:url(#SVGID_00000099651126857162385330000008132409868405085871_);" d="M93.4,392.067
				c-7.79-4.274-13.048-2.547-18.681,8.266C89.815,405.469,93.4,392.067,93.4,392.067z"/>
			<g>
				<path style="fill:#1D746B;" d="M78.82,398.36c2.291-1.371,4.689-2.494,7.114-3.556c2.435-1.037,4.897-2.012,7.467-2.736
					c-2.29,1.373-4.688,2.496-7.114,3.556C83.851,396.659,81.389,397.633,78.82,398.36z"/>
			</g>
		</g>
		<g>
			
				<linearGradient id="SVGID_00000041285399820019414440000012958897543920182713_" gradientUnits="userSpaceOnUse" x1="270.7199" y1="339.7809" x2="256.6795" y2="350.9217" gradientTransform="matrix(-0.9556 0.2946 0.2946 0.9556 246.7423 -52.0644)">
				<stop  offset="0" style="stop-color:#00D4C2"/>
				<stop  offset="1" style="stop-color:#009F85"/>
			</linearGradient>
			<path style="fill:url(#SVGID_00000041285399820019414440000012958897543920182713_);" d="M102.736,358.552
				c-2.374-8.562-7.281-11.123-18.957-7.612C90.635,365.336,102.736,358.552,102.736,358.552z"/>
			<g>
				<path style="fill:#1D746B;" d="M88.054,352.499c2.581,0.684,5.059,1.618,7.511,2.614c2.442,1.02,4.858,2.104,7.171,3.439
					c-2.582-0.682-5.059-1.617-7.511-2.614C92.783,354.916,90.367,353.832,88.054,352.499z"/>
			</g>
		</g>
		<g>
			
				<linearGradient id="SVGID_00000101787796119844865290000017537808947213550518_" gradientUnits="userSpaceOnUse" x1="151.696" y1="408.0803" x2="105.5862" y2="444.6674" gradientTransform="matrix(-0.8434 0.5373 0.5373 0.8434 25.0622 -51.5268)">
				<stop  offset="0" style="stop-color:#00D4C2"/>
				<stop  offset="1" style="stop-color:#009F85"/>
			</linearGradient>
			<path style="fill:url(#SVGID_00000101787796119844865290000017537808947213550518_);" d="M167.965,380.983
				c-14.972-25.048-32.738-28.886-66.659-7.607C135.55,412.999,167.965,380.983,167.965,380.983z"/>
			<g>
				<path style="fill:#1D746B;" d="M116.204,374.593c4.388-0.07,8.74,0.147,13.08,0.466c2.173,0.132,4.334,0.369,6.5,0.556
					l6.48,0.718l6.461,0.875c2.147,0.347,4.3,0.64,6.44,1.041c4.287,0.746,8.562,1.595,12.8,2.733
					c-4.388,0.074-8.741-0.142-13.081-0.461c-2.173-0.131-4.333-0.371-6.5-0.556l-6.48-0.722l-6.46-0.879
					c-2.147-0.345-4.3-0.641-6.44-1.042C124.718,376.576,120.443,375.728,116.204,374.593z"/>
			</g>
		</g>
		<g id="_x35__3_">
			<path id="XMLID_24_" style="fill-rule:evenodd;clip-rule:evenodd;fill:#00786E;" d="M122.899,327.836
				c1.82,0.834,3.16,0.927,3.967,0.939c-0.002-0.002-0.003-0.005-0.004-0.008c-0.156-0.437-0.251-0.807-0.261-1.088
				c0.819,0.103,1.355,0.389,2.039,0.74c0.014,0.017,0.027,0.033,0.041,0.05c-0.002-0.003-0.003-0.006-0.005-0.009
				c-0.085-0.188,0.379-0.955,0.296-1.136c0.807,0.089,1.779,1.021,1.829,1.116c0.261,0.475,0.319-1.223,0.358-1.22
				c1.196,0.126,2.3,1.513,2.3,1.513s0.284-1.131,0.091-1.192c0.83,0.2,1.852,1.29,2.088,1.785c0.023,0.043,0.051,0.045,0.077,0.017
				l0.03,0.061c0.112-0.178,0.233-0.737,0.156-1.201c0.872,0.449,1.508,0.828,1.901,1.828c0.193-0.254,0.586-0.886,0.592-1.157
				c0.984,0.378,1.543,1.21,2.04,2.041c0.244-0.2,0.541-0.763,0.609-1.074c0.832,0.374,1.212,1.082,1.642,1.772
				c0.028-0.063,0.071-0.134,0.118-0.209c0.03,0.108,0.057,0.218,0.086,0.327c-0.021-0.112-0.039-0.224-0.063-0.335
				c0.204-0.33,0.59-0.773,0.587-1.076c0.842,0.392,1.124,1.301,1.555,2.095c0.135-0.269,0.667-0.816,0.714-1.139
				c0.766,0.517,0.881,1.4,1.349,2.088c0.074-0.255,0.485-0.92,0.847-1.098c0.646,0.669,0.382,1.3,0.846,1.984
				c0.103-0.298,0.554-0.604,0.747-0.961c0.423,0.362,0.706,1.297,0.871,1.975c0.207-0.283,0.72-0.651,0.706-0.934
				c0.903,0.653,0.63,1.674,1.096,2.216c0.043-0.304,0.297-0.532,0.426-0.817c1.296,1.05,0.878,1.922,1.065,2.914
				c0.019-0.183,1.012-0.752,1.029-0.954c0.679,0.98,0.601,1.701,0.479,2.857c0.176-0.312,0.807-0.332,0.951-0.679
				c0.634,0.882,0.273,2.156,0.376,3.304c-0.002,0.024-0.004,0.049-0.006,0.073c0.114-0.228,1.338-0.553,1.441-0.775
				c0.262,1.06-0.457,2.476-0.389,3.558c0.124-0.27,1.032-0.398,1.248-0.619c0.281,1.261-0.563,2.116-0.674,3.288
				c0.177-0.205,1.132-0.309,1.308-0.512c-0.074,1.242-1.312,2.641-1.597,3.857c0.351-0.187,1.369-0.851,1.816-0.783
				c-0.304,1.076-0.712,2.287-1.203,3.412c-0.935,2.136-1.268,6.087-1.112,8.697c-2.604-0.24-6.563-0.034-8.728,0.832
				c-1.14,0.455-2.363,0.824-3.449,1.093c-0.053-0.449,0.643-1.445,0.841-1.79c-1.225,0.245-2.663,1.438-3.907,1.472
				c0.208-0.17,0.342-1.121,0.553-1.291c-1.175,0.073-2.056,0.889-3.308,0.568c0.228-0.209,0.384-1.112,0.659-1.227
				c-1.079-0.103-2.518,0.57-3.569,0.274c0.225-0.096,0.589-1.309,0.821-1.415c-0.024,0.001-0.049,0.002-0.073,0.004
				c-1.143-0.139-2.429,0.181-3.29-0.482c0.352-0.133,0.392-0.762,0.71-0.928c-1.16,0.084-1.883,0.14-2.84-0.571
				c0.202-0.011,0.803-0.985,0.987-0.998c-0.986-0.219-1.87,0.171-2.878-1.158c0.289-0.119,0.525-0.366,0.831-0.4
				c-0.527-0.484-1.556-0.244-2.18-1.167c0.282,0.023,0.667-0.477,0.956-0.676c-0.673-0.187-1.598-0.5-1.946-0.934
				c0.364-0.181,0.683-0.622,0.985-0.716c-0.669-0.486-1.308-0.242-1.956-0.909c0.189-0.356,0.867-0.746,1.124-0.812
				c-0.673-0.49-1.551-0.634-2.043-1.416c0.325-0.036,0.889-0.551,1.162-0.677c-0.78-0.456-1.68-0.768-2.044-1.621
				c0.304,0.013,0.758-0.359,1.095-0.552c0.11,0.027,0.222,0.049,0.332,0.073c-0.107-0.033-0.217-0.063-0.324-0.097
				c0.077-0.045,0.149-0.086,0.213-0.111c-0.677-0.453-1.371-0.855-1.719-1.698c0.314-0.058,0.886-0.337,1.094-0.574
				c-0.815-0.524-1.628-1.11-1.974-2.105c0.272,0.003,0.915-0.37,1.176-0.554c-0.986-0.426-1.344-1.073-1.766-1.959
				c0.46,0.091,1.023-0.011,1.205-0.117l-0.06-0.032c0.029-0.026,0.028-0.054-0.014-0.078c-0.487-0.253-1.544-1.309-1.717-2.145
				c0.055,0.195,1.195-0.052,1.195-0.052s-1.351-1.149-1.438-2.348c-0.002-0.04,1.697-0.043,1.231-0.319
				c-0.094-0.053-0.994-1.055-1.057-1.864c0.178,0.089,0.96-0.351,1.145-0.26c0.003,0.001,0.006,0.003,0.009,0.005
				c-0.016-0.015-0.032-0.027-0.048-0.042c-0.329-0.694-0.597-1.24-0.674-2.062c0.28,0.019,0.647,0.126,1.079,0.296
				c0.003,0.001,0.006,0.002,0.008,0.004C123.724,331.024,123.675,329.682,122.899,327.836L122.899,327.836L122.899,327.836z
				 M139.083,361.811c-0.703,0.04-1.281,0.044-1.782,0.067C137.505,361.882,138.13,361.887,139.083,361.811L139.083,361.811
				L139.083,361.811z M156.46,343.325c-0.039,0.5-0.062,1.078-0.124,1.779l0,0C156.442,344.155,156.458,343.53,156.46,343.325z"/>
			<g id="XMLID_4_">
				<path id="XMLID_5_" style="fill-rule:evenodd;clip-rule:evenodd;fill:#005144;" d="M165.39,375.474
					c0.105,0.21,0.02,0.466-0.19,0.571c-0.21,0.105-0.466,0.02-0.571-0.19c-3.041-6.003-8.324-13.207-13.277-19.313
					c-4.836,2.019-10.013,2.391-15.016,0.656l0.456,0.095c5.375,1.178,9.249,1.153,14.333-1.029
					c-1.045-1.285-2.074-2.519-3.063-3.681c-3.988,1.582-11.089,0.787-15.038-0.69c-0.695-0.26-0.93-0.384-1.542-0.792
					c0.572,0.297,0.963,0.479,1.579,0.687c3.902,1.318,10.833,2.065,14.764,0.516c-0.444-0.52-0.878-1.025-1.302-1.512
					c-0.884-1.017-1.789-2.042-2.714-3.067c-4.298,0.766-10.084-0.098-14.12-1.481l0.49,0.1c4.434,0.973,8.828,1.915,13.36,1.083
					c-1.491-1.646-3.034-3.29-4.626-4.893c-3.461,0.404-8.088,0.656-11.336-0.698c3.645,1.002,7.317,0.865,11.027,0.389
					c-1.403-1.404-2.844-2.775-4.32-4.089c-2.658-0.064-5.363-0.512-7.912-1.263c0.647,0.078,0.399,0.039,1.033,0.15
					c2.421,0.426,4.104,0.733,6.487,0.766c-2.274-2-4.63-3.86-7.061-5.487l-0.559-0.38c2.447,1.221,5.31,3.39,8.15,5.865
					c-0.295-2.454-0.794-4.113-1.501-6.526c-0.181-0.617-0.115-0.376-0.264-1.01c1.049,2.497,1.804,5.191,2.154,7.877
					c1.452,1.281,2.892,2.634,4.262,3.974c-0.047-3.732-0.424-7.378-1.922-10.841c1.804,3.044,2.194,7.696,2.273,11.186
					c1.747,1.721,3.368,3.409,4.736,4.878c0.735-4.579-0.327-8.969-1.422-13.4l-0.113-0.487c1.504,4.038,2.525,9.876,1.831,14.206
					c0.247,0.267,0.485,0.526,0.714,0.775c1.005,1.099,2.07,2.291,3.168,3.553c1.555-3.919,1.029-10.673-0.138-14.536
					c-0.188-0.622-0.358-1.019-0.636-1.6c0.388,0.624,0.504,0.863,0.742,1.566c1.327,3.931,1.896,10.891,0.285,14.862
					c1.006,1.159,2.039,2.375,3.079,3.629c2.367-5.035,2.52-8.914,1.513-14.341l-0.08-0.459c1.585,5.094,1.027,10.296-1.189,15.095
					C157.054,362.407,162.33,369.54,165.39,375.474L165.39,375.474z M138.914,342.533c-0.103-0.104-0.205-0.207-0.309-0.31
					L138.914,342.533z"/>
			</g>
		</g>
		<g>
			
				<linearGradient id="SVGID_00000146463598435484630880000011143711943475428016_" gradientUnits="userSpaceOnUse" x1="18.4789" y1="981.7574" x2="-15.5509" y2="1008.7593" gradientTransform="matrix(-0.1461 0.9893 -0.9893 -0.1461 1368.7946 545.9337)">
				<stop  offset="0" style="stop-color:#00D4C2"/>
				<stop  offset="1" style="stop-color:#009F85"/>
			</linearGradient>
			<path style="fill:url(#SVGID_00000146463598435484630880000011143711943475428016_);" d="M374.697,388.087
				c21.387,2.538,29.327,13.351,25.213,42.616C362.896,419.574,374.697,388.087,374.697,388.087z"/>
			<g>
				<path style="fill:#1D746B;" d="M394.601,421.033c-2.042-2.514-3.901-5.138-5.696-7.802c-1.806-2.656-3.504-5.378-5.182-8.112
					c-1.642-2.755-3.262-5.525-4.773-8.359c-1.523-2.828-2.98-5.695-4.253-8.673c2.044,2.512,3.905,5.136,5.699,7.8
					c1.806,2.657,3.504,5.378,5.179,8.114c1.64,2.757,3.259,5.526,4.77,8.361C391.867,415.189,393.325,418.056,394.601,421.033z"/>
			</g>
		</g>
		<g>
			
				<linearGradient id="SVGID_00000038400209903183088320000003488702830951312561_" gradientUnits="userSpaceOnUse" x1="542.4405" y1="364.8552" x2="525.1906" y2="378.5426" gradientTransform="matrix(0.9351 -0.3545 0.3545 0.9351 -249.1689 189.2567)">
				<stop  offset="0" style="stop-color:#00D4C2"/>
				<stop  offset="1" style="stop-color:#009F85"/>
			</linearGradient>
			<path style="fill:url(#SVGID_00000038400209903183088320000003488702830951312561_);" d="M377.913,355.131
				c-4.16-10.094-1.335-16.279,12.636-21.688C394.766,352.577,377.913,355.131,377.913,355.131z"/>
			<g>
				<path style="fill:#1D746B;" d="M387.58,338.182c-1.236,3.039-2.761,5.913-4.357,8.746c-1.625,2.817-3.322,5.593-5.31,8.203
					c1.234-3.04,2.759-5.914,4.357-8.746C383.896,343.569,385.594,340.793,387.58,338.182z"/>
			</g>
		</g>
		<g>
			
				<linearGradient id="SVGID_00000106839925645972966950000010079685088235941541_" gradientUnits="userSpaceOnUse" x1="197.9111" y1="437.7565" x2="180.0814" y2="451.904" gradientTransform="matrix(0.877 0.4805 -0.4805 0.877 466.7261 -104.6867)">
				<stop  offset="0" style="stop-color:#00D4C2"/>
				<stop  offset="1" style="stop-color:#009F85"/>
			</linearGradient>
			<path style="fill:url(#SVGID_00000106839925645972966950000010079685088235941541_);" d="M410.224,378.272
				c5.138-10.046,11.895-11.98,25.525-4.634C423.547,389.799,410.224,378.272,410.224,378.272z"/>
			<g>
				<path style="fill:#1D746B;" d="M430.033,374.487c-3.218,1.069-6.5,1.801-9.798,2.449c-3.305,0.615-6.625,1.146-10.011,1.336
					c3.217-1.072,6.499-1.803,9.798-2.449C423.327,375.21,426.647,374.68,430.033,374.487z"/>
			</g>
		</g>
		<g>
			
				<linearGradient id="SVGID_00000127018681756454568690000004155764749369544329_" gradientUnits="userSpaceOnUse" x1="25.5135" y1="759.0521" x2="11.7545" y2="769.9695" gradientTransform="matrix(0.2915 0.9566 -0.9566 0.2915 1140.2319 170.8398)">
				<stop  offset="0" style="stop-color:#00D4C2"/>
				<stop  offset="1" style="stop-color:#009F85"/>
			</linearGradient>
			<path style="fill:url(#SVGID_00000127018681756454568690000004155764749369544329_);" d="M408.54,408.051
				c8.254-2.775,13.027-0.198,16.59,11.207C409.678,421.599,408.54,408.051,408.54,408.051z"/>
			<g>
				<path style="fill:#1D746B;" d="M421.516,416.644c-2.353-1.145-4.559-2.511-6.729-3.932c-2.156-1.442-4.275-2.94-6.246-4.661
					c2.354,1.143,4.56,2.51,6.729,3.932C417.424,413.427,419.543,414.925,421.516,416.644z"/>
			</g>
		</g>
		<ellipse style="fill:#DEDEDE;" cx="259.484" cy="440.9" rx="159.811" ry="6.291"/>
		
			<linearGradient id="SVGID_00000006675442809332760420000009522324578371379074_" gradientUnits="userSpaceOnUse" x1="368.1489" y1="226.9804" x2="368.1489" y2="109.5149">
			<stop  offset="0" style="stop-color:#005599"/>
			<stop  offset="1" style="stop-color:#003670"/>
		</linearGradient>
		<path style="fill:url(#SVGID_00000006675442809332760420000009522324578371379074_);" d="M354.595,316.706h4.098l23.002-212.957
			c0.105-1.193-0.836-2.22-2.034-2.22l0,0c-1.058,0-1.941,0.808-2.033,1.862L354.595,316.706z"/>
		
			<linearGradient id="SVGID_00000147898750195545942840000017001958977944971148_" gradientUnits="userSpaceOnUse" x1="143.415" y1="226.9711" x2="143.415" y2="109.4936">
			<stop  offset="0" style="stop-color:#005599"/>
			<stop  offset="1" style="stop-color:#003670"/>
		</linearGradient>
		<path style="fill:url(#SVGID_00000147898750195545942840000017001958977944971148_);" d="M158.058,316.706h-4.098l-25.18-212.979
			c-0.105-1.193,0.835-2.22,2.033-2.22h0c1.058,0,1.941,0.808,2.033,1.862L158.058,316.706z"/>
		<g>
			<path style="fill:#6B3806;" d="M271.613,184.32c0,0,8.84,4.925,13.173,18.871c4.954,15.947-3.352,28.008,0.123,39.321
				c3.335,10.857,17.351,11.806,13.002,29.368c-6.043,24.402-62.854,8.825-62.854,8.825l25.222-23.907l-0.744-25.227L271.613,184.32
				z"/>
			<path style="fill:#6B3806;" d="M236.899,192.96c0,0-5.339-2.273-8.86,6.75c-3.522,9.023,3.18,24.82-0.315,35.084
				c-4.674,13.727-8.642,21.663-3.948,33.927c6.044,15.794,16.792,11.753,16.792,11.753s21.779-9.599,17.121-38.619
				C253.032,212.836,236.899,192.96,236.899,192.96z"/>
			<path style="fill:#00BDAA;" d="M215.259,304.414c0,0,9.192-38.564,16.653-44.959c2.704-2.318,4.502-3.175,10.441-4.782
				c5.94-1.606,10.527-3.344,16.042-3.344c5.514,0,24.601,5.552,24.601,5.552s7.154,3.352,8.657,9.362
				c-2.226,2.017-6.066,8.362-7.025,11.204c-2.223,6.591-6.405,36.398-7.376,46.495c-1.08,4.306-12.529,6.002-16.559,6.112
				c-3.179,0.086-16.646-4.411-16.57-4.522c0.739-6.883-5.44-36.833-6.98-46.229c-1.705,3.554-11.37,28.32-12.369,29.821
				C217.879,308.909,215.259,304.414,215.259,304.414z"/>
			<path style="fill:#00BDAA;" d="M215.259,304.414c-0.678,3.436,2.074,23.884,2.074,23.884l8.221-0.484c0,0,0.396-9.5-0.704-19.694
				C224.132,301.469,216.7,297.118,215.259,304.414z"/>
			<ellipse style="fill:#009D90;" cx="260.792" cy="283.599" rx="13.859" ry="1.325"/>
			<path style="fill:#EEAB67;" d="M258.059,262.486c2.36-1.854,3.652-4.102,4.489-7.487l0.067-9.329l-9.386,0.157l0.189,9.335
				C254.238,258.44,254.969,260.294,258.059,262.486z"/>
			<path style="fill:#FBCA8E;" d="M240.766,225.42c1.771,3.757,1.956,6.735-0.487,8.036c-2.44,1.302-7.999,0.222-9.77-3.536
				c-1.773-3.761-1.228-7.861,1.215-9.163C234.165,219.457,238.996,221.661,240.766,225.42z"/>
			<path style="fill:#FBCA8E;" d="M234.867,230.459c2.983,13.089,13.061,21.293,26.29,19.155
				c12.035-1.944,19.187-19.479,18.412-34.946c-0.775-15.468-9.934-27.087-24.541-25.804
				C232.655,190.828,228.581,202.875,234.867,230.459z"/>
			<path style="fill:#FBCA8E;" d="M272.91,221.859c-1.262,3.959-1.054,6.933,1.54,7.903c2.59,0.969,7.958-0.831,9.22-4.79
				c1.263-3.961,0.183-7.952-2.408-8.923C278.671,215.079,274.171,217.9,272.91,221.859z"/>
			<path style="fill:#6B3806;" d="M236.491,194.085c0,0,1.849,8.954,8.028,13.187c6.179,4.232,15.704,4.291,21.434,4.683
				c5.73,0.393,9.638,4.619,10.385,8.123c0.342,1.606,0.686,3.928,0.857,5.135c0.037,0.261,0.376,0.327,0.495,0.095
				c1.242-2.429,4.89-11.028,1.899-23.47c-3.56-14.807-6.46-19.278-17.511-21.321c-9.239-1.708-16.946,1.475-20.046,3.705
				C236.925,187.893,235.978,190.321,236.491,194.085z"/>
			
				<linearGradient id="SVGID_00000082359123341191751640000007876261250025346707_" gradientUnits="userSpaceOnUse" x1="475.5865" y1="169.388" x2="472.9136" y2="171.0495" gradientTransform="matrix(0.9679 0.2513 -0.2513 0.9679 -158.1968 -54.4719)">
				<stop  offset="0" style="stop-color:#D38278"/>
				<stop  offset="1" style="stop-color:#F6B9AD;stop-opacity:0"/>
			</linearGradient>
			<path style="fill:url(#SVGID_00000082359123341191751640000007876261250025346707_);" d="M256.285,228.201
				c1.669-0.334,3.076-0.06,3.388,1.178c0.313,1.238-1.376,1.994-2.762,2.156C255.526,231.698,254.986,228.461,256.285,228.201z"/>
			<g>
				<path style="fill:#A56052;" d="M255.551,228.434c0.636-0.254,1.321-0.411,2.026-0.407c0.693,0.01,1.45,0.183,1.986,0.758
					c0.246,0.288,0.382,0.744,0.233,1.115c-0.035,0.197-0.17,0.339-0.253,0.507c-0.124,0.133-0.247,0.27-0.383,0.386
					c-0.557,0.454-1.22,0.689-1.874,0.882c0.595-0.336,1.211-0.638,1.68-1.098c0.483-0.424,0.744-1.115,0.307-1.551
					c-0.382-0.46-1.067-0.65-1.712-0.71C256.9,228.254,256.229,228.33,255.551,228.434z"/>
			</g>
			<g>
				<path style="fill:#A56052;" d="M250.941,235.9c-0.253,1.053,0.288,2.069,0.893,2.837c0.639,0.78,1.532,1.315,2.504,1.596
					c0.976,0.282,2.013,0.36,3.058,0.342c0.522-0.014,1.046-0.08,1.576-0.108c0.526-0.069,1.049-0.16,1.589-0.211
					c-0.5,0.195-1.015,0.35-1.528,0.528c-0.528,0.106-1.057,0.244-1.599,0.303c-1.084,0.125-2.204,0.077-3.287-0.225
					c-1.071-0.32-2.091-0.969-2.721-1.918c-0.332-0.459-0.538-0.994-0.667-1.533C250.682,236.97,250.648,236.37,250.941,235.9z"/>
			</g>
			<g>
				
					<linearGradient id="SVGID_00000069361142289327420350000005460281205458200987_" gradientUnits="userSpaceOnUse" x1="618.6725" y1="120.316" x2="620.6111" y2="126.8932" gradientTransform="matrix(-0.9679 0.2513 0.2513 0.9679 833.3581 -54.4719)">
					<stop  offset="0" style="stop-color:#DA9C68"/>
					<stop  offset="1" style="stop-color:#DA9C68;stop-opacity:0"/>
				</linearGradient>
				<path style="fill:url(#SVGID_00000069361142289327420350000005460281205458200987_);" d="M260.485,217.098
					c-0.267,2.001-1.389,7.871,4.24,8.341c5.63,0.47,4.292-6.336,4.292-6.336S263.057,217.36,260.485,217.098z"/>
				<path style="fill:#994D1D;" d="M261.306,217.113c5.275,0.823,10.18,2.153,6.782,1.876
					C264.691,218.711,257.828,216.57,261.306,217.113z"/>
				<path style="fill:none;stroke:#643619;stroke-width:0.74;stroke-linecap:round;stroke-miterlimit:10;" d="M262,224.805
					c0,0,1.376-1.152,2.5,0.337"/>
			</g>
			<path style="fill:#F4A29D;" d="M245.639,226.937c0,0.433-1.124,0.785-2.511,0.785c-1.387,0-2.511-0.351-2.511-0.785
				c0-0.433,1.124-0.785,2.511-0.785C244.515,226.153,245.639,226.504,245.639,226.937z"/>
			<path style="fill:#F4A29D;" d="M272.111,226.937c0,0.433-1.124,0.785-2.511,0.785c-1.387,0-2.511-0.351-2.511-0.785
				c0-0.433,1.124-0.785,2.511-0.785C270.987,226.153,272.111,226.504,272.111,226.937z"/>
			<g>
				
					<linearGradient id="SVGID_00000005229887469962804250000014418499337043631749_" gradientUnits="userSpaceOnUse" x1="428.188" y1="169.7723" x2="430.1265" y2="176.3496" gradientTransform="matrix(0.9679 0.2513 -0.2513 0.9679 -124.1725 -54.4719)">
					<stop  offset="0" style="stop-color:#DA9C68"/>
					<stop  offset="1" style="stop-color:#DA9C68;stop-opacity:0"/>
				</linearGradient>
				<path style="fill:url(#SVGID_00000005229887469962804250000014418499337043631749_);" d="M251.902,217.098
					c0.267,2.001,1.39,7.871-4.24,8.341c-5.63,0.47-4.292-6.336-4.292-6.336S249.33,217.36,251.902,217.098z"/>
				<path style="fill:#994D1D;" d="M251.081,217.113c-5.275,0.823-10.18,2.153-6.782,1.876
					C247.696,218.711,254.559,216.57,251.081,217.113z"/>
				<path style="fill:none;stroke:#643619;stroke-width:0.74;stroke-linecap:round;stroke-miterlimit:10;" d="M250.387,224.805
					c0,0-1.376-1.152-2.5,0.337"/>
			</g>
		</g>
		<g>
			<polygon style="fill:#002D62;" points="370.976,439.409 151.844,439.409 150.92,429.808 371.899,429.808 			"/>
			<path style="fill:#005599;" d="M371.201,435.25H151.618c-2.215,0-4.051-1.715-4.203-3.924l-7.811-113.691h243.611l-7.811,113.691
				C375.252,433.535,373.416,435.25,371.201,435.25z"/>
			<polygon style="fill:#0087CF;" points="347.389,435.25 175.43,435.25 169.322,317.634 353.498,317.634 			"/>
			
				<linearGradient id="SVGID_00000112632030360620882600000007903557662264436096_" gradientUnits="userSpaceOnUse" x1="261.4096" y1="320.2576" x2="261.4096" y2="333.0917">
				<stop  offset="0" style="stop-color:#003A77"/>
				<stop  offset="1" style="stop-color:#003A77;stop-opacity:0"/>
			</linearGradient>
			<polygon style="fill:url(#SVGID_00000112632030360620882600000007903557662264436096_);" points="139.802,320.511 
				140.922,336.821 381.897,336.821 383.017,320.511 			"/>
			<path style="fill:#96DFF5;" d="M393.546,313.265H128.189c-1.065,0-1.929,0.864-1.929,1.929v4.532
				c0,1.065,0.864,1.929,1.929,1.929h265.356c1.065,0,1.929-0.864,1.929-1.929v-4.532
				C395.475,314.128,394.611,313.265,393.546,313.265z"/>
			<polygon style="fill:#ADFFFF;" points="368.982,313.265 152.753,313.265 152.753,321.655 152.753,321.655 368.981,321.655 
				368.982,321.655 			"/>
		</g>
		<path style="fill:#FBCA8E;" d="M307.948,204.816L307.948,204.816c0,0-1.176-2.166-1.027-3.856c0.15-1.69,0.426-3.804,0.549-5.456
			c0.123-1.651,0.157-4.245,0.332-4.847c0.176-0.602,0.923-0.743,1.579,0.023c0.656,0.766,0.541,2.938,0.471,3.678
			c-0.07,0.74-0.096,2.226,0.593,2.139c0.689-0.087,2.989-2.959,3.805-3.948c0.816-0.989,2.971-3.525,4.691-5.022
			c1.188-1.034,2.156-1.598,2.659-1.054c0.503,0.545-0.158,1.639-0.83,2.331c-0.672,0.692-4.493,4.683-4.413,5.111
			c0.08,0.428,6.085-6.111,6.952-6.7c0.868-0.589,2.54,0.04,1.21,1.927c-1.33,1.887-5.783,6.784-5.65,7.063
			c0.133,0.28,5.253-5.586,5.972-6.194c0.72-0.608,1.632-0.017,1.093,1.387c-0.539,1.404-5.28,6.15-5.331,6.73
			c-0.052,0.58,1.115-0.563,2.21-1.695c1.225-1.266,2.572-2.64,3.175-2.322c0.523,0.276-0.063,1.735-1.784,3.416
			c-1.721,1.681-4.169,5.009-6.628,8.113c-1.819,2.297-1.016,6.009-2.008,5.656l-7.465-0.931
			C307.023,209.981,307.617,205.745,307.948,204.816z"/>
		<path style="fill:#00BDAA;" d="M317.748,205.95l-11.135-0.936l-1.996,33.277c-0.135,2.258-1.515,4.253-3.579,5.178l-25.451,11.4
			c-1.903,4.138-1.381,19.128,6.882,26.065c1.393-3.144,29.702-29.252,34.4-33.572c0.421-0.388,0.66-0.93,0.663-1.503
			L317.748,205.95z"/>
		<path style="fill:#00D6FF;" d="M385.204,151.18c-0.324,1.194-1.595,1.855-2.752,1.416c-9.388-3.564-49.952-17.046-126.324-17.046
			c-76.537,0-117.957,13.541-127.45,17.069c-1.154,0.429-2.417-0.233-2.739-1.421l-10.696-39.427
			c-0.292-1.076,0.309-2.189,1.367-2.54c10.302-3.412,62.241-19.242,139.201-19.242c76.938,0,128.483,15.82,138.723,19.239
			c1.056,0.353,1.653,1.464,1.362,2.538L385.204,151.18z"/>
		<path style="fill:none;stroke:#FFFFFF;stroke-width:1.11;stroke-miterlimit:10;" d="M380.737,145.452
			c-0.359,1.136-1.571,1.767-2.704,1.397c-9.337-3.05-50.617-15.054-121.925-15.054c-71.441,0-113.566,12.049-123.009,15.071
			c-1.13,0.361-2.337-0.269-2.694-1.4l-10.101-31.931c-0.361-1.14,0.268-2.352,1.412-2.699c10.497-3.19,60.41-17.074,134.087-17.074
			c73.65,0,123.189,13.874,133.625,17.071c1.142,0.35,1.767,1.56,1.407,2.698L380.737,145.452z"/>
		<path id="SVGID_x5F_00000088844754245930657020000004519388487326772134_x5F_" style="fill:none;" d="M133.755,140.246
			c0,0,39.254-16.902,122.341-16.902s121.286,16.902,121.286,16.902"/>
		<text>		<textPath  xlink:href="#SVGID_x5F_00000088844754245930657020000004519388487326772134_x5F_" startOffset="0.3905%">
<tspan  style="fill:#FFFFFF; font-family:'Raleway-Black'; font-size:27.8566px;">WELCOME</tspan>		</textPath>
</text>
		<path style="fill:#6B3806;" d="M239.211,199.069c-0.205,7.458,9.579,17.994,24.426,16.421
			c-4.105,0.342-17.379-1.574-21.621-13.889C239.043,192.967,239.211,199.069,239.211,199.069z"/>
		<path style="fill:#6B3806;" d="M242.555,204.369c-4.1,5.542-7.06,15.184-5.542,24.977c-1.442-2.733-0.835-13.741-0.835-13.741
			s-2.374,6.55-0.656,12.613c-4.051-4.186-8.455-21.42-4.355-28.936c4.1-7.516,6.453-4.783,7.136-4.176
			C238.987,195.715,242.555,204.369,242.555,204.369z"/>
		<g>
			
				<linearGradient id="SVGID_00000104670679612232638640000007495858016140754106_" gradientUnits="userSpaceOnUse" x1="336.302" y1="224.1567" x2="336.302" y2="216.9345">
				<stop  offset="0" style="stop-color:#005599"/>
				<stop  offset="1" style="stop-color:#003670"/>
			</linearGradient>
			
				<circle style="fill:none;stroke:url(#SVGID_00000104670679612232638640000007495858016140754106_);stroke-width:0.74;stroke-miterlimit:10;" cx="336.302" cy="220.546" r="3.241"/>
			
				<linearGradient id="SVGID_00000089556520236133276110000012085780543781961402_" gradientUnits="userSpaceOnUse" x1="350.2636" y1="192.4937" x2="350.2636" y2="188.7619">
				<stop  offset="0" style="stop-color:#005599"/>
				<stop  offset="1" style="stop-color:#003670"/>
			</linearGradient>
			
				<path style="fill:none;stroke:url(#SVGID_00000089556520236133276110000012085780543781961402_);stroke-width:0.74;stroke-miterlimit:10;" d="
				M351.759,190.628c0,0.826-0.67,1.496-1.496,1.496c-0.826,0-1.496-0.67-1.496-1.496c0-0.826,0.67-1.496,1.496-1.496
				C351.09,189.132,351.759,189.802,351.759,190.628z"/>
			
				<linearGradient id="SVGID_00000029015486581577805040000006869589837560906909_" gradientUnits="userSpaceOnUse" x1="285.6911" y1="171.0526" x2="285.6911" y2="153.8578">
				<stop  offset="0" style="stop-color:#005599"/>
				<stop  offset="1" style="stop-color:#003670"/>
			</linearGradient>
			
				<circle style="fill:none;stroke:url(#SVGID_00000029015486581577805040000006869589837560906909_);stroke-width:0.74;stroke-miterlimit:10;" cx="285.691" cy="162.455" r="8.227"/>
			
				<linearGradient id="SVGID_00000103249635501682334850000015816458515326225292_" gradientUnits="userSpaceOnUse" x1="263.502" y1="168.8087" x2="263.502" y2="164.0797">
				<stop  offset="0" style="stop-color:#005599"/>
				<stop  offset="1" style="stop-color:#003670"/>
			</linearGradient>
			
				<path style="fill:none;stroke:url(#SVGID_00000103249635501682334850000015816458515326225292_);stroke-width:0.74;stroke-miterlimit:10;" d="
				M265.497,166.444c0,1.102-0.893,1.995-1.995,1.995c-1.102,0-1.995-0.893-1.995-1.995c0-1.102,0.893-1.994,1.995-1.994
				C264.604,164.45,265.497,165.343,265.497,166.444z"/>
			
				<linearGradient id="SVGID_00000013159586598446119930000014927324415242959530_" gradientUnits="userSpaceOnUse" x1="197.6828" y1="192.9923" x2="197.6828" y2="181.2824">
				<stop  offset="0" style="stop-color:#005599"/>
				<stop  offset="1" style="stop-color:#003670"/>
			</linearGradient>
			
				<path style="fill:none;stroke:url(#SVGID_00000013159586598446119930000014927324415242959530_);stroke-width:0.74;stroke-miterlimit:10;" d="
				M203.168,187.137c0,3.029-2.456,5.485-5.485,5.485c-3.029,0-5.485-2.456-5.485-5.485c0-3.029,2.456-5.485,5.485-5.485
				C200.712,181.652,203.168,184.108,203.168,187.137z"/>
			
				<linearGradient id="SVGID_00000016047562267525945370000017284865402656928942_" gradientUnits="userSpaceOnUse" x1="223.113" y1="184.7649" x2="223.113" y2="181.5318">
				<stop  offset="0" style="stop-color:#005599"/>
				<stop  offset="1" style="stop-color:#003670"/>
			</linearGradient>
			
				<path style="fill:none;stroke:url(#SVGID_00000016047562267525945370000017284865402656928942_);stroke-width:0.74;stroke-miterlimit:10;" d="
				M224.36,183.148c0,0.689-0.558,1.247-1.247,1.247c-0.689,0-1.247-0.558-1.247-1.247c0-0.688,0.558-1.247,1.247-1.247
				C223.801,181.902,224.36,182.46,224.36,183.148z"/>
			
				<linearGradient id="SVGID_00000016797232225213220490000015935857898584661399_" gradientUnits="userSpaceOnUse" x1="189.9541" y1="240.3622" x2="189.9541" y2="228.6523">
				<stop  offset="0" style="stop-color:#005599"/>
				<stop  offset="1" style="stop-color:#003670"/>
			</linearGradient>
			
				<path style="fill:none;stroke:url(#SVGID_00000016797232225213220490000015935857898584661399_);stroke-width:0.74;stroke-miterlimit:10;" d="
				M195.439,234.507c0,3.029-2.456,5.485-5.485,5.485c-3.029,0-5.485-2.456-5.485-5.485c0-3.029,2.456-5.485,5.485-5.485
				C192.983,229.022,195.439,231.478,195.439,234.507z"/>
			
				<linearGradient id="SVGID_00000121245503398410526160000007074919019448348049_" gradientUnits="userSpaceOnUse" x1="158.7897" y1="203.2142" x2="158.7897" y2="198.9838">
				<stop  offset="0" style="stop-color:#005599"/>
				<stop  offset="1" style="stop-color:#003670"/>
			</linearGradient>
			
				<circle style="fill:none;stroke:url(#SVGID_00000121245503398410526160000007074919019448348049_);stroke-width:0.74;stroke-miterlimit:10;" cx="158.79" cy="201.099" r="1.745"/>
			
				<linearGradient id="SVGID_00000158003801028717864570000016188585675746036386_" gradientUnits="userSpaceOnUse" x1="189.4555" y1="284.9895" x2="189.4555" y2="280.2605">
				<stop  offset="0" style="stop-color:#005599"/>
				<stop  offset="1" style="stop-color:#003670"/>
			</linearGradient>
			
				<circle style="fill:none;stroke:url(#SVGID_00000158003801028717864570000016188585675746036386_);stroke-width:0.74;stroke-miterlimit:10;" cx="189.455" cy="282.625" r="1.994"/>
			
				<linearGradient id="SVGID_00000022562743416674648500000017648577658586508674_" gradientUnits="userSpaceOnUse" x1="325.5815" y1="283.2443" x2="325.5815" y2="265.0523">
				<stop  offset="0" style="stop-color:#005599"/>
				<stop  offset="1" style="stop-color:#003670"/>
			</linearGradient>
			
				<circle style="fill:none;stroke:url(#SVGID_00000022562743416674648500000017648577658586508674_);stroke-width:0.74;stroke-miterlimit:10;" cx="325.581" cy="274.148" r="8.726"/>
		</g>
	</g>
</g>
<g id="DESIGNED_BY_FREEPIK">
	<g>
		<g id="XMLID_319_">
			<g id="XMLID_338_">
				<path id="XMLID_346_" style="fill:#A5B7C6;" d="M260.104,465.465c-0.432,0.443-0.803,0.931-1.108,1.453l-0.465-0.241
					c-0.067-0.298-0.349-0.503-0.659-0.466c-0.331,0.039-0.568,0.339-0.529,0.67s0.339,0.568,0.67,0.529
					c0.065-0.008,0.127-0.026,0.184-0.052l0.451,0.234c-0.251,0.554-0.433,1.139-0.539,1.744l0.746,0.132
					c0.23-1.306,0.85-2.507,1.792-3.473L260.104,465.465z"/>
				<path id="XMLID_345_" style="fill:#A5B7C6;" d="M265.592,463.163c-0.171,0-0.341,0.006-0.51,0.017l-0.074-0.626
					c0.188-0.149,0.296-0.389,0.266-0.645c-0.046-0.393-0.402-0.674-0.795-0.628s-0.674,0.402-0.628,0.795
					c0.03,0.254,0.189,0.461,0.405,0.564l0.073,0.624c-0.714,0.116-1.403,0.332-2.06,0.646l0.327,0.684
					c0.934-0.447,1.942-0.673,2.995-0.673c0.496,0,0.993,0.053,1.475,0.158l0.161-0.741
					C266.693,463.222,266.142,463.163,265.592,463.163z"/>
				<path id="XMLID_344_" style="fill:#A5B7C6;" d="M272.194,465.711c0.331-0.04,0.566-0.341,0.525-0.672
					c-0.04-0.331-0.341-0.566-0.672-0.526c-0.309,0.038-0.535,0.304-0.53,0.609l-0.416,0.363c-0.418-0.43-0.89-0.813-1.408-1.139
					l-0.404,0.641c1.134,0.715,2.021,1.726,2.563,2.925l0.691-0.313c-0.251-0.554-0.568-1.072-0.942-1.545l0.402-0.351
					C272.065,465.716,272.129,465.719,272.194,465.711z"/>
				<path id="XMLID_343_" style="fill:#A5B7C6;" d="M265.044,473.372c-0.386,0.023-0.775,0.035-1.157,0.035
					c-0.88,0-1.733-0.061-2.478-0.179c-0.39-0.062-0.846-0.155-1.27-0.292c1.046,1.861,3.069,3.125,5.388,3.125
					c2.855,0,5.262-1.916,5.95-4.504c-0.682,0.449-1.505,0.825-2.459,1.123C267.839,473.047,266.464,473.286,265.044,473.372z"/>
				<path id="XMLID_339_" style="fill:#A5B7C6;" d="M265.592,464.68c-3.352,0-6.08,2.666-6.08,5.943
					c0,0.426,0.046,0.849,0.137,1.261c0.674,0.483,2.706,0.89,5.348,0.731c2.879-0.173,5.297-0.957,6.672-2.159
					c-0.005-0.195-0.021-0.39-0.045-0.582C271.244,466.913,268.65,464.68,265.592,464.68z M263.432,471.194
					c-1.02,0-1.85-0.83-1.85-1.85c0-1.02,0.83-1.85,1.85-1.85c1.02,0,1.85,0.83,1.85,1.85
					C265.282,470.365,264.452,471.194,263.432,471.194z M268.17,470.286c-0.75,0-1.36-0.61-1.36-1.36s0.61-1.361,1.36-1.361
					c0.75,0,1.361,0.61,1.361,1.361S268.92,470.286,268.17,470.286z"/>
			</g>
			<path id="XMLID_336_" style="fill:#A5B7C6;" d="M281.595,466.547c-0.295-0.116-0.806-0.309-1.382-0.237
				c-0.551,0.069-0.844,0.341-0.844,1.007v0.866h2.228v1.717h-2.228v5.455h-1.932v-5.455h-1.34v-1.717h1.34v-0.888
				c0-1.68,0.896-2.783,2.568-2.783c0.642,0,1.157,0.122,1.59,0.308L281.595,466.547z"/>
			<path id="XMLID_334_" style="fill:#A5B7C6;" d="M286.298,469.879c-0.177-0.03-0.358-0.046-0.526-0.046
				c-0.896,0-1.51,0.548-1.51,1.614v3.908h-1.932v-7.172h1.873v0.785c0.451-0.673,1.14-0.977,2.021-0.977
				c0.414,0,0.848,0.128,1.094,0.337L286.298,469.879z"/>
			<path id="XMLID_331_" style="fill:#A5B7C6;" d="M293.965,471.757c0,0.222-0.015,0.489-0.037,0.651h-5.085
				c0.207,1.036,0.933,1.488,1.843,1.488c0.622,0,1.295-0.252,1.813-0.688l1.132,1.243c-0.814,0.748-1.85,1.088-3.057,1.088
				c-2.198,0-3.723-1.495-3.723-3.753c0-2.258,1.48-3.797,3.627-3.797C292.544,467.99,293.958,469.522,293.965,471.757z
				 M288.851,471.091h3.175c-0.177-0.918-0.733-1.436-1.562-1.436C289.554,469.655,289.021,470.203,288.851,471.091z"/>
			<path id="XMLID_328_" style="fill:#A5B7C6;" d="M301.618,471.757c0,0.222-0.015,0.489-0.037,0.651h-5.085
				c0.207,1.036,0.932,1.488,1.843,1.488c0.622,0,1.295-0.252,1.813-0.688l1.132,1.243c-0.814,0.748-1.85,1.088-3.057,1.088
				c-2.198,0-3.723-1.495-3.723-3.753c0-2.258,1.48-3.797,3.627-3.797C300.197,467.99,301.611,469.522,301.618,471.757z
				 M296.504,471.091h3.175c-0.178-0.918-0.733-1.436-1.562-1.436C297.207,469.655,296.674,470.203,296.504,471.091z"/>
			<path id="XMLID_325_" style="fill:#A5B7C6;" d="M309.964,471.764c0,2.154-1.495,3.775-3.471,3.775
				c-0.962,0-1.643-0.378-2.109-0.933v3.708h-1.924v-10.133h1.887v0.792c0.466-0.585,1.155-0.984,2.139-0.984
				C308.469,467.99,309.964,469.61,309.964,471.764z M304.287,471.764c0,1.132,0.747,1.976,1.843,1.976
				c1.14,0,1.85-0.881,1.85-1.976c0-1.095-0.71-1.976-1.85-1.976C305.035,469.788,304.287,470.632,304.287,471.764z"/>
			<path id="XMLID_322_" style="fill:#A5B7C6;" d="M313.068,465.836c0,0.696-0.54,1.229-1.236,1.229
				c-0.696,0-1.229-0.533-1.229-1.229c0-0.696,0.533-1.243,1.229-1.243C312.527,464.592,313.068,465.14,313.068,465.836z
				 M312.809,475.354h-1.932v-7.172h1.932V475.354z"/>
			<path id="XMLID_320_" style="fill:#A5B7C6;" d="M316.032,470.736l2.702-2.554h2.368l-3.479,3.375l3.501,3.797h-2.376
				l-2.716-2.901v2.901H314.1v-10.658h1.932V470.736z"/>
		</g>
		<g>
			<path style="fill:#A5B7C6;" d="M184.412,475.289v-1.055c-0.527,0.718-1.391,1.23-2.387,1.23c-1.846,0-3.149-1.406-3.149-3.706
				c0-2.256,1.289-3.721,3.149-3.721c0.952,0,1.816,0.469,2.387,1.245v-3.765h1.099v9.77H184.412z M184.412,473.37v-3.208
				c-0.395-0.615-1.245-1.143-2.124-1.143c-1.421,0-2.27,1.172-2.27,2.739c0,1.567,0.85,2.724,2.27,2.724
				C183.168,474.483,184.017,473.986,184.412,473.37z"/>
			<path style="fill:#A5B7C6;" d="M186.932,471.744c0-2.051,1.465-3.706,3.486-3.706c2.139,0,3.398,1.67,3.398,3.794v0.279h-5.727
				c0.088,1.333,1.025,2.446,2.549,2.446c0.805,0,1.626-0.322,2.182-0.894l0.527,0.718c-0.703,0.703-1.655,1.084-2.812,1.084
				C188.44,475.465,186.932,473.956,186.932,471.744z M190.403,468.947c-1.509,0-2.256,1.274-2.314,2.358h4.643
				C192.718,470.25,192.015,468.947,190.403,468.947z"/>
			<path style="fill:#A5B7C6;" d="M194.607,474.351l0.571-0.791c0.469,0.542,1.362,1.011,2.329,1.011c1.084,0,1.67-0.513,1.67-1.216
				c0-1.714-4.38-0.659-4.38-3.281c0-1.098,0.952-2.036,2.636-2.036c1.201,0,2.051,0.454,2.622,1.026l-0.513,0.762
				c-0.424-0.513-1.201-0.894-2.109-0.894c-0.967,0-1.567,0.483-1.567,1.113c0,1.552,4.38,0.527,4.38,3.281
				c0,1.187-0.952,2.138-2.783,2.138C196.306,475.465,195.325,475.113,194.607,474.351z"/>
			<path style="fill:#A5B7C6;" d="M201.477,466.471c0-0.41,0.337-0.747,0.732-0.747c0.41,0,0.747,0.337,0.747,0.747
				c0,0.41-0.337,0.732-0.747,0.732C201.814,467.203,201.477,466.881,201.477,466.471z M201.667,475.289v-7.075h1.099v7.075H201.667
				z"/>
			<path style="fill:#A5B7C6;" d="M204.582,477.105l0.556-0.82c0.586,0.703,1.289,0.967,2.3,0.967c1.172,0,2.27-0.571,2.27-2.124
				v-1.011c-0.513,0.718-1.377,1.26-2.373,1.26c-1.845,0-3.149-1.377-3.149-3.662c0-2.27,1.289-3.677,3.149-3.677
				c0.952,0,1.802,0.469,2.373,1.245v-1.069h1.098v6.87c0,2.344-1.641,3.076-3.369,3.076
				C206.237,478.16,205.417,477.926,204.582,477.105z M209.709,473.253v-3.091c-0.381-0.615-1.23-1.143-2.109-1.143
				c-1.421,0-2.27,1.128-2.27,2.695c0,1.553,0.849,2.695,2.27,2.695C208.478,474.41,209.328,473.868,209.709,473.253z"/>
			<path style="fill:#A5B7C6;" d="M217.413,475.289v-4.629c0-1.245-0.63-1.641-1.582-1.641c-0.865,0-1.685,0.527-2.095,1.099v5.17
				h-1.099v-7.075h1.099v1.025c0.498-0.586,1.464-1.201,2.519-1.201c1.48,0,2.256,0.747,2.256,2.285v4.966H217.413z"/>
			<path style="fill:#A5B7C6;" d="M219.932,471.744c0-2.051,1.465-3.706,3.486-3.706c2.139,0,3.398,1.67,3.398,3.794v0.279h-5.727
				c0.088,1.333,1.025,2.446,2.549,2.446c0.806,0,1.626-0.322,2.183-0.894l0.527,0.718c-0.703,0.703-1.655,1.084-2.812,1.084
				C221.441,475.465,219.932,473.956,219.932,471.744z M223.404,468.947c-1.509,0-2.256,1.274-2.314,2.358h4.643
				C225.718,470.25,225.015,468.947,223.404,468.947z"/>
			<path style="fill:#A5B7C6;" d="M233.35,475.289v-1.055c-0.527,0.718-1.392,1.23-2.388,1.23c-1.846,0-3.149-1.406-3.149-3.706
				c0-2.256,1.289-3.721,3.149-3.721c0.952,0,1.817,0.469,2.388,1.245v-3.765h1.098v9.77H233.35z M233.35,473.37v-3.208
				c-0.396-0.615-1.245-1.143-2.124-1.143c-1.421,0-2.27,1.172-2.27,2.739c0,1.567,0.849,2.724,2.27,2.724
				C232.105,474.483,232.954,473.986,233.35,473.37z"/>
			<path style="fill:#A5B7C6;" d="M239.692,475.289v-9.77h1.098v3.765c0.572-0.776,1.421-1.245,2.388-1.245
				c1.845,0,3.149,1.465,3.149,3.721c0,2.299-1.304,3.706-3.149,3.706c-0.996,0-1.86-0.513-2.388-1.23v1.055H239.692z
				 M242.9,474.483c1.436,0,2.285-1.157,2.285-2.724c0-1.568-0.85-2.739-2.285-2.739c-0.864,0-1.728,0.527-2.109,1.143v3.208
				C241.171,473.986,242.036,474.483,242.9,474.483z"/>
			<path style="fill:#A5B7C6;" d="M247.528,477.061c0.161,0.073,0.425,0.117,0.601,0.117c0.483,0,0.805-0.161,1.055-0.747
				l0.469-1.069l-2.959-7.148h1.187l2.358,5.8l2.344-5.8h1.201l-3.545,8.51c-0.425,1.025-1.143,1.421-2.08,1.435
				c-0.234,0-0.601-0.044-0.805-0.103L247.528,477.061z"/>
		</g>
	</g>
</g>
</svg>
